<?xml version="1.0" standalone="no"?>
<!DOCTYPE svg PUBLIC "-//W3C//DTD SVG 1.1//EN" "http://www.w3.org/Graphics/SVG/1.1/DTD/svg11.dtd" >
<svg xmlns="http://www.w3.org/2000/svg" xmlns:xlink="http://www.w3.org/1999/xlink" version="1.1">
<metadata>
Created by FontForge 20170731 at Thu Oct 20 13:37:56 2016
 By Aleksey,,,
Copyright (c) 2016 by Botio Nikoltchev. All rights reserved.
</metadata>
<defs>
<font id="Quasimoda-Bold" horiz-adv-x="391" >
  <font-face 
    font-family="Quasimoda Bold"
    font-weight="700"
    font-stretch="normal"
    units-per-em="1000"
    panose-1="0 0 8 0 0 0 0 0 0 0"
    ascent="800"
    descent="-200"
    x-height="449"
    cap-height="708"
    bbox="-606 -279 1310 1128"
    underline-thickness="50"
    underline-position="-200"
    unicode-range="U+000D-FB02"
  />
<missing-glyph horiz-adv-x="656" 
d="M556 743v-743h-456v743h456zM498 690h-340v-637h340v637zM234 482l-38 8q9 51 44.5 80.5t87.5 29.5q55 0 89.5 -31t34.5 -81q0 -37 -13.5 -63t-46.5 -53q-30 -25 -38.5 -40.5t-9.5 -44.5l-1 -33h-47l-1 34q-1 60 52 106q32 27 42.5 46t10.5 46q0 30 -20.5 50t-53.5 20
q-68 0 -82 -70zM323 123q-16 0 -27 10.5t-11 26.5t11 27t27 11q15 0 26 -11t11 -27t-11 -26.5t-26 -10.5z" />
    <glyph glyph-name="fi" unicode="fi" horiz-adv-x="598" 
d="M325 621q-21 10 -42 10q-28 0 -40.5 -19.5t-12.5 -69.5v-93h98v-103h-98v-346h-133v346h-81v103h81v89q0 111 37.5 159t120.5 48q37 0 85 -13l-6 -107zM465 564q-36 0 -59 21.5t-23 55.5q0 33 23 54.5t59 21.5t59 -22t23 -55t-23.5 -54.5t-58.5 -21.5zM398 0v449h133
v-449h-133z" />
    <glyph glyph-name="fl" unicode="fl" horiz-adv-x="603" 
d="M325 621q-21 10 -42 10q-28 0 -40.5 -19.5t-12.5 -69.5v-93h98v-103h-98v-346h-133v346h-81v103h81v89q0 111 37.5 159t120.5 48q37 0 85 -13l-6 -107zM403 0v733h133v-733h-133z" />
    <glyph glyph-name=".notdef" horiz-adv-x="656" 
d="M556 743v-743h-456v743h456zM498 690h-340v-637h340v637zM234 482l-38 8q9 51 44.5 80.5t87.5 29.5q55 0 89.5 -31t34.5 -81q0 -37 -13.5 -63t-46.5 -53q-30 -25 -38.5 -40.5t-9.5 -44.5l-1 -33h-47l-1 34q-1 60 52 106q32 27 42.5 46t10.5 46q0 30 -20.5 50t-53.5 20
q-68 0 -82 -70zM323 123q-16 0 -27 10.5t-11 26.5t11 27t27 11q15 0 26 -11t11 -27t-11 -26.5t-26 -10.5z" />
    <glyph glyph-name=".null" horiz-adv-x="0" 
 />
    <glyph glyph-name="nonmarkingreturn" horiz-adv-x="333" 
 />
    <glyph glyph-name="CR" unicode="&#xd;" horiz-adv-x="285" 
 />
    <glyph glyph-name="space" unicode=" " horiz-adv-x="285" 
 />
    <glyph glyph-name="exclam" unicode="!" horiz-adv-x="341" 
d="M107 222l-7 486h141l-7 -486h-127zM170 -11q-36 0 -59.5 23.5t-23.5 57.5q0 35 23.5 58.5t59.5 23.5t60 -23.5t24 -58.5q0 -34 -24 -57.5t-60 -23.5z" />
    <glyph glyph-name="quotedbl" unicode="&#x22;" horiz-adv-x="390" 
d="M54 425v283h104v-283h-104zM231 425v283h105v-283h-105z" />
    <glyph glyph-name="numbersign" unicode="#" horiz-adv-x="675" 
d="M633 426h-101l-20 -144h111v-98h-125l-26 -184h-108l26 184h-153l-26 -184h-107l26 184h-88v98h102l20 144h-112v98h126l26 184h107l-26 -184h153l26 184h108l-26 -184h87v-98zM404 282l20 144h-153l-20 -144h153z" />
    <glyph glyph-name="dollar" unicode="$" horiz-adv-x="700" 
d="M599 197q0 -81 -55.5 -140t-145.5 -72v-73h-91v71q-143 17 -219 145l97 67l18 -4q42 -71 104 -86v211h-1l-2 1q-103 42 -146 92.5t-43 125.5q0 73 52.5 125.5t139.5 63.5v73h91v-73q122 -16 187 -117l-96 -70l-18 4q-30 46 -73 60v-177l10 -4q108 -47 149.5 -98
t41.5 -125zM260 536q0 -20 10 -34.5t37 -31.5v131q-47 -17 -47 -65zM398 110q56 22 56 77q0 25 -12 44.5t-44 39.5v-161z" />
    <glyph glyph-name="percent" unicode="%" horiz-adv-x="949" 
d="M246 358q-77 0 -130.5 53t-53.5 129t53.5 129t130.5 53t130.5 -53t53.5 -129t-53.5 -129t-130.5 -53zM213 0l422 708h102l-423 -708h-101zM246 449q38 0 63.5 26t25.5 65t-25.5 65t-63.5 26t-63 -26t-25 -65t25 -65t63 -26zM703 -14q-77 0 -130.5 53t-53.5 129t53.5 129
t130.5 53t130.5 -53t53.5 -129t-53.5 -129t-130.5 -53zM703 77q38 0 63.5 26t25.5 65t-25.5 65t-63.5 26t-63.5 -26t-25.5 -65t25.5 -65t63.5 -26z" />
    <glyph glyph-name="ampersand" unicode="&#x26;" horiz-adv-x="728" 
d="M737 0h-169l-53 53q-93 -72 -224 -72q-107 0 -175 59t-69 152q0 123 135 193q-81 78 -81 168q0 78 56.5 126t148.5 48q89 0 145.5 -46.5t56.5 -120.5q0 -123 -139 -198l133 -131q33 60 51 146l8 6h128q-32 -147 -95 -242zM307 629q-36 0 -57.5 -21.5t-21.5 -55.5
q0 -54 65 -115q92 48 92 118q0 32 -21.5 53t-56.5 21zM300 93q72 0 129 46l-168 168q-79 -41 -78 -111q1 -46 33.5 -74.5t83.5 -28.5z" />
    <glyph glyph-name="quotesingle" unicode="'" horiz-adv-x="215" 
d="M57 425v283h104v-283h-104z" />
    <glyph glyph-name="parenleft" unicode="(" horiz-adv-x="333" 
d="M185 -170q-70 92 -109.5 213.5t-39.5 244.5t39.5 244.5t109.5 213.5l92 -47q-131 -186 -131 -411t131 -411z" />
    <glyph glyph-name="parenright" unicode=")" horiz-adv-x="351" 
d="M148 -170l-92 47q131 186 131 411t-131 411l92 47q70 -92 109.5 -213.5t39.5 -244.5t-39.5 -244.5t-109.5 -213.5z" />
    <glyph glyph-name="asterisk" unicode="*" horiz-adv-x="438" 
d="M121 335l-53 39l-1 16l84 105l-129 36l-6 14l22 64l14 6l127 -46l-4 129l11 10h67l11 -10l-5 -129l127 46l15 -6l22 -64l-7 -14l-128 -36l84 -105l-2 -16l-53 -39l-16 2l-82 117l-81 -117z" />
    <glyph glyph-name="plus" unicode="+" horiz-adv-x="700" 
d="M616 349v-91h-220v-220h-92v220h-220v91h220v220h92v-220h220z" />
    <glyph glyph-name="comma" unicode="," horiz-adv-x="301" 
d="M114 -166l-89 34l98 283l12 5l115 -44z" />
    <glyph glyph-name="hyphen" unicode="-" horiz-adv-x="320" 
d="M46 173v95h228v-95h-228z" />
    <glyph glyph-name="period" unicode="." horiz-adv-x="289" 
d="M144 -11q-36 0 -59.5 24t-23.5 58t24 57.5t59 23.5q36 0 59.5 -23t23.5 -58q0 -34 -23.5 -58t-59.5 -24z" />
    <glyph glyph-name="slash" unicode="/" horiz-adv-x="415" 
d="M407 708l-279 -707h-120l280 707h119z" />
    <glyph glyph-name="zero" unicode="0" horiz-adv-x="653" 
d="M326 -19q-126 0 -198 99.5t-72 274.5q0 173 72 272.5t198 99.5t198.5 -99.5t72.5 -272.5q0 -175 -72.5 -274.5t-198.5 -99.5zM326 111q60 0 92.5 63t32.5 181q0 117 -32.5 179.5t-92.5 62.5q-59 0 -91.5 -62.5t-32.5 -179.5t32.5 -180.5t91.5 -63.5z" />
    <glyph glyph-name="one" unicode="1" horiz-adv-x="389" 
d="M164 0v443q0 54 9 105l-3 1q-21 -16 -63 -41l-78 -44l-12 5l11 140l236 114h42v-723h-142z" />
    <glyph glyph-name="two" unicode="2" horiz-adv-x="555" 
d="M9 0v20l208 229q80 83 116.5 143.5t36.5 112.5q0 43 -25 68.5t-69 25.5q-96 0 -119 -115l-17 -9l-121 18q40 234 269 234q102 0 165.5 -58t63.5 -150q0 -150 -153 -303l-44 -46q-30 -28 -62 -53l1 -2q61 8 110 8h142v-123h-502z" />
    <glyph glyph-name="three" unicode="3" horiz-adv-x="576" 
d="M295 -19q-118 0 -186.5 55.5t-80.5 160.5l125 20l18 -8q6 -51 37.5 -79t79.5 -28t76.5 29.5t28.5 78.5q0 108 -123 108h-24v97h19q118 0 118 103q0 41 -25.5 65t-69.5 24q-42 0 -70 -24.5t-37 -68.5l-17 -8l-120 21q20 95 87 147.5t171 52.5q101 0 162.5 -52t61.5 -137
q0 -60 -32.5 -105.5t-88.5 -63.5q62 -13 98 -61t36 -115q0 -94 -68.5 -153t-175.5 -59z" />
    <glyph glyph-name="four" unicode="4" horiz-adv-x="604" 
d="M361 0v141h-346v84l352 491h134v-453h81v-122h-81v-141h-140zM181 263h182v113q0 103 13 173h-2q-27 -56 -58 -99z" />
    <glyph glyph-name="five" unicode="5" horiz-adv-x="581" 
d="M288 -19q-113 0 -180.5 51.5t-80.5 148.5l127 24l17 -10q17 -93 116 -93q52 0 83.5 35t31.5 93q0 59 -35.5 93t-96.5 34q-96 0 -170 -53l-30 10l25 394h397v-120h-274l-10 -146q57 20 111 20q102 0 164.5 -62.5t62.5 -163.5q0 -115 -70.5 -185t-187.5 -70z" />
    <glyph glyph-name="six" unicode="6" horiz-adv-x="605" 
d="M301 -19q-119 0 -189.5 69t-70.5 185q0 67 33.5 136.5t117.5 178.5l150 196l106 -62l5 -17l-88 -112q-62 -80 -116 -124l2 -2q55 30 108 30q92 0 148.5 -62t56.5 -164q0 -115 -72 -183.5t-191 -68.5zM303 107q52 0 84 34t32 90t-31.5 89.5t-84.5 33.5t-84.5 -33.5
t-31.5 -91.5q0 -55 31.5 -88.5t84.5 -33.5z" />
    <glyph glyph-name="seven" unicode="7" horiz-adv-x="501" 
d="M321 582h-312v126h515v-20l-337 -701l-25 -7l-109 43z" />
    <glyph glyph-name="eight" unicode="8" horiz-adv-x="573" 
d="M287 -19q-122 0 -190 58t-68 154q0 66 36 113.5t104 69.5q-114 41 -114 164q0 82 62.5 134.5t169.5 52.5t169 -52.5t62 -134.5q0 -122 -114 -164q68 -22 104 -69.5t36 -113.5q0 -97 -67.5 -154.5t-189.5 -57.5zM286 429q43 0 67.5 25t24.5 69t-25 69.5t-67 25.5
q-43 0 -68 -25.5t-25 -69.5t24.5 -69t68.5 -25zM287 93q53 0 83 30t30 83t-30.5 84.5t-82.5 31.5q-53 0 -83.5 -31.5t-30.5 -84.5t30.5 -83t83.5 -30z" />
    <glyph glyph-name="nine" unicode="9" horiz-adv-x="607" 
d="M265 -38l-107 63l-4 17l87 112q69 85 117 123l-2 3q-54 -30 -108 -30q-91 0 -148 62.5t-57 165.5q0 114 72 182t194 68q119 0 188.5 -68.5t69.5 -184.5q0 -72 -36.5 -143.5t-115.5 -172.5zM306 355q52 0 82.5 34t30.5 90q0 55 -31.5 89t-83.5 34t-84.5 -34t-32.5 -89
q0 -57 32 -90.5t87 -33.5z" />
    <glyph glyph-name="colon" unicode=":" horiz-adv-x="335" 
d="M167 308q-35 0 -58.5 23.5t-23.5 56.5q0 34 23.5 57t58.5 23t59 -23t24 -57q0 -33 -23.5 -56.5t-59.5 -23.5zM167 -11q-35 0 -58.5 24t-23.5 57q0 34 23.5 57t58.5 23t59 -23t24 -57t-24 -57.5t-59 -23.5z" />
    <glyph glyph-name="semicolon" unicode=";" horiz-adv-x="370" 
d="M202 308q-36 0 -59 23t-23 57t23.5 57t58.5 23t58.5 -23t23.5 -57t-23 -57t-59 -23zM129 -166l-89 34l99 283l11 5l116 -44z" />
    <glyph glyph-name="less" unicode="&#x3c;" horiz-adv-x="700" 
d="M610 571v-99l-387 -168l387 -168v-99l-520 227v80z" />
    <glyph glyph-name="equal" unicode="=" horiz-adv-x="700" 
d="M77 355v92h546v-92h-546zM77 161v91h546v-91h-546z" />
    <glyph glyph-name="greater" unicode="&#x3e;" horiz-adv-x="700" 
d="M90 571l520 -227v-80l-520 -227v99l387 168l-387 168v99z" />
    <glyph glyph-name="question" unicode="?" horiz-adv-x="551" 
d="M200 222l-1 40q0 48 20.5 86t67.5 75q41 33 55 56.5t14 54.5q0 35 -23 57t-61 22q-85 0 -101 -91l-16 -7l-115 16q13 92 77 144t163 52q96 0 155 -50.5t59 -131.5q0 -61 -24 -103t-83 -85q-36 -28 -47.5 -47.5t-11.5 -52.5l-1 -35h-127zM268 -11q-36 0 -59.5 23.5
t-23.5 57.5q0 35 24 58.5t59 23.5q36 0 60 -23.5t24 -58.5q0 -34 -24 -57.5t-60 -23.5z" />
    <glyph glyph-name="at" unicode="@" horiz-adv-x="896" 
d="M460 -174q-187 0 -300.5 110.5t-112.5 292.5q0 175 119.5 291.5t298.5 116.5q170 0 276 -96.5t106 -251.5q0 -114 -61 -185t-159 -71q-41 0 -68.5 19.5t-31.5 52.5q-17 -32 -51.5 -52t-72.5 -20q-67 0 -108 48t-41 125q0 97 56 162t140 65q35 0 63 -16.5t40 -44.5l8 39
h91l-30 -157q-15 -82 -15 -94q0 -43 45 -43q41 0 70 47t29 115q0 128 -76 200t-211 72q-141 0 -230 -90t-89 -233q0 -147 88 -231.5t238 -83.5q107 0 197 43l8 -2l33 -74q-95 -54 -249 -54zM422 117q44 0 74 41.5t30 102.5q0 89 -71 89q-41 0 -70 -43t-29 -103q0 -39 18 -63
t48 -24z" />
    <glyph glyph-name="A" unicode="A" horiz-adv-x="710" 
d="M554 0l-55 150h-289l-54 -150h-161l286 708h151l283 -708h-161zM250 259h209l-61 167q-27 75 -42 142h-4q-15 -67 -42 -142z" />
    <glyph glyph-name="B" unicode="B" horiz-adv-x="614" 
d="M77 0v708h212q252 0 252 -186q0 -52 -30 -92t-81 -55v-3q69 -15 108 -59.5t39 -111.5q0 -201 -281 -201h-219zM217 415h72q119 0 119 93q0 89 -126 89h-65v-182zM217 113h72q79 0 114.5 24.5t35.5 76.5q0 101 -142 101h-80v-202z" />
    <glyph glyph-name="C" unicode="C" horiz-adv-x="781" 
d="M420 -19q-161 0 -267 105t-106 268t106.5 268t265.5 105q221 0 321 -183l-104 -66l-18 4q-67 113 -194 113q-97 0 -161 -68t-64 -173q0 -104 65 -172.5t162 -68.5q129 0 196 112l17 4l103 -66q-105 -182 -322 -182z" />
    <glyph glyph-name="D" unicode="D" horiz-adv-x="746" 
d="M77 0v708h218q195 0 300 -92t105 -259q0 -168 -107.5 -262.5t-298.5 -94.5h-217zM217 126h67q138 0 204.5 56.5t66.5 175.5q0 115 -65.5 169.5t-203.5 54.5h-69v-456z" />
    <glyph glyph-name="E" unicode="E" horiz-adv-x="577" 
d="M77 708h429l14 -121h-303v-168h275v-117h-275v-181h303l-14 -121h-429v708z" />
    <glyph glyph-name="F" unicode="F" horiz-adv-x="548" 
d="M77 708h416l13 -121h-289v-175h264v-117h-264v-295h-140v708z" />
    <glyph glyph-name="G" unicode="G" horiz-adv-x="823" 
d="M399 -19q-153 0 -252.5 104t-99.5 266q0 165 107 270.5t269 105.5q224 0 326 -178l-105 -67l-17 4q-36 57 -83.5 83t-115.5 26q-100 0 -164.5 -68.5t-64.5 -175.5q0 -105 62.5 -173.5t160.5 -68.5q84 0 141.5 41t64.5 117v4h-173v109h302v-380h-127v33q0 34 12 70l-2 1
q-78 -123 -241 -123z" />
    <glyph glyph-name="H" unicode="H" horiz-adv-x="744" 
d="M77 0v708h140v-288h310v288h140v-708h-140v295h-310v-295h-140z" />
    <glyph glyph-name="I" unicode="I" horiz-adv-x="295" 
d="M77 708h140v-708h-140v708z" />
    <glyph glyph-name="J" unicode="J" horiz-adv-x="516" 
d="M141 177q18 -69 81 -69q82 0 82 125v475h140v-478q0 -120 -55.5 -184.5t-157.5 -64.5q-82 0 -140.5 42.5t-76.5 113.5l110 45z" />
    <glyph glyph-name="K" unicode="K" horiz-adv-x="670" 
d="M514 0l-198 298l-99 -110v-188h-140v708h140v-123q0 -107 -5 -227h2q65 84 131 160l158 190h169l-262 -302l273 -406h-169z" />
    <glyph glyph-name="L" unicode="L" horiz-adv-x="547" 
d="M77 708h140v-581h316l-16 -127h-440v708z" />
    <glyph glyph-name="M" unicode="M" horiz-adv-x="915" 
d="M457 297h2l202 411h176v-708h-137l2 530h-2l-234 -459h-18l-233 459h-2l2 -530h-138v708h177z" />
    <glyph glyph-name="N" unicode="N" horiz-adv-x="785" 
d="M77 0v708h128l246 -300q85 -108 122 -158h3q-8 72 -8 178v280h140v-717h-99l-273 327q-60 73 -125 158h-2q7 -72 7 -178v-298h-139z" />
    <glyph glyph-name="O" unicode="O" horiz-adv-x="860" 
d="M430 -19q-165 0 -274 106.5t-109 266.5q0 161 108 267t275 106t275 -106t108 -267q0 -160 -109 -266.5t-274 -106.5zM430 112q101 0 168 69.5t67 172.5q0 105 -66.5 174t-168.5 69t-168.5 -69t-66.5 -174q0 -103 67 -172.5t168 -69.5z" />
    <glyph glyph-name="P" unicode="P" horiz-adv-x="596" 
d="M77 0v708h229q128 0 193.5 -56.5t65.5 -165.5q0 -103 -64.5 -160.5t-181.5 -57.5h-100v-268h-142zM219 382h74q69 0 101.5 25.5t32.5 78.5q0 56 -32.5 81t-101.5 25h-74v-210z" />
    <glyph glyph-name="Q" unicode="Q" horiz-adv-x="864" 
d="M585 31q82 -21 190 -38l11 -13l-37 -106q-190 42 -363 111q-148 16 -243.5 119.5t-95.5 249.5q0 161 109.5 267t276.5 106q165 0 274 -105.5t109 -260.5q0 -112 -61 -199t-169 -126zM195 354q0 -103 67.5 -172.5t169.5 -69.5t169.5 69.5t67.5 172.5q0 105 -67 174
t-170 69q-102 0 -169.5 -69t-67.5 -174z" />
    <glyph glyph-name="R" unicode="R" horiz-adv-x="638" 
d="M438 302l204 -285l-7 -17h-146l-191 281h-79v-281h-142v707h237q256 0 256 -217q0 -141 -132 -188zM219 592v-201h80q69 0 101 23.5t32 75.5q0 54 -32 78t-101 24h-80z" />
    <glyph glyph-name="S" unicode="S" horiz-adv-x="583" 
d="M292 -19q-174 0 -261 147l97 68l18 -5q54 -90 145 -90q47 0 76.5 24.5t29.5 61.5t-30.5 64.5t-119.5 65.5q-103 43 -146 93.5t-43 124.5q0 82 65.5 137t170.5 55q156 0 233 -120l-96 -70l-18 4q-45 67 -119 67q-43 0 -67 -20t-24 -52q0 -31 27.5 -53.5t118.5 -62.5
q108 -48 150.5 -99t42.5 -124q0 -92 -71 -154t-179 -62z" />
    <glyph glyph-name="T" unicode="T" horiz-adv-x="618" 
d="M238 581h-228v127h598v-127h-228v-581h-142v581z" />
    <glyph glyph-name="U" unicode="U" horiz-adv-x="737" 
d="M369 -19q-297 0 -297 310v417h140v-405q0 -101 37.5 -146t119.5 -45t119 45t37 147v404h140v-417q0 -150 -75 -230t-221 -80z" />
    <glyph glyph-name="V" unicode="V" horiz-adv-x="706" 
d="M296 -9l-287 717h161l143 -393q30 -89 41 -134h5q13 57 41 132l141 395h162l-287 -717h-120z" />
    <glyph glyph-name="W" unicode="W" horiz-adv-x="982" 
d="M229 -9l-218 717h154l92 -354q23 -86 37 -154h3q10 36 45 155l109 349h80l109 -349q35 -119 45 -155h3q14 68 37 154l92 354h154l-218 -717h-116l-104 329q-11 34 -40 130h-4q-19 -69 -39 -129l-105 -330h-116z" />
    <glyph glyph-name="X" unicode="X" horiz-adv-x="669" 
d="M-2 0l245 373l-231 335h174l148 -237l146 237h167l-229 -338l253 -370h-173l-169 267l-163 -267h-168z" />
    <glyph glyph-name="Y" unicode="Y" horiz-adv-x="636" 
d="M248 0v285l-250 423h165l84 -167l70 -141h3l69 141l84 167h165l-250 -423v-285h-140z" />
    <glyph glyph-name="Z" unicode="Z" horiz-adv-x="675" 
d="M419 582h-378v126h618v-19l-404 -560h386v-129h-626v19z" />
    <glyph glyph-name="bracketleft" unicode="[" horiz-adv-x="327" 
d="M54 -161v898h203v-90h-94v-718h94v-90h-203z" />
    <glyph glyph-name="backslash" unicode="\" horiz-adv-x="415" 
d="M8 708h119l280 -707h-120z" />
    <glyph glyph-name="bracketright" unicode="]" horiz-adv-x="325" 
d="M271 -161h-203v90h94v718h-94v90h203v-898z" />
    <glyph glyph-name="asciicircum" unicode="^" horiz-adv-x="669" 
d="M56 272l226 436h105l226 -436h-139l-140 305l-139 -305h-139z" />
    <glyph glyph-name="underscore" unicode="_" horiz-adv-x="500" 
d="M500 -148h-500v75h500v-75z" />
    <glyph glyph-name="grave" unicode="`" horiz-adv-x="303" 
d="M273 534h-100l-143 176l5 8h131z" />
    <glyph glyph-name="a" unicode="a" horiz-adv-x="513" 
d="M482 81l8 -5v-80q-41 -12 -79 -12q-79 0 -93 61q-63 -64 -151 -64q-62 0 -97 31t-35 84q0 64 62.5 104.5t208.5 61.5v24q0 74 -64 74t-113 -66l-9 -1l-78 54q34 55 92 88t128 33q86 0 131 -43t45 -126v-199q0 -15 4.5 -20.5t15.5 -5.5q9 0 24 7zM161 111q0 -48 53 -48
q48 0 92 41v94q-79 -15 -112 -35t-33 -52z" />
    <glyph glyph-name="b" unicode="b" horiz-adv-x="596" 
d="M354 -19q-48 0 -90.5 24.5t-67.5 67.5v-73h-129v733h133v-213q0 -102 -2 -145q59 93 164 93q87 0 141.5 -65t54.5 -175t-57.5 -178.5t-146.5 -68.5zM314 94q51 0 81 35.5t30 96.5t-29 95.5t-81 34.5t-85 -37.5t-33 -94.5q0 -58 32.5 -94t84.5 -36z" />
    <glyph glyph-name="c" unicode="c" horiz-adv-x="535" 
d="M277 -19q-109 0 -174.5 67.5t-65.5 175.5q0 106 67.5 175t174.5 69q149 0 219 -123l-99 -58l-9 2q-43 69 -108 69q-49 0 -81 -36t-32 -97t32 -97t82 -36q69 0 109 69l9 2l98 -57q-71 -125 -222 -125z" />
    <glyph glyph-name="d" unicode="d" horiz-adv-x="596" 
d="M235 -19q-89 0 -143.5 66t-54.5 178q0 108 58 175.5t144 67.5q103 0 158 -93q-2 86 -2 145v213h133v-733h-128v73q-25 -43 -69.5 -67.5t-95.5 -24.5zM279 94q54 0 87 36t33 94q0 57 -33 94.5t-84 37.5t-81.5 -36t-30.5 -96q0 -61 29.5 -95.5t79.5 -34.5z" />
    <glyph glyph-name="e" unicode="e" horiz-adv-x="556" 
d="M515 203h-341v-6q0 -53 32 -84.5t81 -31.5q63 0 104 63l8 3l105 -41q-66 -125 -221 -125q-111 0 -178 68t-67 175t67.5 175.5t174.5 68.5q105 0 170.5 -66.5t65.5 -178.5q0 -10 -1 -20zM282 372q-43 0 -71.5 -26t-34.5 -73h207q-3 46 -30 72.5t-71 26.5z" />
    <glyph glyph-name="f" unicode="f" horiz-adv-x="331" 
d="M325 621q-21 10 -42 10q-28 0 -40.5 -19.5t-12.5 -69.5v-93h98v-103h-98v-346h-133v346h-81v103h81v89q0 111 37.5 159t120.5 48q37 0 85 -13l-6 -107z" />
    <glyph glyph-name="g" unicode="g" horiz-adv-x="510" 
d="M247 -230q-116 0 -179.5 38t-63.5 107q0 75 98 107q-35 22 -35 59q0 56 76 75q-47 17 -75 56.5t-28 90.5q0 72 58 119t147 46q52 0 96 -19h146l3 -92l-9 -8l-50 6q17 -26 17 -57q0 -65 -45.5 -107t-125.5 -49q-95 -9 -95 -35q0 -11 21 -18t79 -15q108 -14 156.5 -50
t48.5 -101q0 -73 -62.5 -113t-177.5 -40zM244 228q41 0 65 20t24 54q0 35 -24.5 55.5t-64.5 20.5t-64.5 -20.5t-24.5 -55.5q0 -34 24 -54t65 -20zM249 -139q117 0 117 58q0 48 -112 59q-28 4 -48 7q-79 -18 -79 -62q0 -29 32.5 -45.5t89.5 -16.5z" />
    <glyph glyph-name="h" unicode="h" horiz-adv-x="585" 
d="M67 733h133v-214q0 -98 -2 -144q58 93 157 93q77 0 120 -46t43 -132v-290h-133v246q0 58 -19.5 83t-62.5 25q-46 0 -74.5 -37t-28.5 -97v-220h-133v733z" />
    <glyph glyph-name="i" unicode="i" horiz-adv-x="267" 
d="M134 564q-36 0 -59 21.5t-23 55.5q0 33 23 54.5t59 21.5t59 -22t23 -55t-23.5 -54.5t-58.5 -21.5zM67 0v449h133v-449h-133z" />
    <glyph glyph-name="j" unicode="j" horiz-adv-x="268" 
d="M135 564q-36 0 -59.5 21.5t-23.5 55.5q0 33 23.5 54.5t59.5 21.5t59 -22t23 -55t-23.5 -54.5t-58.5 -21.5zM31 -230q-42 0 -78 13l13 104l8 4q19 -7 37 -7q31 0 44 20t13 71v474h133v-483q0 -101 -42 -148.5t-128 -47.5z" />
    <glyph glyph-name="k" unicode="k" horiz-adv-x="545" 
d="M391 0l-137 189l-54 -51v-138h-133v733h133v-201q0 -148 -6 -258q31 33 89 93l78 82h164l-182 -175l202 -274h-154z" />
    <glyph glyph-name="l" unicode="l" horiz-adv-x="267" 
d="M67 0v733h133v-733h-133z" />
    <glyph glyph-name="m" unicode="m" horiz-adv-x="872" 
d="M650 468q72 0 113.5 -46.5t41.5 -131.5v-290h-133v245q0 109 -75 109q-41 0 -67.5 -38.5t-26.5 -99.5v-216h-133v245q0 109 -76 109q-41 0 -67.5 -38.5t-26.5 -99.5v-216h-133v449h131v-74q56 93 149 93q110 0 141 -106q57 106 162 106z" />
    <glyph glyph-name="n" unicode="n" horiz-adv-x="585" 
d="M67 449h131v-74q58 93 157 93q77 0 120 -46t43 -132v-290h-133v246q0 58 -19.5 83t-62.5 25q-46 0 -74.5 -37t-28.5 -97v-220h-133v449z" />
    <glyph glyph-name="o" unicode="o" horiz-adv-x="583" 
d="M292 -19q-109 0 -182 70t-73 174t72.5 173.5t182.5 69.5q109 0 181.5 -69.5t72.5 -173.5t-72.5 -174t-181.5 -70zM292 95q51 0 86 37.5t35 92.5q0 56 -34.5 93t-86.5 37q-53 0 -87.5 -37t-34.5 -93q0 -55 35 -92.5t87 -37.5z" />
    <glyph glyph-name="p" unicode="p" horiz-adv-x="596" 
d="M67 -218v667h131v-74q59 93 164 93q87 0 141.5 -65t54.5 -175t-57.5 -178.5t-146.5 -68.5q-47 0 -89 23.5t-67 65.5q2 -84 2 -143v-145h-133zM314 94q51 0 81 35.5t30 96.5t-29 95.5t-81 34.5t-85 -37.5t-33 -94.5q0 -58 32.5 -94t84.5 -36z" />
    <glyph glyph-name="q" unicode="q" horiz-adv-x="596" 
d="M395 -218v145q0 14 3 143q-26 -41 -69.5 -65t-93.5 -24q-89 0 -143.5 66.5t-54.5 177.5q0 108 58 175.5t145 67.5q102 0 158 -93v74h130v-667h-133zM279 94q54 0 87 36t33 94q0 57 -33 94.5t-84 37.5t-81.5 -36t-30.5 -96q0 -61 29.5 -95.5t79.5 -34.5z" />
    <glyph glyph-name="r" unicode="r" horiz-adv-x="446" 
d="M67 0v449h124v-81q54 100 141 100q81 0 108 -92l-109 -61l-9 3q-13 32 -43 32q-32 0 -55.5 -39t-23.5 -106v-205h-133z" />
    <glyph glyph-name="s" unicode="s" horiz-adv-x="435" 
d="M214 -19q-135 0 -192 104l78 52l7 -1q38 -62 100 -62q30 0 47.5 12.5t17.5 32.5q0 18 -19 33.5t-71 33.5q-79 29 -110 63t-31 84q0 59 47.5 97t127.5 38q62 0 110 -27t68 -72l-74 -48l-9 1q-26 53 -86 53q-26 0 -41 -11.5t-15 -28.5q0 -18 17 -31.5t74 -35.5
q77 -30 108 -64t31 -85q0 -61 -50.5 -99.5t-134.5 -38.5z" />
    <glyph glyph-name="t" unicode="t" horiz-adv-x="376" 
d="M348 102l3 -104q-43 -17 -98 -17q-78 0 -118.5 38.5t-40.5 113.5v213h-81v103h82v119l104 61h28v-180h123v-103h-123v-179q0 -41 14 -56.5t49 -15.5q22 0 49 12z" />
    <glyph glyph-name="u" unicode="u" horiz-adv-x="576" 
d="M508 0h-130v73q-57 -92 -155 -92q-73 0 -114.5 47t-41.5 135v286h133v-250q0 -104 77 -104q43 0 70.5 36.5t27.5 98.5v219h133v-449z" />
    <glyph glyph-name="v" unicode="v" horiz-adv-x="500" 
d="M207 -10l-202 459h144l101 -291h2l101 291h142l-201 -459h-87z" />
    <glyph glyph-name="w" unicode="w" horiz-adv-x="739" 
d="M174 -10l-160 459h139l81 -286h2l103 283h63l101 -283h2l82 286h138l-160 -459h-90l-104 272h-2l-105 -272h-90z" />
    <glyph glyph-name="x" unicode="x" horiz-adv-x="511" 
d="M4 0l173 233l-167 216h156l57 -85q7 -11 31 -54h2q27 46 32 54l57 85h155l-166 -216l172 -233h-158l-63 95q-12 20 -29 54h-2q-7 -14 -31 -54l-62 -95h-157z" />
    <glyph glyph-name="y" unicode="y" horiz-adv-x="524" 
d="M75 -218l121 253l-185 414h155l97 -296h2l106 296h149l-301 -667h-144z" />
    <glyph glyph-name="z" unicode="z" horiz-adv-x="486" 
d="M256 344h-222v105h427v-10l-233 -332h230v-107h-434v10z" />
    <glyph glyph-name="braceleft" unicode="{" horiz-adv-x="347" 
d="M5 334h7q70 0 70 95v166q0 66 34 104t96 38h76v-90h-44q-54 0 -54 -75v-156q0 -54 -25 -88t-63 -39v-2q38 -5 63 -39t25 -88v-156q0 -75 54 -75h44v-90h-77q-61 0 -95 38t-34 104v166q0 95 -70 95h-7v92z" />
    <glyph glyph-name="bar" unicode="|" horiz-adv-x="246" 
d="M67 -258v1030h112v-1030h-112z" />
    <glyph glyph-name="braceright" unicode="}" horiz-adv-x="346" 
d="M341 334v-92h-7q-70 0 -70 -95v-166q0 -66 -34 -104t-95 -38h-77v90h44q54 0 54 75v156q0 54 25 88t63 39v2q-38 5 -63 39t-25 88v156q0 75 -54 75h-44v90h76q62 0 96 -38t34 -104v-166q0 -95 70 -95h7z" />
    <glyph glyph-name="asciitilde" unicode="~" horiz-adv-x="700" 
d="M144 224l-64 42q69 119 161 119q45 0 82 -17.5t68.5 -34.5t62.5 -17q54 0 93 66l9 1l64 -42q-69 -119 -161 -119q-53 0 -115 34.5t-99 34.5q-54 0 -92 -66z" />
    <glyph glyph-name="uni00A0" unicode="&#xa0;" horiz-adv-x="285" 
 />
    <glyph glyph-name="exclamdown" unicode="&#xa1;" horiz-adv-x="341" 
d="M170 469q36 0 60 -23.5t24 -57.5q0 -35 -24 -58.5t-60 -23.5t-59.5 23.5t-23.5 58.5q0 34 23.5 57.5t59.5 23.5zM107 236h127l7 -486h-141z" />
    <glyph glyph-name="cent" unicode="&#xa2;" horiz-adv-x="700" 
d="M578 106q-57 -102 -173 -121v-73h-91v72q-91 13 -144.5 78t-53.5 162q0 95 54 161t144 80v73h91v-74q113 -18 172 -119l-99 -58l-9 2q-29 46 -64 61v-251q38 13 66 62l9 2zM249 225q0 -92 65 -123v246q-65 -32 -65 -123z" />
    <glyph glyph-name="sterling" unicode="&#xa3;" horiz-adv-x="700" 
d="M530 566q-37 39 -97 39q-46 0 -70 -35.5t-24 -98.5v-58h148v-102h-148v-64q0 -79 -31 -120h308l-16 -127h-499v127h72q27 36 27 100v84h-95v102h95v68q0 110 58.5 178t165.5 68q125 0 193 -68l-78 -95z" />
    <glyph glyph-name="currency" unicode="&#xa4;" horiz-adv-x="700" 
d="M109 -6l-68 69l93 94q-45 65 -45 152q0 83 42 147l-90 90l69 69l91 -91q67 45 149 45q84 0 149 -45l91 91l68 -69l-89 -89q44 -64 44 -148q0 -87 -47 -153l92 -93l-68 -69l-94 95q-64 -42 -146 -42q-78 0 -146 43zM351 163q59 0 97.5 41.5t38.5 104.5q0 62 -39 103
t-97 41q-60 0 -98 -40.5t-38 -103.5t38 -104.5t98 -41.5z" />
    <glyph glyph-name="yen" unicode="&#xa5;" horiz-adv-x="700" 
d="M670 708l-207 -297h123v-93h-166v-78h166v-93h-166v-147h-140v147h-167v93h167v78h-167v93h123l-206 297h164l154 -272h4l153 272h165z" />
    <glyph glyph-name="brokenbar" unicode="&#xa6;" horiz-adv-x="246" 
d="M67 330v443h112v-443h-112zM67 -258v444h112v-444h-112z" />
    <glyph glyph-name="section" unicode="&#xa7;" horiz-adv-x="595" 
d="M454 159q57 -49 57 -118q0 -82 -62 -131.5t-163 -49.5q-79 0 -142 32.5t-93 88.5l98 66l8 -3q42 -77 133 -77q37 0 60 18t23 48q0 25 -16.5 42t-55.5 33l-88 40q-76 27 -108.5 64t-32.5 92q0 43 24 76.5t65 51.5q-60 50 -60 122q0 76 59.5 124.5t152.5 48.5
q74 0 129 -28.5t79 -79.5l-96 -57l-9 1q-30 56 -103 56q-36 0 -55.5 -16t-19.5 -43q0 -25 18 -43t65 -38l66 -29q75 -28 109 -67.5t34 -96.5q0 -42 -20.5 -76t-55.5 -51zM278 241l83 -35q20 6 32.5 24t12.5 41q0 29 -18.5 48t-65.5 38l-73 29q-23 -5 -38.5 -23.5
t-15.5 -42.5q0 -26 18 -42t65 -37z" />
    <glyph glyph-name="dieresis" unicode="&#xa8;" horiz-adv-x="390" 
d="M30 607q0 28 20.5 48.5t48.5 20.5t48 -20t20 -49t-19.5 -49t-48.5 -20t-49 20t-20 49zM223 607q0 28 20 48.5t48 20.5q29 0 49 -20t20 -49t-19.5 -49t-49.5 -20q-29 0 -48.5 20t-19.5 49z" />
    <glyph glyph-name="copyright" unicode="&#xa9;" horiz-adv-x="926" 
d="M463 -19q-158 0 -266 107.5t-108 264.5q0 158 108 266t266 108t266 -108t108 -266q0 -157 -108 -264.5t-266 -107.5zM462 47q128 0 216.5 89t88.5 217q0 129 -88 218.5t-216 89.5t-216 -89.5t-88 -218.5t87.5 -217.5t215.5 -88.5zM465 139q-90 0 -149.5 60t-59.5 155
t59.5 155t149.5 60q59 0 108 -26.5t77 -76.5l-68 -43l-10 2q-39 57 -104 57q-50 0 -82 -35t-32 -93q0 -57 32 -92t81 -35q65 0 105 57l10 2l68 -45q-66 -102 -185 -102z" />
    <glyph glyph-name="ordfeminine" unicode="&#xaa;" horiz-adv-x="339" 
d="M304 499l5 -3v-51q-24 -8 -51 -8q-48 0 -60 34q-36 -36 -90 -36q-37 0 -57.5 18t-20.5 49q0 38 36 61t123 36v12q0 39 -32 39q-36 0 -65 -35l-5 -1l-52 35q20 34 56 54t79 20q110 0 110 -105v-107q0 -16 10 -16q5 0 14 4zM115 513q0 -26 28 -26q23 0 46 21v51
q-74 -13 -74 -46z" />
    <glyph glyph-name="guillemotleft" unicode="&#xab;" horiz-adv-x="533" 
d="M190 27l-145 206l145 206l71 -48l2 -8l-101 -150l101 -149l-2 -9zM398 27l-145 206l145 206l71 -48l2 -8l-101 -150l101 -149l-2 -9z" />
    <glyph glyph-name="logicalnot" unicode="&#xac;" horiz-adv-x="700" 
d="M83 349h534v-253h-91v162h-443v91z" />
    <glyph glyph-name="uni00AD" unicode="&#xad;" horiz-adv-x="320" 
d="M46 173v95h228v-95h-228z" />
    <glyph glyph-name="registered" unicode="&#xae;" horiz-adv-x="606" 
d="M303 275q-95 0 -161.5 65.5t-66.5 159.5t66.5 160.5t161.5 66.5t161.5 -66.5t66.5 -160.5t-66.5 -159.5t-161.5 -65.5zM303 312q78 0 133 55t55 133t-54.5 133t-133.5 55t-133.5 -55t-54.5 -133t55 -133t133 -55zM395 545q0 -48 -43 -65l67 -96l-3 -5h-60l-61 92h-20v-92
h-57v243h86q91 0 91 -77zM275 516h25q40 0 40 30q0 31 -40 31h-25v-61z" />
    <glyph glyph-name="macron" unicode="&#xaf;" horiz-adv-x="362" 
d="M30 569v84h302v-84h-302z" />
    <glyph glyph-name="degree" unicode="&#xb0;" horiz-adv-x="412" 
d="M206 406q-69 0 -114.5 45.5t-45.5 115.5q0 69 45.5 114.5t114.5 45.5t114.5 -45.5t45.5 -114.5q0 -70 -45.5 -115.5t-114.5 -45.5zM206 468q41 0 68 28.5t27 70.5t-27 70t-68 28q-40 0 -67.5 -28.5t-27.5 -69.5q0 -42 27.5 -70.5t67.5 -28.5z" />
    <glyph glyph-name="plusminus" unicode="&#xb1;" horiz-adv-x="700" 
d="M616 437v-92h-220v-140h-92v140h-220v92h220v140h92v-140h220zM83 52v91h534v-91h-534z" />
    <glyph glyph-name="uni00B2" unicode="&#xb2;" 
d="M28 460v13l135 150q75 82 75 129q0 48 -48 48t-60 -63l-11 -5l-84 13q25 143 165 143q62 0 100.5 -35t38.5 -91q0 -90 -84 -171l-21 -21q-13 -13 -39 -31v-2q42 7 69 7h72v-84h-308z" />
    <glyph glyph-name="uni00B3" unicode="&#xb3;" 
d="M197 444q-149 0 -164 130l88 14l11 -5q3 -27 19 -42t41 -15t39.5 15.5t14.5 41.5q0 55 -64 55h-14v64h10q63 0 63 53q0 21 -12.5 33.5t-34.5 12.5q-47 0 -58 -48l-10 -5l-83 15q13 58 54.5 89t105.5 31q61 0 98 -31t37 -83q0 -34 -19.5 -60t-51.5 -37q36 -8 57 -36
t21 -67q0 -55 -41.5 -90t-106.5 -35z" />
    <glyph glyph-name="acute" unicode="&#xb4;" horiz-adv-x="303" 
d="M30 534l107 184h131l5 -8l-143 -176h-100z" />
    <glyph glyph-name="uni00B5" unicode="&#xb5;" horiz-adv-x="583" 
d="M67 -218v667h133v-250q0 -104 77 -104q43 0 70.5 36.5t27.5 98.5v219h133v-349q0 -15 4 -20.5t15 -5.5q8 0 25 7l8 -5v-80q-43 -12 -79 -12q-87 0 -93 71l-1 14q-43 -88 -122 -88q-38 0 -65 21v-220h-133z" />
    <glyph glyph-name="paragraph" unicode="&#xb6;" horiz-adv-x="643" 
d="M253 -218v532q-94 2 -152.5 54t-58.5 135q0 99 63 152t180 53h281v-926h-108v832h-97v-832h-108z" />
    <glyph glyph-name="periodcentered" unicode="&#xb7;" horiz-adv-x="296" 
d="M148 204q-36 0 -59.5 24t-23.5 58t24 57t59 23t59 -23t24 -57t-23.5 -58t-59.5 -24z" />
    <glyph glyph-name="cedilla" unicode="&#xb8;" horiz-adv-x="305" 
d="M139 -234q-63 0 -109 23l21 53l10 3q38 -19 75 -19q22 0 35.5 9t13.5 25q0 30 -48 30q-25 0 -42 -7l-25 23l63 94h71l-45 -66q12 3 28 3q38 0 63 -21t25 -55q0 -44 -36.5 -69.5t-99.5 -25.5z" />
    <glyph glyph-name="uni00B9" unicode="&#xb9;" 
d="M163 460v239q0 34 8 69l-3 1q-22 -16 -39 -25l-44 -25l-8 2l7 96l146 69h30v-426h-97z" />
    <glyph glyph-name="ordmasculine" unicode="&#xba;" horiz-adv-x="365" 
d="M182 435q-65 0 -108.5 41.5t-43.5 102.5q0 62 43.5 103t108.5 41q66 0 109.5 -41t43.5 -103q0 -61 -44 -102.5t-109 -41.5zM182 512q26 0 44 19t18 48t-17 48t-45 19q-27 0 -44.5 -19t-17.5 -48t18 -48t44 -19z" />
    <glyph glyph-name="guillemotright" unicode="&#xbb;" horiz-adv-x="533" 
d="M135 27l-71 48l-2 9l101 149l-101 150l2 8l71 48l145 -206zM343 27l-71 48l-2 9l101 149l-101 150l2 8l71 48l145 -206z" />
    <glyph glyph-name="onequarter" unicode="&#xbc;" horiz-adv-x="914" 
d="M705 755l-414 -791h-120l415 791h119zM153 299v239q0 34 8 69l-3 1q-22 -16 -39 -25l-44 -25l-8 2l7 96l146 69h30v-426h-97zM692 0v77h-201v62l196 278h101v-257h47v-83h-47v-77h-96zM598 160h96v57q0 59 8 99h-2q-16 -35 -35 -62z" />
    <glyph glyph-name="onehalf" unicode="&#xbd;" horiz-adv-x="914" 
d="M684 755l-414 -791h-120l415 791h119zM133 299v239q0 34 8 69l-3 1q-22 -16 -39 -25l-44 -25l-8 2l7 96l146 69h30v-426h-97zM532 0v13l135 150q75 82 75 129q0 48 -48 48t-60 -63l-11 -5l-84 13q25 143 165 143q62 0 100.5 -35t38.5 -91q0 -90 -84 -171l-21 -21
q-13 -13 -39 -31v-2q42 7 69 7h72v-84h-308z" />
    <glyph glyph-name="threequarters" unicode="&#xbe;" horiz-adv-x="914" 
d="M740 755l-414 -791h-120l415 791h119zM198 282q-149 0 -164 130l88 14l11 -5q3 -27 19 -42t41 -15t39.5 15.5t14.5 41.5q0 55 -64 55h-14v64h10q63 0 63 53q0 21 -12.5 33.5t-34.5 12.5q-47 0 -58 -48l-10 -5l-83 15q13 58 54.5 89t105.5 31q61 0 98 -31t37 -83
q0 -34 -19.5 -60t-51.5 -37q36 -8 57 -36t21 -67q0 -55 -41.5 -90t-106.5 -35zM727 0v77h-201v62l196 278h101v-257h47v-83h-47v-77h-96zM633 160h96v57q0 59 8 99h-2q-16 -35 -35 -62z" />
    <glyph glyph-name="questiondown" unicode="&#xbf;" horiz-adv-x="551" 
d="M283 469q36 0 59.5 -23.5t23.5 -57.5q0 -35 -24 -58.5t-59 -23.5q-36 0 -60 23.5t-24 58.5q0 34 24 57.5t60 23.5zM351 236l1 -40q0 -48 -20.5 -86t-67.5 -75q-41 -33 -55 -56.5t-14 -54.5q0 -35 23 -57t61 -22q85 0 101 91l16 7l115 -16q-13 -92 -77 -144t-163 -52
q-96 0 -155 50.5t-59 131.5q0 61 24 103t83 85q36 28 47.5 47.5t11.5 52.5l1 35h127z" />
    <glyph glyph-name="Agrave" unicode="&#xc0;" horiz-adv-x="710" 
d="M459 764h-100l-126 126l5 8h124zM554 0l-55 150h-289l-54 -150h-161l286 708h151l283 -708h-161zM250 259h209l-61 167q-27 75 -42 142h-4q-15 -67 -42 -142z" />
    <glyph glyph-name="Aacute" unicode="&#xc1;" horiz-adv-x="710" 
d="M477 890l-124 -126h-100l96 134h123zM554 0l-55 150h-289l-54 -150h-161l286 708h151l283 -708h-161zM250 259h209l-61 167q-27 75 -42 142h-4q-15 -67 -42 -142z" />
    <glyph glyph-name="Acircumflex" unicode="&#xc2;" horiz-adv-x="710" 
d="M278 764h-88l-6 9l112 125h118l113 -125l-7 -9h-88l-77 83zM554 0l-55 150h-289l-54 -150h-161l286 708h151l283 -708h-161zM250 259h209l-61 167q-27 75 -42 142h-4q-15 -67 -42 -142z" />
    <glyph glyph-name="Atilde" unicode="&#xc3;" horiz-adv-x="710" 
d="M252 775l-7 -6h-65q5 56 33.5 91t69.5 35q27 0 73.5 -22.5t65.5 -22.5q28 0 36 39l8 6h64q-5 -56 -33.5 -91t-69.5 -35q-29 0 -74.5 22.5t-64.5 22.5q-26 0 -36 -39zM554 0l-55 150h-289l-54 -150h-161l286 708h151l283 -708h-161zM250 259h209l-61 167q-27 75 -42 142
h-4q-15 -67 -42 -142z" />
    <glyph glyph-name="Adieresis" unicode="&#xc4;" horiz-adv-x="710" 
d="M252 775q-29 0 -49 19.5t-20 49.5q0 28 20.5 48t48.5 20t48 -20t20 -48q0 -30 -19.5 -49.5t-48.5 -19.5zM459 775q-29 0 -49 19.5t-20 49.5q0 28 20.5 48t48.5 20q29 0 49 -20t20 -48q0 -30 -20 -49.5t-49 -19.5zM554 0l-55 150h-289l-54 -150h-161l286 708h151l283 -708
h-161zM250 259h209l-61 167q-27 75 -42 142h-4q-15 -67 -42 -142z" />
    <glyph glyph-name="Aring" unicode="&#xc5;" horiz-adv-x="710" 
d="M355 753q-43 0 -73 29.5t-30 73.5q0 43 30 72.5t73 29.5t73.5 -29.5t30.5 -72.5q0 -44 -30.5 -73.5t-73.5 -29.5zM355 913q-25 0 -41 -16.5t-16 -40.5t16.5 -41t40.5 -17q25 0 41.5 17t16.5 41t-16.5 40.5t-41.5 16.5zM554 0l-55 150h-289l-54 -150h-161l286 708h151
l283 -708h-161zM250 259h209l-61 167q-27 75 -42 142h-4q-15 -67 -42 -142z" />
    <glyph glyph-name="AE" unicode="&#xc6;" horiz-adv-x="946" 
d="M586 302v-181h302l-13 -121h-429v150h-208l-81 -150h-162l379 708h501l13 -121h-302v-168h274v-117h-274zM288 259h158v155q0 69 6 175h-3q-19 -60 -75 -180z" />
    <glyph glyph-name="Ccedilla" unicode="&#xc7;" horiz-adv-x="781" 
d="M742 163q-102 -177 -311 -182l-32 -47q12 3 28 3q38 0 63 -21t25 -55q0 -44 -36.5 -69.5t-99.5 -25.5t-109 23l21 53l10 3q38 -19 75 -19q22 0 35.5 9t13.5 25q0 30 -48 30q-25 0 -42 -7l-25 23l53 79q-139 19 -227.5 120.5t-88.5 248.5q0 163 106.5 268t265.5 105
q221 0 321 -183l-104 -66l-18 4q-67 113 -194 113q-97 0 -161 -68t-64 -173q0 -104 65 -172.5t162 -68.5q129 0 196 112l17 4z" />
    <glyph glyph-name="Egrave" unicode="&#xc8;" horiz-adv-x="577" 
d="M298 764l-126 126l5 8h124l97 -134h-100zM77 708h429l14 -121h-303v-168h275v-117h-275v-181h303l-14 -121h-429v708z" />
    <glyph glyph-name="Eacute" unicode="&#xc9;" horiz-adv-x="577" 
d="M192 764l96 134h123l5 -8l-124 -126h-100zM77 708h429l14 -121h-303v-168h275v-117h-275v-181h303l-14 -121h-429v708z" />
    <glyph glyph-name="Ecircumflex" unicode="&#xca;" horiz-adv-x="577" 
d="M294 847l-77 -83h-88l-6 9l112 125h118l113 -125l-7 -9h-88zM77 708h429l14 -121h-303v-168h275v-117h-275v-181h303l-14 -121h-429v708z" />
    <glyph glyph-name="Edieresis" unicode="&#xcb;" horiz-adv-x="577" 
d="M122 844q0 28 20.5 48t48.5 20q29 0 48.5 -20t19.5 -48q0 -30 -19.5 -49.5t-48.5 -19.5t-49 19.5t-20 49.5zM329 844q0 28 20.5 48t48.5 20q29 0 49 -20t20 -48q0 -30 -20 -49.5t-49 -19.5t-49 19.5t-20 49.5zM77 708h429l14 -121h-303v-168h275v-117h-275v-181h303
l-14 -121h-429v708z" />
    <glyph glyph-name="Igrave" unicode="&#xcc;" horiz-adv-x="295" 
d="M152 764l-126 126l5 8h124l97 -134h-100zM77 708h140v-708h-140v708z" />
    <glyph glyph-name="Iacute" unicode="&#xcd;" horiz-adv-x="295" 
d="M46 764l96 134h123l5 -8l-124 -126h-100zM77 708h140v-708h-140v708z" />
    <glyph glyph-name="Icircumflex" unicode="&#xce;" horiz-adv-x="295" 
d="M148 847l-77 -83h-88l-6 9l112 125h118l113 -125l-7 -9h-88zM77 708h140v-708h-140v708z" />
    <glyph glyph-name="Idieresis" unicode="&#xcf;" horiz-adv-x="295" 
d="M-24 844q0 28 20.5 48t48.5 20q29 0 48.5 -20t19.5 -48q0 -30 -19.5 -49.5t-48.5 -19.5t-49 19.5t-20 49.5zM183 844q0 28 20.5 48t48.5 20q29 0 49 -20t20 -48q0 -30 -20 -49.5t-49 -19.5t-49 19.5t-20 49.5zM77 708h140v-708h-140v708z" />
    <glyph glyph-name="Eth" unicode="&#xd0;" horiz-adv-x="746" 
d="M295 708q195 0 300 -92t105 -259q0 -168 -107.5 -262.5t-298.5 -94.5h-217v308h-56v102h56v298h218zM284 126q138 0 204.5 56.5t66.5 175.5q0 115 -65.5 169.5t-203.5 54.5h-69v-172h163v-102h-163v-182h67z" />
    <glyph glyph-name="Ntilde" unicode="&#xd1;" horiz-adv-x="785" 
d="M475 769q41 0 69.5 35t33.5 91h-64l-8 -6q-8 -39 -36 -39q-19 0 -65.5 22.5t-73.5 22.5q-41 0 -69.5 -35t-33.5 -91h65l7 6q10 39 36 39q19 0 64.5 -22.5t74.5 -22.5zM77 0v708h128l246 -300q85 -108 122 -158h3q-8 72 -8 178v280h140v-717h-99l-273 327q-60 73 -125 158
h-2q7 -72 7 -178v-298h-139z" />
    <glyph glyph-name="Ograve" unicode="&#xd2;" horiz-adv-x="860" 
d="M434 764l-126 126l5 8h124l97 -134h-100zM430 -19q-165 0 -274 106.5t-109 266.5q0 161 108 267t275 106t275 -106t108 -267q0 -160 -109 -266.5t-274 -106.5zM430 112q101 0 168 69.5t67 172.5q0 105 -66.5 174t-168.5 69t-168.5 -69t-66.5 -174q0 -103 67 -172.5
t168 -69.5z" />
    <glyph glyph-name="Oacute" unicode="&#xd3;" horiz-adv-x="860" 
d="M328 764l96 134h123l5 -8l-124 -126h-100zM430 -19q-165 0 -274 106.5t-109 266.5q0 161 108 267t275 106t275 -106t108 -267q0 -160 -109 -266.5t-274 -106.5zM430 112q101 0 168 69.5t67 172.5q0 105 -66.5 174t-168.5 69t-168.5 -69t-66.5 -174q0 -103 67 -172.5
t168 -69.5z" />
    <glyph glyph-name="Ocircumflex" unicode="&#xd4;" horiz-adv-x="860" 
d="M430 847l-77 -83h-88l-6 9l112 125h118l113 -125l-7 -9h-88zM430 -19q-165 0 -274 106.5t-109 266.5q0 161 108 267t275 106t275 -106t108 -267q0 -160 -109 -266.5t-274 -106.5zM430 112q101 0 168 69.5t67 172.5q0 105 -66.5 174t-168.5 69t-168.5 -69t-66.5 -174
q0 -103 67 -172.5t168 -69.5z" />
    <glyph glyph-name="Otilde" unicode="&#xd5;" horiz-adv-x="860" 
d="M502 769q41 0 69.5 35t33.5 91h-64l-8 -6q-8 -39 -36 -39q-19 0 -65.5 22.5t-73.5 22.5q-41 0 -69.5 -35t-33.5 -91h65l7 6q10 39 36 39q19 0 64.5 -22.5t74.5 -22.5zM430 -19q-165 0 -274 106.5t-109 266.5q0 161 108 267t275 106t275 -106t108 -267q0 -160 -109 -266.5
t-274 -106.5zM430 112q101 0 168 69.5t67 172.5q0 105 -66.5 174t-168.5 69t-168.5 -69t-66.5 -174q0 -103 67 -172.5t168 -69.5z" />
    <glyph glyph-name="Odieresis" unicode="&#xd6;" horiz-adv-x="860" 
d="M258 844q0 28 20.5 48t48.5 20q29 0 48.5 -20t19.5 -48q0 -30 -19.5 -49.5t-48.5 -19.5t-49 19.5t-20 49.5zM465 844q0 28 20.5 48t48.5 20q29 0 49 -20t20 -48q0 -30 -20 -49.5t-49 -19.5t-49 19.5t-20 49.5zM430 -19q-165 0 -274 106.5t-109 266.5q0 161 108 267
t275 106t275 -106t108 -267q0 -160 -109 -266.5t-274 -106.5zM430 112q101 0 168 69.5t67 172.5q0 105 -66.5 174t-168.5 69t-168.5 -69t-66.5 -174q0 -103 67 -172.5t168 -69.5z" />
    <glyph glyph-name="multiply" unicode="&#xd7;" horiz-adv-x="700" 
d="M591 480l-176 -176l176 -177l-64 -65l-177 177l-177 -177l-64 65l177 177l-177 176l64 65l177 -177l177 177z" />
    <glyph glyph-name="Oslash" unicode="&#xd8;" horiz-adv-x="860" 
d="M698 627q115 -105 115 -273q0 -160 -109 -266.5t-274 -106.5q-125 0 -222 65l-51 -60l-44 32l52 61q-118 108 -118 275q0 161 108 267t275 106q129 0 226 -66l52 61l42 -33zM195 354q0 -98 61 -167l311 368q-59 42 -137 42q-102 0 -168.5 -69t-66.5 -174zM430 112
q101 0 168 69.5t67 172.5q0 99 -58 165l-310 -367q59 -40 133 -40z" />
    <glyph glyph-name="Ugrave" unicode="&#xd9;" horiz-adv-x="737" 
d="M373 764l-126 126l5 8h124l97 -134h-100zM369 -19q-297 0 -297 310v417h140v-405q0 -101 37.5 -146t119.5 -45t119 45t37 147v404h140v-417q0 -150 -75 -230t-221 -80z" />
    <glyph glyph-name="Uacute" unicode="&#xda;" horiz-adv-x="737" 
d="M267 764l96 134h123l5 -8l-124 -126h-100zM369 -19q-297 0 -297 310v417h140v-405q0 -101 37.5 -146t119.5 -45t119 45t37 147v404h140v-417q0 -150 -75 -230t-221 -80z" />
    <glyph glyph-name="Ucircumflex" unicode="&#xdb;" horiz-adv-x="737" 
d="M369 847l-77 -83h-88l-6 9l112 125h118l113 -125l-7 -9h-88zM369 -19q-297 0 -297 310v417h140v-405q0 -101 37.5 -146t119.5 -45t119 45t37 147v404h140v-417q0 -150 -75 -230t-221 -80z" />
    <glyph glyph-name="Udieresis" unicode="&#xdc;" horiz-adv-x="737" 
d="M197 844q0 28 20.5 48t48.5 20t48 -20t20 -48q0 -30 -19.5 -49.5t-48.5 -19.5t-49 19.5t-20 49.5zM404 844q0 28 20.5 48t48.5 20q29 0 49 -20t20 -48q0 -30 -20 -49.5t-49 -19.5t-49 19.5t-20 49.5zM369 -19q-297 0 -297 310v417h140v-405q0 -101 37.5 -146t119.5 -45
t119 45t37 147v404h140v-417q0 -150 -75 -230t-221 -80z" />
    <glyph glyph-name="Yacute" unicode="&#xdd;" horiz-adv-x="636" 
d="M216 764l96 134h123l5 -8l-124 -126h-100zM248 0v285l-250 423h165l84 -167l70 -141h3l69 141l84 167h165l-250 -423v-285h-140z" />
    <glyph glyph-name="Thorn" unicode="&#xde;" horiz-adv-x="596" 
d="M77 0v708h142v-126h87q128 0 193.5 -56.5t65.5 -165.5q0 -103 -64.5 -160.5t-181.5 -57.5h-100v-142h-142zM219 256h74q69 0 101.5 25.5t32.5 78.5q0 56 -32.5 81t-101.5 25h-74v-210z" />
    <glyph glyph-name="germandbls" unicode="&#xdf;" horiz-adv-x="589" 
d="M339 -19q-47 0 -86 14l10 106l6 4q25 -11 51 -11q47 0 72 32t25 90q0 65 -33.5 100t-97.5 35h-18v93h18q93 0 93 97q1 45 -22 70t-65 25q-51 0 -71.5 -32t-20.5 -108v-496h-133v491q0 133 53.5 193.5t168.5 60.5q96 0 153.5 -51t57.5 -136q-1 -55 -26.5 -94t-70.5 -56
q69 -14 108.5 -66.5t39.5 -131.5q0 -104 -57 -166.5t-155 -62.5z" />
    <glyph glyph-name="agrave" unicode="&#xe0;" horiz-adv-x="513" 
d="M358 534h-100l-143 176l5 8h131zM482 81l8 -5v-80q-41 -12 -79 -12q-79 0 -93 61q-63 -64 -151 -64q-62 0 -97 31t-35 84q0 64 62.5 104.5t208.5 61.5v24q0 74 -64 74t-113 -66l-9 -1l-78 54q34 55 92 88t128 33q86 0 131 -43t45 -126v-199q0 -15 4.5 -20.5t15.5 -5.5
q9 0 24 7zM161 111q0 -48 53 -48q48 0 92 41v94q-79 -15 -112 -35t-33 -52z" />
    <glyph glyph-name="aacute" unicode="&#xe1;" horiz-adv-x="513" 
d="M408 710l-143 -176h-100l107 184h131zM482 81l8 -5v-80q-41 -12 -79 -12q-79 0 -93 61q-63 -64 -151 -64q-62 0 -97 31t-35 84q0 64 62.5 104.5t208.5 61.5v24q0 74 -64 74t-113 -66l-9 -1l-78 54q34 55 92 88t128 33q86 0 131 -43t45 -126v-199q0 -15 4.5 -20.5
t15.5 -5.5q9 0 24 7zM161 111q0 -48 53 -48q48 0 92 41v94q-79 -15 -112 -35t-33 -52z" />
    <glyph glyph-name="acircumflex" unicode="&#xe2;" horiz-adv-x="513" 
d="M179 534h-89l-6 9l111 175h122l112 -175l-7 -9h-89l-77 120zM482 81l8 -5v-80q-41 -12 -79 -12q-79 0 -93 61q-63 -64 -151 -64q-62 0 -97 31t-35 84q0 64 62.5 104.5t208.5 61.5v24q0 74 -64 74t-113 -66l-9 -1l-78 54q34 55 92 88t128 33q86 0 131 -43t45 -126v-199
q0 -15 4.5 -20.5t15.5 -5.5q9 0 24 7zM161 111q0 -48 53 -48q48 0 92 41v94q-79 -15 -112 -35t-33 -52z" />
    <glyph glyph-name="atilde" unicode="&#xe3;" horiz-adv-x="513" 
d="M153 548l-7 -6h-65q5 56 33.5 91t69.5 35q27 0 73.5 -22.5t65.5 -22.5q28 0 36 39l8 6h64q-5 -56 -33.5 -91t-69.5 -35q-29 0 -74.5 22.5t-64.5 22.5q-26 0 -36 -39zM482 81l8 -5v-80q-41 -12 -79 -12q-79 0 -93 61q-63 -64 -151 -64q-62 0 -97 31t-35 84
q0 64 62.5 104.5t208.5 61.5v24q0 74 -64 74t-113 -66l-9 -1l-78 54q34 55 92 88t128 33q86 0 131 -43t45 -126v-199q0 -15 4.5 -20.5t15.5 -5.5q9 0 24 7zM161 111q0 -48 53 -48q48 0 92 41v94q-79 -15 -112 -35t-33 -52z" />
    <glyph glyph-name="adieresis" unicode="&#xe4;" horiz-adv-x="513" 
d="M160 538q-29 0 -49 20t-20 49q0 28 20.5 48.5t48.5 20.5t48 -20t20 -49t-19.5 -49t-48.5 -20zM352 538q-29 0 -48.5 20t-19.5 49q0 28 20 48.5t48 20.5t48.5 -20t20.5 -49t-20 -49t-49 -20zM482 81l8 -5v-80q-41 -12 -79 -12q-79 0 -93 61q-63 -64 -151 -64q-62 0 -97 31
t-35 84q0 64 62.5 104.5t208.5 61.5v24q0 74 -64 74t-113 -66l-9 -1l-78 54q34 55 92 88t128 33q86 0 131 -43t45 -126v-199q0 -15 4.5 -20.5t15.5 -5.5q9 0 24 7zM161 111q0 -48 53 -48q48 0 92 41v94q-79 -15 -112 -35t-33 -52z" />
    <glyph glyph-name="aring" unicode="&#xe5;" horiz-adv-x="513" 
d="M256 523q-43 0 -73 29.5t-30 73.5q0 43 30 72.5t73 29.5t73.5 -29.5t30.5 -72.5q0 -44 -30.5 -73.5t-73.5 -29.5zM256 683q-25 0 -41 -16.5t-16 -40.5t16.5 -41t40.5 -17q25 0 41.5 17t16.5 41t-16.5 40.5t-41.5 16.5zM482 81l8 -5v-80q-41 -12 -79 -12q-79 0 -93 61
q-63 -64 -151 -64q-62 0 -97 31t-35 84q0 64 62.5 104.5t208.5 61.5v24q0 74 -64 74t-113 -66l-9 -1l-78 54q34 55 92 88t128 33q86 0 131 -43t45 -126v-199q0 -15 4.5 -20.5t15.5 -5.5q9 0 24 7zM161 111q0 -48 53 -48q48 0 92 41v94q-79 -15 -112 -35t-33 -52z" />
    <glyph glyph-name="ae" unicode="&#xe6;" horiz-adv-x="808" 
d="M167 -19q-62 0 -97 31t-35 84q0 65 62.5 104.5t208.5 59.5v26q0 74 -64 74t-113 -66l-9 -1l-78 54q34 55 91.5 88t125.5 33q95 0 132 -69h2q55 69 156 69q94 0 156.5 -67t62.5 -178q0 -10 -1 -20h-328q0 -55 29 -88.5t75 -33.5q59 0 100 63l8 3l105 -41
q-66 -125 -217 -125q-119 0 -186 89q-85 -89 -186 -89zM441 272h193q-2 47 -27.5 73.5t-64.5 26.5t-66.5 -26.5t-34.5 -73.5zM214 63q49 0 110 60q-12 33 -15 72q-81 -12 -114.5 -32t-33.5 -52q0 -48 53 -48z" />
    <glyph glyph-name="ccedilla" unicode="&#xe7;" horiz-adv-x="535" 
d="M499 106q-63 -110 -191 -123l-33 -49q12 3 28 3q38 0 63 -21t25 -55q0 -44 -36.5 -69.5t-99.5 -25.5t-109 23l21 53l10 3q38 -19 75 -19q22 0 35.5 9t13.5 25q0 30 -48 30q-25 0 -42 -7l-25 23l52 78q-93 12 -147 77t-54 163q0 106 67.5 175t174.5 69q149 0 219 -123
l-99 -58l-9 2q-43 69 -108 69q-49 0 -81 -36t-32 -97t32 -97t82 -36q69 0 109 69l9 2z" />
    <glyph glyph-name="egrave" unicode="&#xe8;" horiz-adv-x="556" 
d="M380 534h-100l-143 176l5 8h131zM515 203h-341v-6q0 -53 32 -84.5t81 -31.5q63 0 104 63l8 3l105 -41q-66 -125 -221 -125q-111 0 -178 68t-67 175t67.5 175.5t174.5 68.5q105 0 170.5 -66.5t65.5 -178.5q0 -10 -1 -20zM282 372q-43 0 -71.5 -26t-34.5 -73h207
q-3 46 -30 72.5t-71 26.5z" />
    <glyph glyph-name="eacute" unicode="&#xe9;" horiz-adv-x="556" 
d="M430 710l-143 -176h-100l107 184h131zM515 203h-341v-6q0 -53 32 -84.5t81 -31.5q63 0 104 63l8 3l105 -41q-66 -125 -221 -125q-111 0 -178 68t-67 175t67.5 175.5t174.5 68.5q105 0 170.5 -66.5t65.5 -178.5q0 -10 -1 -20zM282 372q-43 0 -71.5 -26t-34.5 -73h207
q-3 46 -30 72.5t-71 26.5z" />
    <glyph glyph-name="ecircumflex" unicode="&#xea;" horiz-adv-x="556" 
d="M201 534h-89l-6 9l111 175h122l112 -175l-7 -9h-89l-77 120zM515 203h-341v-6q0 -53 32 -84.5t81 -31.5q63 0 104 63l8 3l105 -41q-66 -125 -221 -125q-111 0 -178 68t-67 175t67.5 175.5t174.5 68.5q105 0 170.5 -66.5t65.5 -178.5q0 -10 -1 -20zM282 372
q-43 0 -71.5 -26t-34.5 -73h207q-3 46 -30 72.5t-71 26.5z" />
    <glyph glyph-name="edieresis" unicode="&#xeb;" horiz-adv-x="556" 
d="M182 538q-29 0 -49 20t-20 49q0 28 20.5 48.5t48.5 20.5t48 -20t20 -49t-19.5 -49t-48.5 -20zM374 538q-29 0 -48.5 20t-19.5 49q0 28 20 48.5t48 20.5t48.5 -20t20.5 -49t-20 -49t-49 -20zM515 203h-341v-6q0 -53 32 -84.5t81 -31.5q63 0 104 63l8 3l105 -41
q-66 -125 -221 -125q-111 0 -178 68t-67 175t67.5 175.5t174.5 68.5q105 0 170.5 -66.5t65.5 -178.5q0 -10 -1 -20zM282 372q-43 0 -71.5 -26t-34.5 -73h207q-3 46 -30 72.5t-71 26.5z" />
    <glyph glyph-name="igrave" unicode="&#xec;" horiz-adv-x="267" 
d="M236 534h-100l-143 176l5 8h131zM67 0v449h133v-449h-133z" />
    <glyph glyph-name="iacute" unicode="&#xed;" horiz-adv-x="267" 
d="M43 534l107 184h131l5 -8l-143 -176h-100zM67 0v449h133v-449h-133z" />
    <glyph glyph-name="icircumflex" unicode="&#xee;" horiz-adv-x="267" 
d="M134 654l-77 -120h-89l-6 9l111 175h122l112 -175l-7 -9h-89zM67 0v449h133v-449h-133z" />
    <glyph glyph-name="idieresis" unicode="&#xef;" horiz-adv-x="267" 
d="M-31 607q0 28 20.5 48.5t48.5 20.5t48 -20t20 -49t-19.5 -49t-48.5 -20t-49 20t-20 49zM162 607q0 28 20 48.5t48 20.5t48.5 -20t20.5 -49t-20 -49t-49 -20t-48.5 20t-19.5 49zM67 0v449h133v-449h-133z" />
    <glyph glyph-name="eth" unicode="&#xf0;" horiz-adv-x="596" 
d="M393 626q140 -173 138 -362q-1 -131 -73 -207t-191 -76q-102 0 -166 66t-64 178q0 108 58 175.5t144 67.5q103 0 158 -93q-4 37 -32.5 91t-78.5 110l-81 -38l-44 53l77 36q-24 25 -59 57l100 59q36 -30 68 -65l95 45l44 -53zM279 94q54 0 87 36t33 94q0 57 -33 94.5
t-84 37.5t-81.5 -36t-30.5 -96q0 -61 29.5 -95.5t79.5 -34.5z" />
    <glyph glyph-name="ntilde" unicode="&#xf1;" horiz-adv-x="585" 
d="M365 542q41 0 69.5 35t33.5 91h-64l-8 -6q-8 -39 -36 -39q-19 0 -65.5 22.5t-73.5 22.5q-41 0 -69.5 -35t-33.5 -91h65l7 6q10 39 36 39q19 0 64.5 -22.5t74.5 -22.5zM67 449h131v-74q58 93 157 93q77 0 120 -46t43 -132v-290h-133v246q0 58 -19.5 83t-62.5 25
q-46 0 -74.5 -37t-28.5 -97v-220h-133v449z" />
    <glyph glyph-name="ograve" unicode="&#xf2;" horiz-adv-x="583" 
d="M394 534h-100l-143 176l5 8h131zM292 -19q-109 0 -182 70t-73 174t72.5 173.5t182.5 69.5q109 0 181.5 -69.5t72.5 -173.5t-72.5 -174t-181.5 -70zM292 95q51 0 86 37.5t35 92.5q0 56 -34.5 93t-86.5 37q-53 0 -87.5 -37t-34.5 -93q0 -55 35 -92.5t87 -37.5z" />
    <glyph glyph-name="oacute" unicode="&#xf3;" horiz-adv-x="583" 
d="M201 534l107 184h131l5 -8l-143 -176h-100zM292 -19q-109 0 -182 70t-73 174t72.5 173.5t182.5 69.5q109 0 181.5 -69.5t72.5 -173.5t-72.5 -174t-181.5 -70zM292 95q51 0 86 37.5t35 92.5q0 56 -34.5 93t-86.5 37q-53 0 -87.5 -37t-34.5 -93q0 -55 35 -92.5t87 -37.5z
" />
    <glyph glyph-name="ocircumflex" unicode="&#xf4;" horiz-adv-x="583" 
d="M292 654l-77 -120h-89l-6 9l111 175h122l112 -175l-7 -9h-89zM292 -19q-109 0 -182 70t-73 174t72.5 173.5t182.5 69.5q109 0 181.5 -69.5t72.5 -173.5t-72.5 -174t-181.5 -70zM292 95q51 0 86 37.5t35 92.5q0 56 -34.5 93t-86.5 37q-53 0 -87.5 -37t-34.5 -93
q0 -55 35 -92.5t87 -37.5z" />
    <glyph glyph-name="otilde" unicode="&#xf5;" horiz-adv-x="583" 
d="M364 542q41 0 69.5 35t33.5 91h-64l-8 -6q-8 -39 -36 -39q-19 0 -65.5 22.5t-73.5 22.5q-41 0 -69.5 -35t-33.5 -91h65l7 6q10 39 36 39q19 0 64.5 -22.5t74.5 -22.5zM292 -19q-109 0 -182 70t-73 174t72.5 173.5t182.5 69.5q109 0 181.5 -69.5t72.5 -173.5t-72.5 -174
t-181.5 -70zM292 95q51 0 86 37.5t35 92.5q0 56 -34.5 93t-86.5 37q-53 0 -87.5 -37t-34.5 -93q0 -55 35 -92.5t87 -37.5z" />
    <glyph glyph-name="odieresis" unicode="&#xf6;" horiz-adv-x="583" 
d="M127 607q0 28 20.5 48.5t48.5 20.5t48 -20t20 -49t-19.5 -49t-48.5 -20t-49 20t-20 49zM320 607q0 28 20 48.5t48 20.5t48.5 -20t20.5 -49t-20 -49t-49 -20t-48.5 20t-19.5 49zM292 -19q-109 0 -182 70t-73 174t72.5 173.5t182.5 69.5q109 0 181.5 -69.5t72.5 -173.5
t-72.5 -174t-181.5 -70zM292 95q51 0 86 37.5t35 92.5q0 56 -34.5 93t-86.5 37q-53 0 -87.5 -37t-34.5 -93q0 -55 35 -92.5t87 -37.5z" />
    <glyph glyph-name="divide" unicode="&#xf7;" horiz-adv-x="700" 
d="M350 412q-30 0 -50.5 20.5t-20.5 49.5t20.5 49t50.5 20t50.5 -20t20.5 -49t-20.5 -49.5t-50.5 -20.5zM83 258v91h534v-91h-534zM350 55q-30 0 -50.5 20.5t-20.5 50.5q0 29 20.5 49t50.5 20t50.5 -20t20.5 -49q0 -30 -20.5 -50.5t-50.5 -20.5z" />
    <glyph glyph-name="oslash" unicode="&#xf8;" horiz-adv-x="583" 
d="M474 398q72 -72 72 -173q0 -104 -72.5 -174t-181.5 -70q-75 0 -139 37l-27 -32l-44 32l29 33q-74 71 -74 174q0 104 72.5 173.5t182.5 69.5q79 0 139 -37l28 33l42 -33zM169 225q0 -42 24 -76l161 189q-28 19 -62 19q-53 0 -88 -38t-35 -94zM292 93q52 0 87 38t35 94
q0 43 -23 75l-160 -190q26 -17 61 -17z" />
    <glyph glyph-name="ugrave" unicode="&#xf9;" horiz-adv-x="576" 
d="M390 536h-100l-143 176l5 8h131zM508 0h-130v73q-57 -92 -155 -92q-73 0 -114.5 47t-41.5 135v286h133v-250q0 -104 77 -104q43 0 70.5 36.5t27.5 98.5v219h133v-449z" />
    <glyph glyph-name="uacute" unicode="&#xfa;" horiz-adv-x="576" 
d="M197 536l107 184h131l5 -8l-143 -176h-100zM508 0h-130v73q-57 -92 -155 -92q-73 0 -114.5 47t-41.5 135v286h133v-250q0 -104 77 -104q43 0 70.5 36.5t27.5 98.5v219h133v-449z" />
    <glyph glyph-name="ucircumflex" unicode="&#xfb;" horiz-adv-x="576" 
d="M288 656l-77 -120h-89l-6 9l111 175h122l112 -175l-7 -9h-89zM508 0h-130v73q-57 -92 -155 -92q-73 0 -114.5 47t-41.5 135v286h133v-250q0 -104 77 -104q43 0 70.5 36.5t27.5 98.5v219h133v-449z" />
    <glyph glyph-name="udieresis" unicode="&#xfc;" horiz-adv-x="576" 
d="M123 609q0 28 20.5 48.5t48.5 20.5t48 -20t20 -49t-19.5 -49t-48.5 -20t-49 20t-20 49zM316 609q0 28 20 48.5t48 20.5t48.5 -20t20.5 -49t-20 -49t-49 -20t-48.5 20t-19.5 49zM508 0h-130v73q-57 -92 -155 -92q-73 0 -114.5 47t-41.5 135v286h133v-250q0 -104 77 -104
q43 0 70.5 36.5t27.5 98.5v219h133v-449z" />
    <glyph glyph-name="yacute" unicode="&#xfd;" horiz-adv-x="524" 
d="M179 534l107 184h131l5 -8l-143 -176h-100zM75 -218l121 253l-185 414h155l97 -296h2l106 296h149l-301 -667h-144z" />
    <glyph glyph-name="thorn" unicode="&#xfe;" horiz-adv-x="596" 
d="M67 733h133v-213q0 -102 -2 -145q59 93 164 93q87 0 141.5 -65t54.5 -175t-57.5 -178.5t-146.5 -68.5q-47 0 -89 23.5t-67 65.5q2 -84 2 -143v-145h-133v951zM314 94q51 0 81 35.5t30 96.5t-29 95.5t-81 34.5t-85 -37.5t-33 -94.5q0 -58 32.5 -94t84.5 -36z" />
    <glyph glyph-name="ydieresis" unicode="&#xff;" horiz-adv-x="524" 
d="M105 607q0 28 20.5 48.5t48.5 20.5t48 -20t20 -49t-19.5 -49t-48.5 -20t-49 20t-20 49zM298 607q0 28 20 48.5t48 20.5t48.5 -20t20.5 -49t-20 -49t-49 -20t-48.5 20t-19.5 49zM75 -218l121 253l-185 414h155l97 -296h2l106 296h149l-301 -667h-144z" />
    <glyph glyph-name="Amacron" unicode="&#x100;" horiz-adv-x="710" 
d="M506 878v-82h-302v82h302zM554 0l-55 150h-289l-54 -150h-161l286 708h151l283 -708h-161zM250 259h209l-61 167q-27 75 -42 142h-4q-15 -67 -42 -142z" />
    <glyph glyph-name="amacron" unicode="&#x101;" horiz-adv-x="513" 
d="M407 652v-83h-302v83h302zM482 81l8 -5v-80q-41 -12 -79 -12q-79 0 -93 61q-63 -64 -151 -64q-62 0 -97 31t-35 84q0 64 62.5 104.5t208.5 61.5v24q0 74 -64 74t-113 -66l-9 -1l-78 54q34 55 92 88t128 33q86 0 131 -43t45 -126v-199q0 -15 4.5 -20.5t15.5 -5.5q9 0 24 7
zM161 111q0 -48 53 -48q48 0 92 41v94q-79 -15 -112 -35t-33 -52z" />
    <glyph glyph-name="Abreve" unicode="&#x102;" horiz-adv-x="710" 
d="M355 762q-73 0 -117 35t-49 98l8 7h72q12 -58 86 -58q73 0 85 58h72l9 -7q-5 -63 -49.5 -98t-116.5 -35zM554 0l-55 150h-289l-54 -150h-161l286 708h151l283 -708h-161zM250 259h209l-61 167q-27 75 -42 142h-4q-15 -67 -42 -142z" />
    <glyph glyph-name="abreve" unicode="&#x103;" horiz-adv-x="513" 
d="M256 535q-73 0 -117.5 35.5t-48.5 99.5l8 7h72q12 -60 86 -60q73 0 85 60h72l9 -7q-5 -64 -49 -99.5t-117 -35.5zM482 81l8 -5v-80q-41 -12 -79 -12q-79 0 -93 61q-63 -64 -151 -64q-62 0 -97 31t-35 84q0 64 62.5 104.5t208.5 61.5v24q0 74 -64 74t-113 -66l-9 -1
l-78 54q34 55 92 88t128 33q86 0 131 -43t45 -126v-199q0 -15 4.5 -20.5t15.5 -5.5q9 0 24 7zM161 111q0 -48 53 -48q48 0 92 41v94q-79 -15 -112 -35t-33 -52z" />
    <glyph glyph-name="Aogonek" unicode="&#x104;" horiz-adv-x="710" 
d="M682 -137l6 1l22 -65q-46 -29 -102 -29q-48 0 -78 24t-30 63q0 76 100 143h-46l-55 150h-289l-54 -150h-161l286 708h151l283 -708h-45q-78 -62 -78 -116q0 -17 11.5 -28t28.5 -11q22 0 50 18zM250 259h209l-61 167q-27 75 -42 142h-4q-15 -67 -42 -142z" />
    <glyph glyph-name="aogonek" unicode="&#x105;" horiz-adv-x="513" 
d="M420 -16q-59 -52 -59 -100q0 -17 11.5 -28t28.5 -11q22 0 50 18l6 1l22 -65q-46 -29 -102 -29q-48 0 -78 24t-30 63q0 72 90 136q-33 16 -41 52q-63 -64 -151 -64q-62 0 -97 31t-35 84q0 64 62.5 104.5t208.5 61.5v24q0 74 -64 74t-113 -66l-9 -1l-78 54q34 55 92 88
t128 33q86 0 131 -43t45 -126v-199q0 -15 4.5 -20.5t15.5 -5.5q9 0 24 7l8 -5v-80q-40 -11 -70 -12zM161 111q0 -48 53 -48q48 0 92 41v94q-79 -15 -112 -35t-33 -52z" />
    <glyph glyph-name="Cacute" unicode="&#x106;" horiz-adv-x="781" 
d="M323 764l96 134h123l5 -8l-124 -126h-100zM420 -19q-161 0 -267 105t-106 268t106.5 268t265.5 105q221 0 321 -183l-104 -66l-18 4q-67 113 -194 113q-97 0 -161 -68t-64 -173q0 -104 65 -172.5t162 -68.5q129 0 196 112l17 4l103 -66q-105 -182 -322 -182z" />
    <glyph glyph-name="cacute" unicode="&#x107;" horiz-adv-x="535" 
d="M191 534l107 184h131l5 -8l-143 -176h-100zM277 -19q-109 0 -174.5 67.5t-65.5 175.5q0 106 67.5 175t174.5 69q149 0 219 -123l-99 -58l-9 2q-43 69 -108 69q-49 0 -81 -36t-32 -97t32 -97t82 -36q69 0 109 69l9 2l98 -57q-71 -125 -222 -125z" />
    <glyph glyph-name="Ccircumflex" unicode="&#x108;" horiz-adv-x="781" 
d="M425 913l-77 -120h-89l-6 9l111 175h122l112 -175l-7 -9h-89zM420 -19q-161 0 -267 105t-106 268t106.5 268t265.5 105q221 0 321 -183l-104 -66l-18 4q-67 113 -194 113q-97 0 -161 -68t-64 -173q0 -104 65 -172.5t162 -68.5q129 0 196 112l17 4l103 -66
q-105 -182 -322 -182z" />
    <glyph glyph-name="ccircumflex" unicode="&#x109;" horiz-adv-x="535" 
d="M282 654l-77 -120h-89l-6 9l111 175h122l112 -175l-7 -9h-89zM277 -19q-109 0 -174.5 67.5t-65.5 175.5q0 106 67.5 175t174.5 69q149 0 219 -123l-99 -58l-9 2q-43 69 -108 69q-49 0 -81 -36t-32 -97t32 -97t82 -36q69 0 109 69l9 2l98 -57q-71 -125 -222 -125z" />
    <glyph glyph-name="Cdotaccent" unicode="&#x10a;" horiz-adv-x="781" 
d="M425 772q-35 0 -58.5 21.5t-23.5 55.5q0 33 23.5 54.5t58.5 21.5q36 0 59 -22t23 -55t-23 -54.5t-59 -21.5zM420 -19q-161 0 -267 105t-106 268t106.5 268t265.5 105q221 0 321 -183l-104 -66l-18 4q-67 113 -194 113q-97 0 -161 -68t-64 -173q0 -104 65 -172.5
t162 -68.5q129 0 196 112l17 4l103 -66q-105 -182 -322 -182z" />
    <glyph glyph-name="cdotaccent" unicode="&#x10b;" horiz-adv-x="535" 
d="M282 533q-35 0 -58.5 21.5t-23.5 55.5q0 33 23.5 54.5t58.5 21.5q36 0 59 -22t23 -55t-23 -54.5t-59 -21.5zM277 -19q-109 0 -174.5 67.5t-65.5 175.5q0 106 67.5 175t174.5 69q149 0 219 -123l-99 -58l-9 2q-43 69 -108 69q-49 0 -81 -36t-32 -97t32 -97t82 -36
q69 0 109 69l9 2l98 -57q-71 -125 -222 -125z" />
    <glyph glyph-name="Ccaron" unicode="&#x10c;" horiz-adv-x="781" 
d="M366 764l-108 125l7 9h87l73 -83l72 83h88l7 -9l-108 -125h-118zM420 -19q-161 0 -267 105t-106 268t106.5 268t265.5 105q221 0 321 -183l-104 -66l-18 4q-67 113 -194 113q-97 0 -161 -68t-64 -173q0 -104 65 -172.5t162 -68.5q129 0 196 112l17 4l103 -66
q-105 -182 -322 -182z" />
    <glyph glyph-name="ccaron" unicode="&#x10d;" horiz-adv-x="535" 
d="M282 598l77 120h89l7 -9l-112 -175h-122l-111 175l6 9h89zM277 -19q-109 0 -174.5 67.5t-65.5 175.5q0 106 67.5 175t174.5 69q149 0 219 -123l-99 -58l-9 2q-43 69 -108 69q-49 0 -81 -36t-32 -97t32 -97t82 -36q69 0 109 69l9 2l98 -57q-71 -125 -222 -125z" />
    <glyph glyph-name="Dcaron" unicode="&#x10e;" horiz-adv-x="746" 
d="M279 764l-108 125l7 9h87l73 -83l72 83h88l7 -9l-108 -125h-118zM77 0v708h218q195 0 300 -92t105 -259q0 -168 -107.5 -262.5t-298.5 -94.5h-217zM217 126h67q138 0 204.5 56.5t66.5 175.5q0 115 -65.5 169.5t-203.5 54.5h-69v-456z" />
    <glyph glyph-name="dcaron" unicode="&#x10f;" horiz-adv-x="753" 
d="M235 -19q-89 0 -143.5 66t-54.5 178q0 108 58 175.5t144 67.5q103 0 158 -93q-2 86 -2 145v213h133v-733h-128v73q-25 -43 -69.5 -67.5t-95.5 -24.5zM654 495l-79 30l68 196l12 6l95 -36zM279 94q54 0 87 36t33 94q0 57 -33 94.5t-84 37.5t-81.5 -36t-30.5 -96
q0 -61 29.5 -95.5t79.5 -34.5z" />
    <glyph glyph-name="Dcroat" unicode="&#x110;" horiz-adv-x="746" 
d="M295 708q195 0 300 -92t105 -259q0 -168 -107.5 -262.5t-298.5 -94.5h-217v308h-56v102h56v298h218zM284 126q138 0 204.5 56.5t66.5 175.5q0 115 -65.5 169.5t-203.5 54.5h-69v-172h163v-102h-163v-182h67z" />
    <glyph glyph-name="dcroat" unicode="&#x111;" horiz-adv-x="596" 
d="M586 641v-95h-58v-546h-128v73q-25 -43 -69.5 -67.5t-95.5 -24.5q-89 0 -143.5 66t-54.5 178q0 108 58 175.5t144 67.5q103 0 158 -93q-2 86 -2 145v26h-136v95h136v92h133v-92h58zM279 94q54 0 87 36t33 94q0 57 -33 94.5t-84 37.5t-81.5 -36t-30.5 -96
q0 -61 29.5 -95.5t79.5 -34.5z" />
    <glyph glyph-name="Emacron" unicode="&#x112;" horiz-adv-x="577" 
d="M143 796v82h302v-82h-302zM77 708h429l14 -121h-303v-168h275v-117h-275v-181h303l-14 -121h-429v708z" />
    <glyph glyph-name="emacron" unicode="&#x113;" horiz-adv-x="556" 
d="M429 652v-83h-302v83h302zM515 203h-341v-6q0 -53 32 -84.5t81 -31.5q63 0 104 63l8 3l105 -41q-66 -125 -221 -125q-111 0 -178 68t-67 175t67.5 175.5t174.5 68.5q105 0 170.5 -66.5t65.5 -178.5q0 -10 -1 -20zM282 372q-43 0 -71.5 -26t-34.5 -73h207q-3 46 -30 72.5
t-71 26.5z" />
    <glyph glyph-name="Edotaccent" unicode="&#x116;" horiz-adv-x="577" 
d="M294 772q-35 0 -58.5 21.5t-23.5 55.5q0 33 23.5 54.5t58.5 21.5q36 0 59 -22t23 -55t-23 -54.5t-59 -21.5zM77 708h429l14 -121h-303v-168h275v-117h-275v-181h303l-14 -121h-429v708z" />
    <glyph glyph-name="edotaccent" unicode="&#x117;" horiz-adv-x="556" 
d="M278 533q-35 0 -58.5 21.5t-23.5 55.5q0 33 23.5 54.5t58.5 21.5q36 0 59 -22t23 -55t-23 -54.5t-59 -21.5zM515 203h-341v-6q0 -53 32 -84.5t81 -31.5q63 0 104 63l8 3l105 -41q-66 -125 -221 -125q-111 0 -178 68t-67 175t67.5 175.5t174.5 68.5q105 0 170.5 -66.5
t65.5 -178.5q0 -10 -1 -20zM282 372q-43 0 -71.5 -26t-34.5 -73h207q-3 46 -30 72.5t-71 26.5z" />
    <glyph glyph-name="Eogonek" unicode="&#x118;" horiz-adv-x="577" 
d="M504 -136l22 -65q-46 -29 -102 -29q-48 0 -78 24t-30 63q0 76 100 143h-339v708h429l14 -121h-303v-168h275v-117h-275v-181h303l-14 -121h-20q-78 -62 -78 -116q0 -17 11.5 -28t28.5 -11q22 0 50 18z" />
    <glyph glyph-name="eogonek" unicode="&#x119;" horiz-adv-x="556" 
d="M339 -230q-44 0 -76 22.5t-32 64.5q0 69 82 127q-17 -3 -30 -3q-111 0 -178 68t-67 175t67.5 175.5t174.5 68.5q105 0 170.5 -66.5t65.5 -178.5q0 -10 -1 -20h-341v-6q0 -53 32 -84.5t81 -31.5q63 0 104 63l8 3l105 -41q-34 -62 -93 -93q-89 -71 -89 -129q0 -17 12 -28
t29 -11q23 0 49 18l6 1l23 -65q-46 -29 -102 -29zM176 273h207q-3 46 -30.5 72.5t-71.5 26.5q-42 0 -70 -26t-35 -73z" />
    <glyph glyph-name="Ecaron" unicode="&#x11a;" horiz-adv-x="577" 
d="M235 764l-108 125l7 9h87l73 -83l72 83h88l7 -9l-108 -125h-118zM77 708h429l14 -121h-303v-168h275v-117h-275v-181h303l-14 -121h-429v708z" />
    <glyph glyph-name="ecaron" unicode="&#x11b;" horiz-adv-x="556" 
d="M339 534h-122l-111 175l6 9h89l77 -120l77 120h89l7 -9zM515 203h-341v-6q0 -53 32 -84.5t81 -31.5q63 0 104 63l8 3l105 -41q-66 -125 -221 -125q-111 0 -178 68t-67 175t67.5 175.5t174.5 68.5q105 0 170.5 -66.5t65.5 -178.5q0 -10 -1 -20zM282 372q-43 0 -71.5 -26
t-34.5 -73h207q-3 46 -30 72.5t-71 26.5z" />
    <glyph glyph-name="Gbreve" unicode="&#x11e;" horiz-adv-x="823" 
d="M423 762q-73 0 -117 35t-49 98l8 7h72q12 -58 86 -58q73 0 85 58h72l9 -7q-5 -63 -49.5 -98t-116.5 -35zM399 -19q-153 0 -252.5 104t-99.5 266q0 165 107 270.5t269 105.5q224 0 326 -178l-105 -67l-17 4q-36 57 -83.5 83t-115.5 26q-100 0 -164.5 -68.5t-64.5 -175.5
q0 -105 62.5 -173.5t160.5 -68.5q84 0 141.5 41t64.5 117v4h-173v109h302v-380h-127v33q0 34 12 70l-2 1q-78 -123 -241 -123z" />
    <glyph glyph-name="gbreve" unicode="&#x11f;" horiz-adv-x="510" 
d="M255 535q-73 0 -117.5 35.5t-48.5 99.5l8 7h72q12 -60 86 -60q73 0 85 60h72l9 -7q-5 -64 -49 -99.5t-117 -35.5zM247 -230q-116 0 -179.5 38t-63.5 107q0 75 98 107q-35 22 -35 59q0 56 76 75q-47 17 -75 56.5t-28 90.5q0 72 58 119t147 46q52 0 96 -19h146l3 -92l-9 -8
l-50 6q17 -26 17 -57q0 -65 -45.5 -107t-125.5 -49q-95 -9 -95 -35q0 -11 21 -18t79 -15q108 -14 156.5 -50t48.5 -101q0 -73 -62.5 -113t-177.5 -40zM244 228q41 0 65 20t24 54q0 35 -24.5 55.5t-64.5 20.5t-64.5 -20.5t-24.5 -55.5q0 -34 24 -54t65 -20zM249 -139
q117 0 117 58q0 48 -112 59q-28 4 -48 7q-79 -18 -79 -62q0 -29 32.5 -45.5t89.5 -16.5z" />
    <glyph glyph-name="Gdotaccent" unicode="&#x120;" horiz-adv-x="823" 
d="M423 772q-35 0 -58.5 21.5t-23.5 55.5q0 33 23.5 54.5t58.5 21.5q36 0 59 -22t23 -55t-23 -54.5t-59 -21.5zM399 -19q-153 0 -252.5 104t-99.5 266q0 165 107 270.5t269 105.5q224 0 326 -178l-105 -67l-17 4q-36 57 -83.5 83t-115.5 26q-100 0 -164.5 -68.5
t-64.5 -175.5q0 -105 62.5 -173.5t160.5 -68.5q84 0 141.5 41t64.5 117v4h-173v109h302v-380h-127v33q0 34 12 70l-2 1q-78 -123 -241 -123z" />
    <glyph glyph-name="gdotaccent" unicode="&#x121;" horiz-adv-x="510" 
d="M255 533q-35 0 -58.5 21.5t-23.5 55.5q0 33 23.5 54.5t58.5 21.5q36 0 59 -22t23 -55t-23 -54.5t-59 -21.5zM247 -230q-116 0 -179.5 38t-63.5 107q0 75 98 107q-35 22 -35 59q0 56 76 75q-47 17 -75 56.5t-28 90.5q0 72 58 119t147 46q52 0 96 -19h146l3 -92l-9 -8
l-50 6q17 -26 17 -57q0 -65 -45.5 -107t-125.5 -49q-95 -9 -95 -35q0 -11 21 -18t79 -15q108 -14 156.5 -50t48.5 -101q0 -73 -62.5 -113t-177.5 -40zM244 228q41 0 65 20t24 54q0 35 -24.5 55.5t-64.5 20.5t-64.5 -20.5t-24.5 -55.5q0 -34 24 -54t65 -20zM249 -139
q117 0 117 58q0 48 -112 59q-28 4 -48 7q-79 -18 -79 -62q0 -29 32.5 -45.5t89.5 -16.5z" />
    <glyph glyph-name="Gcommaaccent" unicode="&#x122;" horiz-adv-x="823" 
d="M399 -19q-153 0 -252.5 104t-99.5 266q0 165 107 270.5t269 105.5q224 0 326 -178l-105 -67l-17 4q-36 57 -83.5 83t-115.5 26q-100 0 -164.5 -68.5t-64.5 -175.5q0 -105 62.5 -173.5t160.5 -68.5q84 0 141.5 41t64.5 117v4h-173v109h302v-380h-127v33q0 34 12 70l-2 1
q-78 -123 -241 -123zM404 -278l-87 34l59 193l12 6l110 -43z" />
    <glyph glyph-name="gcommaaccent" unicode="&#x123;" horiz-adv-x="510" 
d="M260 771l84 -33l-59 -193l-11 -6l-108 42zM247 -230q-116 0 -179.5 38t-63.5 107q0 75 98 107q-35 22 -35 59q0 56 76 75q-47 17 -75 56.5t-28 90.5q0 72 58 119t147 46q52 0 96 -19h146l3 -92l-9 -8l-50 6q17 -26 17 -57q0 -65 -45.5 -107t-125.5 -49q-95 -9 -95 -35
q0 -11 21 -18t79 -15q108 -14 156.5 -50t48.5 -101q0 -73 -62.5 -113t-177.5 -40zM244 228q41 0 65 20t24 54q0 35 -24.5 55.5t-64.5 20.5t-64.5 -20.5t-24.5 -55.5q0 -34 24 -54t65 -20zM249 -139q117 0 117 58q0 48 -112 59q-28 4 -48 7q-79 -18 -79 -62q0 -29 32.5 -45.5
t89.5 -16.5z" />
    <glyph glyph-name="Hbar" unicode="&#x126;" horiz-adv-x="744" 
d="M667 617h52v-84h-52v-533h-140v295h-310v-295h-140v533h-51v84h51v91h140v-91h310v91h140v-91zM527 420v113h-310v-113h310z" />
    <glyph glyph-name="hbar" unicode="&#x127;" horiz-adv-x="580" 
d="M355 468q77 0 120 -46t43 -132v-290h-133v246q0 58 -19.5 83t-62.5 25q-46 0 -74.5 -37t-28.5 -97v-220h-133v546h-58v95h58v92h133v-92h137v-95h-137v-27q0 -98 -2 -144q58 93 157 93z" />
    <glyph glyph-name="Itilde" unicode="&#x128;" horiz-adv-x="295" 
d="M220 801q41 0 69.5 35t33.5 91h-64l-8 -6q-8 -39 -36 -39q-19 0 -65.5 22.5t-73.5 22.5q-41 0 -69.5 -35t-33.5 -91h65l7 6q10 39 36 39q19 0 64.5 -22.5t74.5 -22.5zM77 708h140v-708h-140v708z" />
    <glyph glyph-name="itilde" unicode="&#x129;" horiz-adv-x="267" 
d="M206 542q41 0 69.5 35t33.5 91h-64l-8 -6q-8 -39 -36 -39q-19 0 -65.5 22.5t-73.5 22.5q-41 0 -69.5 -35t-33.5 -91h65l7 6q10 39 36 39q19 0 64.5 -22.5t74.5 -22.5zM67 0v449h133v-449h-133z" />
    <glyph glyph-name="Imacron" unicode="&#x12a;" horiz-adv-x="295" 
d="M-3 796v82h302v-82h-302zM77 708h140v-708h-140v708z" />
    <glyph glyph-name="imacron" unicode="&#x12b;" horiz-adv-x="267" 
d="M-17 569v83h302v-83h-302zM67 0v449h133v-449h-133z" />
    <glyph glyph-name="Ibreve" unicode="&#x12c;" horiz-adv-x="295" 
d="M148 794q-73 0 -117.5 35.5t-48.5 99.5l8 7h72q12 -60 86 -60q73 0 85 60h72l9 -7q-5 -64 -49 -99.5t-117 -35.5zM77 708h140v-708h-140v708z" />
    <glyph glyph-name="ibreve" unicode="&#x12d;" horiz-adv-x="267" 
d="M134 535q-73 0 -117.5 35.5t-48.5 99.5l8 7h72q12 -60 86 -60q73 0 85 60h72l9 -7q-5 -64 -49 -99.5t-117 -35.5zM67 0v449h133v-449h-133z" />
    <glyph glyph-name="Iogonek" unicode="&#x12e;" horiz-adv-x="295" 
d="M217 -136l22 -65q-46 -29 -102 -29q-48 0 -78 24t-30 63q0 76 100 143h-52v708h140v-708h-18q-78 -62 -78 -116q0 -17 11.5 -28t28.5 -11q22 0 50 18z" />
    <glyph glyph-name="iogonek" unicode="&#x12f;" horiz-adv-x="267" 
d="M134 533q-35 0 -58.5 21.5t-23.5 55.5q0 33 23.5 54.5t58.5 21.5q36 0 59 -22t23 -55t-23 -54.5t-59 -21.5zM205 -136l22 -65q-46 -29 -102 -29q-48 0 -78 24t-30 63q0 76 100 143h-50v449h133v-449h-13q-78 -62 -78 -116q0 -17 11.5 -28t28.5 -11q22 0 50 18z" />
    <glyph glyph-name="Idotaccent" unicode="&#x130;" horiz-adv-x="295" 
d="M148 772q-35 0 -58.5 21.5t-23.5 55.5q0 33 23.5 54.5t58.5 21.5q36 0 59 -22t23 -55t-23 -54.5t-59 -21.5zM77 708h140v-708h-140v708z" />
    <glyph glyph-name="dotlessi" unicode="&#x131;" horiz-adv-x="267" 
d="M67 0v449h133v-449h-133z" />
    <glyph glyph-name="IJ" unicode="&#x132;" horiz-adv-x="811" 
d="M77 708h140v-708h-140v708zM436 177q18 -69 81 -69q82 0 82 125v475h140v-478q0 -120 -55.5 -184.5t-157.5 -64.5q-82 0 -140.5 42.5t-76.5 113.5l110 45z" />
    <glyph glyph-name="ij" unicode="&#x133;" horiz-adv-x="535" 
d="M134 564q-36 0 -59 21.5t-23 55.5q0 33 23 54.5t59 21.5t59 -22t23 -55t-23.5 -54.5t-58.5 -21.5zM402 564q-36 0 -59.5 21.5t-23.5 55.5q0 33 23.5 54.5t59.5 21.5t59 -22t23 -55t-23.5 -54.5t-58.5 -21.5zM67 0v449h133v-449h-133zM298 -230q-42 0 -78 13l13 104l8 4
q19 -7 37 -7q31 0 44 20t13 71v474h133v-483q0 -101 -42 -148.5t-128 -47.5z" />
    <glyph glyph-name="Kcommaaccent" unicode="&#x136;" horiz-adv-x="670" 
d="M514 0l-198 298l-99 -110v-188h-140v708h140v-123q0 -107 -5 -227h2q65 84 131 160l158 190h169l-262 -302l273 -406h-169zM334 -278l-87 34l59 193l12 6l110 -43z" />
    <glyph glyph-name="kcommaaccent" unicode="&#x137;" horiz-adv-x="545" 
d="M391 0l-137 189l-54 -51v-138h-133v733h133v-201q0 -148 -6 -258q31 33 89 93l78 82h164l-182 -175l202 -274h-154zM269 -278l-87 34l59 193l12 6l110 -43z" />
    <glyph glyph-name="kgreenlandic" unicode="&#x138;" horiz-adv-x="545" 
d="M391 0l-137 189l-54 -51v-138h-133v449h133v-17q0 -78 -6 -158q31 33 89 93l78 82h164l-182 -175l202 -274h-154z" />
    <glyph glyph-name="Lacute" unicode="&#x139;" horiz-adv-x="547" 
d="M46 764l96 134h123l5 -8l-124 -126h-100zM77 708h140v-581h316l-16 -127h-440v708z" />
    <glyph glyph-name="lacute" unicode="&#x13a;" horiz-adv-x="267" 
d="M32 764l96 134h123l5 -8l-124 -126h-100zM67 0v733h133v-733h-133z" />
    <glyph glyph-name="Lcommaaccent" unicode="&#x13b;" horiz-adv-x="547" 
d="M77 708h140v-581h316l-16 -127h-440v708zM269 -278l-87 34l59 193l12 6l110 -43z" />
    <glyph glyph-name="lcommaaccent" unicode="&#x13c;" horiz-adv-x="267" 
d="M67 0v733h133v-733h-133zM130 -278l-87 34l59 193l12 6l110 -43z" />
    <glyph glyph-name="Lcaron" unicode="&#x13d;" horiz-adv-x="549" 
d="M365 495l-79 30l68 196l12 6l95 -36zM77 708h140v-581h316l-16 -127h-440v708z" />
    <glyph glyph-name="lcaron" unicode="&#x13e;" horiz-adv-x="424" 
d="M67 0v733h133v-733h-133zM325 495l-79 30l68 196l12 6l95 -36z" />
    <glyph glyph-name="Ldot" unicode="&#x13f;" horiz-adv-x="547" 
d="M77 708h140v-581h316l-16 -127h-440v708zM344 331q-15 15 -15.5 35.5t14.5 35.5q14 15 35 15t35 -14q15 -15 15.5 -35.5t-14.5 -35.5q-14 -15 -34.5 -15t-35.5 14z" />
    <glyph glyph-name="ldot" unicode="&#x140;" horiz-adv-x="354" 
d="M67 0v733h133v-733h-133zM276 355q-15 14 -15.5 35t14.5 35q14 15 35 15.5t35 -14.5q15 -14 15.5 -35t-14.5 -35q-14 -15 -34.5 -15.5t-35.5 14.5z" />
    <glyph glyph-name="Lslash" unicode="&#x141;" horiz-adv-x="547" 
d="M217 127h316l-16 -127h-440v268l-71 -39v97l71 39v343h140v-265l145 81v-97l-145 -81v-219z" />
    <glyph glyph-name="lslash" unicode="&#x142;" horiz-adv-x="267" 
d="M259 508v-94l-59 -35v-379h-133v300l-58 -35v95l58 34v339h133v-260z" />
    <glyph glyph-name="Nacute" unicode="&#x143;" horiz-adv-x="785" 
d="M301 764l96 134h123l5 -8l-124 -126h-100zM77 0v708h128l246 -300q85 -108 122 -158h3q-8 72 -8 178v280h140v-717h-99l-273 327q-60 73 -125 158h-2q7 -72 7 -178v-298h-139z" />
    <glyph glyph-name="nacute" unicode="&#x144;" horiz-adv-x="585" 
d="M202 534l107 184h131l5 -8l-143 -176h-100zM67 449h131v-74q58 93 157 93q77 0 120 -46t43 -132v-290h-133v246q0 58 -19.5 83t-62.5 25q-46 0 -74.5 -37t-28.5 -97v-220h-133v449z" />
    <glyph glyph-name="Ncommaaccent" unicode="&#x145;" horiz-adv-x="785" 
d="M77 0v708h128l246 -300q85 -108 122 -158h3q-8 72 -8 178v280h140v-717h-99l-273 327q-60 73 -125 158h-2q7 -72 7 -178v-298h-139zM389 -278l-87 34l59 193l12 6l110 -43z" />
    <glyph glyph-name="ncommaaccent" unicode="&#x146;" horiz-adv-x="585" 
d="M67 449h131v-74q58 93 157 93q77 0 120 -46t43 -132v-290h-133v246q0 58 -19.5 83t-62.5 25q-46 0 -74.5 -37t-28.5 -97v-220h-133v449zM286 -278l-87 34l59 193l12 6l110 -43z" />
    <glyph glyph-name="Ncaron" unicode="&#x147;" horiz-adv-x="785" 
d="M344 764l-108 125l7 9h87l73 -83l72 83h88l7 -9l-108 -125h-118zM77 0v708h128l246 -300q85 -108 122 -158h3q-8 72 -8 178v280h140v-717h-99l-273 327q-60 73 -125 158h-2q7 -72 7 -178v-298h-139z" />
    <glyph glyph-name="ncaron" unicode="&#x148;" horiz-adv-x="585" 
d="M293 598l77 120h89l7 -9l-112 -175h-122l-111 175l6 9h89zM67 449h131v-74q58 93 157 93q77 0 120 -46t43 -132v-290h-133v246q0 58 -19.5 83t-62.5 25q-46 0 -74.5 -37t-28.5 -97v-220h-133v449z" />
    <glyph glyph-name="Eng" unicode="&#x14a;" horiz-adv-x="785" 
d="M538 -230q-42 0 -79 13l14 106l8 4q19 -7 37 -7q28 0 40.5 18t12.5 60v72l-235 282q-48 56 -125 158h-2q7 -78 7 -178v-298h-139v708h128l246 -300q85 -108 122 -158h3q-8 77 -8 178v280h140v-740q0 -102 -42 -150t-128 -48z" />
    <glyph glyph-name="eng" unicode="&#x14b;" horiz-adv-x="585" 
d="M355 468q77 0 120 -46t43 -132v-332q-2 -97 -44 -142.5t-126 -45.5q-42 0 -78 13l13 104l8 4q19 -7 37 -7q31 0 44 20t13 71v271q0 58 -19.5 83t-62.5 25q-46 0 -74.5 -37t-28.5 -97v-220h-133v449h131v-74q58 93 157 93z" />
    <glyph glyph-name="Omacron" unicode="&#x14c;" horiz-adv-x="860" 
d="M279 796v82h302v-82h-302zM430 -19q-165 0 -274 106.5t-109 266.5q0 161 108 267t275 106t275 -106t108 -267q0 -160 -109 -266.5t-274 -106.5zM430 112q101 0 168 69.5t67 172.5q0 105 -66.5 174t-168.5 69t-168.5 -69t-66.5 -174q0 -103 67 -172.5t168 -69.5z" />
    <glyph glyph-name="omacron" unicode="&#x14d;" horiz-adv-x="583" 
d="M141 569v83h302v-83h-302zM292 -19q-109 0 -182 70t-73 174t72.5 173.5t182.5 69.5q109 0 181.5 -69.5t72.5 -173.5t-72.5 -174t-181.5 -70zM292 95q51 0 86 37.5t35 92.5q0 56 -34.5 93t-86.5 37q-53 0 -87.5 -37t-34.5 -93q0 -55 35 -92.5t87 -37.5z" />
    <glyph glyph-name="Obreve" unicode="&#x14e;" horiz-adv-x="860" 
d="M430 794q-73 0 -117.5 35.5t-48.5 99.5l8 7h72q12 -60 86 -60q73 0 85 60h72l9 -7q-5 -64 -49 -99.5t-117 -35.5zM430 -19q-165 0 -274 106.5t-109 266.5q0 161 108 267t275 106t275 -106t108 -267q0 -160 -109 -266.5t-274 -106.5zM430 112q101 0 168 69.5t67 172.5
q0 105 -66.5 174t-168.5 69t-168.5 -69t-66.5 -174q0 -103 67 -172.5t168 -69.5z" />
    <glyph glyph-name="obreve" unicode="&#x14f;" horiz-adv-x="583" 
d="M292 535q-73 0 -117.5 35.5t-48.5 99.5l8 7h72q12 -60 86 -60q73 0 85 60h72l9 -7q-5 -64 -49 -99.5t-117 -35.5zM292 -19q-109 0 -182 70t-73 174t72.5 173.5t182.5 69.5q109 0 181.5 -69.5t72.5 -173.5t-72.5 -174t-181.5 -70zM292 95q51 0 86 37.5t35 92.5
q0 56 -34.5 93t-86.5 37q-53 0 -87.5 -37t-34.5 -93q0 -55 35 -92.5t87 -37.5z" />
    <glyph glyph-name="Ohungarumlaut" unicode="&#x150;" horiz-adv-x="860" 
d="M270 764l95 134h123l5 -8l-123 -126h-100zM467 764l94 134h124l5 -8l-124 -126h-99zM430 -19q-165 0 -274 106.5t-109 266.5q0 161 108 267t275 106t275 -106t108 -267q0 -160 -109 -266.5t-274 -106.5zM430 112q101 0 168 69.5t67 172.5q0 105 -66.5 174t-168.5 69
t-168.5 -69t-66.5 -174q0 -103 67 -172.5t168 -69.5z" />
    <glyph glyph-name="ohungarumlaut" unicode="&#x151;" horiz-adv-x="583" 
d="M146 534l110 184h124l5 -8l-139 -176h-100zM338 534l111 184h123l5 -8l-139 -176h-100zM292 -19q-109 0 -182 70t-73 174t72.5 173.5t182.5 69.5q109 0 181.5 -69.5t72.5 -173.5t-72.5 -174t-181.5 -70zM292 95q51 0 86 37.5t35 92.5q0 56 -34.5 93t-86.5 37
q-53 0 -87.5 -37t-34.5 -93q0 -55 35 -92.5t87 -37.5z" />
    <glyph glyph-name="OE" unicode="&#x152;" horiz-adv-x="1030" 
d="M670 302v-181h303l-14 -121h-402q-57 -19 -127 -19q-165 0 -274 106.5t-109 266.5q0 161 108 267t275 106q65 0 128 -19h401l14 -121h-303v-168h275v-117h-275zM195 354q0 -103 67 -172.5t168 -69.5q56 0 100 24v438q-48 23 -100 23q-102 0 -168.5 -69t-66.5 -174z" />
    <glyph glyph-name="oe" unicode="&#x153;" horiz-adv-x="922" 
d="M289 -19q-108 0 -180 70t-72 174t71.5 173.5t180.5 69.5q117 0 180 -85h2q67 85 177 85q105 0 169 -66.5t64 -178.5q0 -10 -1 -20h-340v-6q0 -53 31.5 -84.5t81.5 -31.5q62 0 103 63l9 3l104 -41q-64 -125 -220 -125q-119 0 -181 84h-3q-66 -84 -176 -84zM542 273h206
q-3 46 -30 72.5t-71 26.5q-42 0 -70.5 -26t-34.5 -73zM289 95q52 0 85.5 37t33.5 93t-33 93t-86 37q-52 0 -85.5 -37t-33.5 -93t33.5 -93t85.5 -37z" />
    <glyph glyph-name="Racute" unicode="&#x154;" horiz-adv-x="638" 
d="M438 890l-124 -126h-100l96 134h123zM438 302l204 -285l-7 -17h-146l-191 281h-79v-281h-142v707h237q256 0 256 -217q0 -141 -132 -188zM219 592v-201h80q69 0 101 23.5t32 75.5q0 54 -32 78t-101 24h-80z" />
    <glyph glyph-name="racute" unicode="&#x155;" horiz-adv-x="446" 
d="M132 534l107 184h131l5 -8l-143 -176h-100zM67 0v449h124v-81q54 100 141 100q81 0 108 -92l-109 -61l-9 3q-13 32 -43 32q-32 0 -55.5 -39t-23.5 -106v-205h-133z" />
    <glyph glyph-name="Rcommaaccent" unicode="&#x156;" horiz-adv-x="638" 
d="M438 302l204 -285l-7 -17h-146l-191 281h-79v-281h-142v707h237q256 0 256 -217q0 -141 -132 -188zM219 592v-201h80q69 0 101 23.5t32 75.5q0 54 -32 78t-101 24h-80zM287 -51l12 6l110 -43l-94 -190l-87 34z" />
    <glyph glyph-name="rcommaaccent" unicode="&#x157;" horiz-adv-x="446" 
d="M67 0v449h124v-81q54 100 141 100q81 0 108 -92l-109 -61l-9 3q-13 32 -43 32q-32 0 -55.5 -39t-23.5 -106v-205h-133zM113 -278l-87 34l59 193l12 6l110 -43z" />
    <glyph glyph-name="Rcaron" unicode="&#x158;" horiz-adv-x="638" 
d="M375 764h-118l-108 125l7 9h87l73 -83l72 83h88l7 -9zM438 302l204 -285l-7 -17h-146l-191 281h-79v-281h-142v707h237q256 0 256 -217q0 -141 -132 -188zM219 592v-201h80q69 0 101 23.5t32 75.5q0 54 -32 78t-101 24h-80z" />
    <glyph glyph-name="rcaron" unicode="&#x159;" horiz-adv-x="446" 
d="M223 598l77 120h89l7 -9l-112 -175h-122l-111 175l6 9h89zM67 0v449h124v-81q54 100 141 100q81 0 108 -92l-109 -61l-9 3q-13 32 -43 32q-32 0 -55.5 -39t-23.5 -106v-205h-133z" />
    <glyph glyph-name="Sacute" unicode="&#x15a;" horiz-adv-x="583" 
d="M191 764l96 134h123l5 -8l-124 -126h-100zM292 -19q-174 0 -261 147l97 68l18 -5q54 -90 145 -90q47 0 76.5 24.5t29.5 61.5t-30.5 64.5t-119.5 65.5q-103 43 -146 93.5t-43 124.5q0 82 65.5 137t170.5 55q156 0 233 -120l-96 -70l-18 4q-45 67 -119 67q-43 0 -67 -20
t-24 -52q0 -31 27.5 -53.5t118.5 -62.5q108 -48 150.5 -99t42.5 -124q0 -92 -71 -154t-179 -62z" />
    <glyph glyph-name="sacute" unicode="&#x15b;" horiz-adv-x="435" 
d="M127 534l107 184h131l5 -8l-143 -176h-100zM214 -19q-135 0 -192 104l78 52l7 -1q38 -62 100 -62q30 0 47.5 12.5t17.5 32.5q0 18 -19 33.5t-71 33.5q-79 29 -110 63t-31 84q0 59 47.5 97t127.5 38q62 0 110 -27t68 -72l-74 -48l-9 1q-26 53 -86 53q-26 0 -41 -11.5
t-15 -28.5q0 -18 17 -31.5t74 -35.5q77 -30 108 -64t31 -85q0 -61 -50.5 -99.5t-134.5 -38.5z" />
    <glyph glyph-name="Scedilla" unicode="&#x15e;" horiz-adv-x="583" 
d="M542 197q0 -82 -58 -142t-151 -71l-34 -50q12 3 28 3q38 0 63 -21t25 -55q0 -44 -36.5 -69.5t-99.5 -25.5t-109 23l21 53l10 3q38 -19 75 -19q22 0 35.5 9t13.5 25q0 30 -48 30q-25 0 -42 -7l-25 23l51 76q-151 12 -230 146l97 68l18 -5q54 -90 145 -90q47 0 76.5 24.5
t29.5 61.5t-30.5 64.5t-119.5 65.5q-103 43 -146 93.5t-43 124.5q0 82 65.5 137t170.5 55q156 0 233 -120l-96 -70l-18 4q-45 67 -119 67q-43 0 -67 -20t-24 -52q0 -31 27.5 -53.5t118.5 -62.5q108 -48 150.5 -99t42.5 -124z" />
    <glyph glyph-name="scedilla" unicode="&#x15f;" horiz-adv-x="435" 
d="M399 119q0 -52 -37.5 -88.5t-102.5 -46.5l-34 -50q12 3 28 3q38 0 63 -21t25 -55q0 -44 -36.5 -69.5t-99.5 -25.5t-109 23l21 53l10 3q38 -19 75 -19q22 0 35.5 9t13.5 25q0 30 -48 30q-25 0 -42 -7l-25 23l51 76q-115 11 -165 103l78 52l7 -1q38 -62 100 -62
q30 0 47.5 12.5t17.5 32.5q0 18 -19 33.5t-71 33.5q-79 29 -110 63t-31 84q0 59 47.5 97t127.5 38q62 0 110 -27t68 -72l-74 -48l-9 1q-26 53 -86 53q-26 0 -41 -11.5t-15 -28.5q0 -18 17 -31.5t74 -35.5q77 -30 108 -64t31 -85z" />
    <glyph glyph-name="Scaron" unicode="&#x160;" horiz-adv-x="583" 
d="M234 764l-108 125l7 9h87l73 -83l72 83h88l7 -9l-108 -125h-118zM292 -19q-174 0 -261 147l97 68l18 -5q54 -90 145 -90q47 0 76.5 24.5t29.5 61.5t-30.5 64.5t-119.5 65.5q-103 43 -146 93.5t-43 124.5q0 82 65.5 137t170.5 55q156 0 233 -120l-96 -70l-18 4
q-45 67 -119 67q-43 0 -67 -20t-24 -52q0 -31 27.5 -53.5t118.5 -62.5q108 -48 150.5 -99t42.5 -124q0 -92 -71 -154t-179 -62z" />
    <glyph glyph-name="scaron" unicode="&#x161;" horiz-adv-x="435" 
d="M218 598l77 120h89l7 -9l-112 -175h-122l-111 175l6 9h89zM214 -19q-135 0 -192 104l78 52l7 -1q38 -62 100 -62q30 0 47.5 12.5t17.5 32.5q0 18 -19 33.5t-71 33.5q-79 29 -110 63t-31 84q0 59 47.5 97t127.5 38q62 0 110 -27t68 -72l-74 -48l-9 1q-26 53 -86 53
q-26 0 -41 -11.5t-15 -28.5q0 -18 17 -31.5t74 -35.5q77 -30 108 -64t31 -85q0 -61 -50.5 -99.5t-134.5 -38.5z" />
    <glyph glyph-name="uni0162" unicode="&#x162;" horiz-adv-x="618" 
d="M289 -234q-59 0 -109 23l21 53l9 3q38 -19 76 -19q22 0 35 9t13 25q0 30 -47 30q-25 0 -42 -7l-26 23l65 94h-46v581h-228v127h598v-127h-228v-581h-27l-44 -66q12 3 27 3q39 0 63.5 -21t24.5 -55q0 -44 -36 -69.5t-99 -25.5z" />
    <glyph glyph-name="uni0163" unicode="&#x163;" horiz-adv-x="376" 
d="M244 -63q38 0 63 -21t25 -55q0 -44 -36.5 -69.5t-99.5 -25.5t-109 23l21 53l10 3q38 -19 75 -19q22 0 35.5 9t13.5 25q0 30 -48 30q-25 0 -42 -7l-25 23l57 85q-90 29 -90 142v213h-81v103h82v119l104 61h28v-180h123v-103h-123v-179q0 -41 14 -56.5t49 -15.5q22 0 49 12
l9 -5l3 -104q-43 -17 -98 -17h-5l-32 -47q12 3 28 3z" />
    <glyph glyph-name="Tcaron" unicode="&#x164;" horiz-adv-x="618" 
d="M250 764l-108 125l7 9h87l73 -83l72 83h88l7 -9l-108 -125h-118zM238 581h-228v127h598v-127h-228v-581h-142v581z" />
    <glyph glyph-name="tcaron" unicode="&#x165;" horiz-adv-x="432" 
d="M359 495l-79 30l68 196l12 6l95 -36zM348 102l3 -104q-43 -17 -98 -17q-78 0 -118.5 38.5t-40.5 113.5v213h-81v103h82v119l104 61h28v-180h123v-103h-123v-179q0 -41 14 -56.5t49 -15.5q22 0 49 12z" />
    <glyph glyph-name="Tbar" unicode="&#x166;" horiz-adv-x="618" 
d="M608 581h-228v-187h117v-95h-117v-299h-142v299h-117v95h117v187h-228v127h598v-127z" />
    <glyph glyph-name="tbar" unicode="&#x167;" horiz-adv-x="376" 
d="M348 102l3 -104q-43 -17 -98 -17q-78 0 -118.5 38.5t-40.5 113.5v96h-66v55h66v62h-81v103h82v119l104 61h28v-180h123v-103h-123v-62h105v-55h-105v-62q0 -41 14 -56.5t49 -15.5q22 0 49 12z" />
    <glyph glyph-name="Utilde" unicode="&#x168;" horiz-adv-x="737" 
d="M441 801q41 0 69.5 35t33.5 91h-64l-8 -6q-8 -39 -36 -39q-19 0 -65.5 22.5t-73.5 22.5q-41 0 -69.5 -35t-33.5 -91h65l7 6q10 39 36 39q19 0 64.5 -22.5t74.5 -22.5zM369 -19q-297 0 -297 310v417h140v-405q0 -101 37.5 -146t119.5 -45t119 45t37 147v404h140v-417
q0 -150 -75 -230t-221 -80z" />
    <glyph glyph-name="utilde" unicode="&#x169;" horiz-adv-x="576" 
d="M360 544q41 0 69.5 35t33.5 91h-64l-8 -6q-8 -39 -36 -39q-19 0 -65.5 22.5t-73.5 22.5q-41 0 -69.5 -35t-33.5 -91h65l7 6q10 39 36 39q19 0 64.5 -22.5t74.5 -22.5zM508 0h-130v73q-57 -92 -155 -92q-73 0 -114.5 47t-41.5 135v286h133v-250q0 -104 77 -104
q43 0 70.5 36.5t27.5 98.5v219h133v-449z" />
    <glyph glyph-name="Umacron" unicode="&#x16a;" horiz-adv-x="737" 
d="M218 796v82h302v-82h-302zM369 -19q-297 0 -297 310v417h140v-405q0 -101 37.5 -146t119.5 -45t119 45t37 147v404h140v-417q0 -150 -75 -230t-221 -80z" />
    <glyph glyph-name="umacron" unicode="&#x16b;" horiz-adv-x="576" 
d="M137 571v83h302v-83h-302zM508 0h-130v73q-57 -92 -155 -92q-73 0 -114.5 47t-41.5 135v286h133v-250q0 -104 77 -104q43 0 70.5 36.5t27.5 98.5v219h133v-449z" />
    <glyph glyph-name="Ubreve" unicode="&#x16c;" horiz-adv-x="737" 
d="M369 794q-73 0 -117.5 35.5t-48.5 99.5l8 7h72q12 -60 86 -60q73 0 85 60h72l9 -7q-5 -64 -49 -99.5t-117 -35.5zM369 -19q-297 0 -297 310v417h140v-405q0 -101 37.5 -146t119.5 -45t119 45t37 147v404h140v-417q0 -150 -75 -230t-221 -80z" />
    <glyph glyph-name="ubreve" unicode="&#x16d;" horiz-adv-x="576" 
d="M288 537q-73 0 -117.5 35.5t-48.5 99.5l8 7h72q12 -60 86 -60q73 0 85 60h72l9 -7q-5 -64 -49 -99.5t-117 -35.5zM508 0h-130v73q-57 -92 -155 -92q-73 0 -114.5 47t-41.5 135v286h133v-250q0 -104 77 -104q43 0 70.5 36.5t27.5 98.5v219h133v-449z" />
    <glyph glyph-name="Uring" unicode="&#x16e;" horiz-adv-x="737" 
d="M369 753q-43 0 -73 29.5t-30 73.5q0 43 30 72.5t73 29.5t73.5 -29.5t30.5 -72.5q0 -44 -30.5 -73.5t-73.5 -29.5zM369 798q25 0 41.5 17t16.5 41t-16.5 40.5t-41.5 16.5t-41 -16.5t-16 -40.5t16.5 -41t40.5 -17zM369 -19q-297 0 -297 310v417h140v-405q0 -101 37.5 -146
t119.5 -45t119 45t37 147v404h140v-417q0 -150 -75 -230t-221 -80z" />
    <glyph glyph-name="uring" unicode="&#x16f;" horiz-adv-x="576" 
d="M288 525q-43 0 -73 29.5t-30 73.5q0 43 30 72.5t73 29.5t73.5 -29.5t30.5 -72.5q0 -44 -30.5 -73.5t-73.5 -29.5zM288 570q25 0 41.5 17t16.5 41t-16.5 40.5t-41.5 16.5t-41 -16.5t-16 -40.5t16.5 -41t40.5 -17zM508 0h-130v73q-57 -92 -155 -92q-73 0 -114.5 47
t-41.5 135v286h133v-250q0 -104 77 -104q43 0 70.5 36.5t27.5 98.5v219h133v-449z" />
    <glyph glyph-name="Uhungarumlaut" unicode="&#x170;" horiz-adv-x="737" 
d="M209 764l95 134h123l5 -8l-123 -126h-100zM406 764l94 134h124l5 -8l-124 -126h-99zM369 -19q-297 0 -297 310v417h140v-405q0 -101 37.5 -146t119.5 -45t119 45t37 147v404h140v-417q0 -150 -75 -230t-221 -80z" />
    <glyph glyph-name="uhungarumlaut" unicode="&#x171;" horiz-adv-x="576" 
d="M142 536l110 184h124l5 -8l-139 -176h-100zM334 536l111 184h123l5 -8l-139 -176h-100zM508 0h-130v73q-57 -92 -155 -92q-73 0 -114.5 47t-41.5 135v286h133v-250q0 -104 77 -104q43 0 70.5 36.5t27.5 98.5v219h133v-449z" />
    <glyph glyph-name="Uogonek" unicode="&#x172;" horiz-adv-x="737" 
d="M525 708h140v-417q0 -231 -171 -291q-78 -62 -78 -116q0 -17 11.5 -28t28.5 -11q22 0 50 18l6 1l22 -65q-46 -29 -102 -29q-48 0 -78 24t-30 63q0 65 75 125q-10 -1 -30 -1q-297 0 -297 310v417h140v-405q0 -101 37.5 -146t119.5 -45t119 45t37 147v404z" />
    <glyph glyph-name="uogonek" unicode="&#x173;" horiz-adv-x="576" 
d="M505 -136l22 -65q-46 -29 -102 -29q-48 0 -78 24t-30 63q0 76 100 143h-39v73q-57 -92 -155 -92q-73 0 -114.5 47t-41.5 135v286h133v-250q0 -104 77 -104q43 0 70.5 36.5t27.5 98.5v219h133v-449h-21q-78 -62 -78 -116q0 -17 11.5 -28t28.5 -11q22 0 50 18z" />
    <glyph glyph-name="Wcircumflex" unicode="&#x174;" horiz-adv-x="982" 
d="M491 847l-77 -83h-88l-6 9l112 125h118l113 -125l-7 -9h-88zM229 -9l-218 717h154l92 -354q23 -86 37 -154h3q10 36 45 155l109 349h80l109 -349q35 -119 45 -155h3q14 68 37 154l92 354h154l-218 -717h-116l-104 329q-11 34 -40 130h-4q-19 -69 -39 -129l-105 -330h-116
z" />
    <glyph glyph-name="wcircumflex" unicode="&#x175;" horiz-adv-x="739" 
d="M370 654l-77 -120h-89l-6 9l111 175h122l112 -175l-7 -9h-89zM174 -10l-160 459h139l81 -286h2l103 283h63l101 -283h2l82 286h138l-160 -459h-90l-104 272h-2l-105 -272h-90z" />
    <glyph glyph-name="Ycircumflex" unicode="&#x176;" horiz-adv-x="636" 
d="M318 847l-77 -83h-88l-6 9l112 125h118l113 -125l-7 -9h-88zM248 0v285l-250 423h165l84 -167l70 -141h3l69 141l84 167h165l-250 -423v-285h-140z" />
    <glyph glyph-name="ycircumflex" unicode="&#x177;" horiz-adv-x="524" 
d="M270 654l-77 -120h-89l-6 9l111 175h122l112 -175l-7 -9h-89zM75 -218l121 253l-185 414h155l97 -296h2l106 296h149l-301 -667h-144z" />
    <glyph glyph-name="Ydieresis" unicode="&#x178;" horiz-adv-x="636" 
d="M146 844q0 28 20.5 48t48.5 20q29 0 48.5 -20t19.5 -48q0 -30 -19.5 -49.5t-48.5 -19.5t-49 19.5t-20 49.5zM353 844q0 28 20.5 48t48.5 20q29 0 49 -20t20 -48q0 -30 -20 -49.5t-49 -19.5t-49 19.5t-20 49.5zM248 0v285l-250 423h165l84 -167l70 -141h3l69 141l84 167
h165l-250 -423v-285h-140z" />
    <glyph glyph-name="Zacute" unicode="&#x179;" horiz-adv-x="675" 
d="M236 764l96 134h123l5 -8l-124 -126h-100zM419 582h-378v126h618v-19l-404 -560h386v-129h-626v19z" />
    <glyph glyph-name="zacute" unicode="&#x17a;" horiz-adv-x="486" 
d="M152 534l107 184h131l5 -8l-143 -176h-100zM256 344h-222v105h427v-10l-233 -332h230v-107h-434v10z" />
    <glyph glyph-name="Zdotaccent" unicode="&#x17b;" horiz-adv-x="675" 
d="M338 772q-35 0 -58.5 21.5t-23.5 55.5q0 33 23.5 54.5t58.5 21.5q36 0 59 -22t23 -55t-23 -54.5t-59 -21.5zM419 582h-378v126h618v-19l-404 -560h386v-129h-626v19z" />
    <glyph glyph-name="zdotaccent" unicode="&#x17c;" horiz-adv-x="486" 
d="M243 533q-35 0 -58.5 21.5t-23.5 55.5q0 33 23.5 54.5t58.5 21.5q36 0 59 -22t23 -55t-23 -54.5t-59 -21.5zM256 344h-222v105h427v-10l-233 -332h230v-107h-434v10z" />
    <glyph glyph-name="Zcaron" unicode="&#x17d;" horiz-adv-x="675" 
d="M279 764l-108 125l7 9h87l73 -83l72 83h88l7 -9l-108 -125h-118zM419 582h-378v126h618v-19l-404 -560h386v-129h-626v19z" />
    <glyph glyph-name="zcaron" unicode="&#x17e;" horiz-adv-x="486" 
d="M243 598l77 120h89l7 -9l-112 -175h-122l-111 175l6 9h89zM256 344h-222v105h427v-10l-233 -332h230v-107h-434v10z" />
    <glyph glyph-name="florin" unicode="&#x192;" horiz-adv-x="700" 
d="M490 727q48 0 86 -14l-20 -106l-9 -4q-20 10 -41 10q-29 0 -44 -20t-22 -70l-13 -91h97l-14 -103h-97l-41 -289q-13 -100 -61.5 -147.5t-132.5 -47.5q-43 0 -82 15l27 105l8 3q19 -8 39 -8q31 0 47.5 20t23.5 71l39 278h-81l14 103h81l13 89q16 112 58.5 159t124.5 47z
" />
    <glyph glyph-name="Aringacute" unicode="&#x1fa;" horiz-adv-x="710" 
d="M477 1120l-124 -126h-100l96 134h123zM355 753q-43 0 -73 29.5t-30 73.5q0 43 30 72.5t73 29.5t73.5 -29.5t30.5 -72.5q0 -44 -30.5 -73.5t-73.5 -29.5zM355 913q-25 0 -41 -16.5t-16 -40.5t16.5 -41t40.5 -17q25 0 41.5 17t16.5 41t-16.5 40.5t-41.5 16.5zM554 0
l-55 150h-289l-54 -150h-161l286 708h151l283 -708h-161zM250 259h209l-61 167q-27 75 -42 142h-4q-15 -67 -42 -142z" />
    <glyph glyph-name="aringacute" unicode="&#x1fb;" horiz-adv-x="513" 
d="M408 949l-143 -176h-100l107 184h131zM256 523q-43 0 -73 29.5t-30 73.5q0 43 30 72.5t73 29.5t73.5 -29.5t30.5 -72.5q0 -44 -30.5 -73.5t-73.5 -29.5zM256 683q-25 0 -41 -16.5t-16 -40.5t16.5 -41t40.5 -17q25 0 41.5 17t16.5 41t-16.5 40.5t-41.5 16.5zM482 81l8 -5
v-80q-41 -12 -79 -12q-79 0 -93 61q-63 -64 -151 -64q-62 0 -97 31t-35 84q0 64 62.5 104.5t208.5 61.5v24q0 74 -64 74t-113 -66l-9 -1l-78 54q34 55 92 88t128 33q86 0 131 -43t45 -126v-199q0 -15 4.5 -20.5t15.5 -5.5q9 0 24 7zM161 111q0 -48 53 -48q48 0 92 41v94
q-79 -15 -112 -35t-33 -52z" />
    <glyph glyph-name="AEacute" unicode="&#x1fc;" horiz-adv-x="946" 
d="M560 764l96 134h123l5 -8l-124 -126h-100zM586 302v-181h302l-13 -121h-429v150h-208l-81 -150h-162l379 708h501l13 -121h-302v-168h274v-117h-274zM288 259h158v155q0 69 6 175h-3q-19 -60 -75 -180z" />
    <glyph glyph-name="aeacute" unicode="&#x1fd;" horiz-adv-x="808" 
d="M314 534l107 184h131l5 -8l-143 -176h-100zM167 -19q-62 0 -97 31t-35 84q0 65 62.5 104.5t208.5 59.5v26q0 74 -64 74t-113 -66l-9 -1l-78 54q34 55 91.5 88t125.5 33q95 0 132 -69h2q55 69 156 69q94 0 156.5 -67t62.5 -178q0 -10 -1 -20h-328q0 -55 29 -88.5t75 -33.5
q59 0 100 63l8 3l105 -41q-66 -125 -217 -125q-119 0 -186 89q-85 -89 -186 -89zM441 272h193q-2 47 -27.5 73.5t-64.5 26.5t-66.5 -26.5t-34.5 -73.5zM214 63q49 0 110 60q-12 33 -15 72q-81 -12 -114.5 -32t-33.5 -52q0 -48 53 -48z" />
    <glyph glyph-name="Oslashacute" unicode="&#x1fe;" horiz-adv-x="860" 
d="M552 890l-124 -126h-100l96 134h123zM698 627q115 -105 115 -273q0 -160 -109 -266.5t-274 -106.5q-125 0 -222 65l-51 -60l-44 32l52 61q-118 108 -118 275q0 161 108 267t275 106q129 0 226 -66l52 61l42 -33zM195 354q0 -98 61 -167l311 368q-59 42 -137 42
q-102 0 -168.5 -69t-66.5 -174zM430 112q101 0 168 69.5t67 172.5q0 99 -58 165l-310 -367q59 -40 133 -40z" />
    <glyph glyph-name="oslashacute" unicode="&#x1ff;" horiz-adv-x="583" 
d="M201 534l107 184h131l5 -8l-143 -176h-100zM474 398q72 -72 72 -173q0 -104 -72.5 -174t-181.5 -70q-75 0 -139 37l-27 -32l-44 32l29 33q-74 71 -74 174q0 104 72.5 173.5t182.5 69.5q79 0 139 -37l28 33l42 -33zM169 225q0 -42 24 -76l161 189q-28 19 -62 19
q-53 0 -88 -38t-35 -94zM292 93q52 0 87 38t35 94q0 43 -23 75l-160 -190q26 -17 61 -17z" />
    <glyph glyph-name="Scommaaccent" unicode="&#x218;" horiz-adv-x="583" 
d="M292 -19q-174 0 -261 147l97 68l18 -5q54 -90 145 -90q47 0 76.5 24.5t29.5 61.5t-30.5 64.5t-119.5 65.5q-103 43 -146 93.5t-43 124.5q0 82 65.5 137t170.5 55q156 0 233 -120l-96 -70l-18 4q-45 67 -119 67q-43 0 -67 -20t-24 -52q0 -31 27.5 -53.5t118.5 -62.5
q108 -48 150.5 -99t42.5 -124q0 -92 -71 -154t-179 -62zM288 -278l-87 34l59 193l12 6l110 -43z" />
    <glyph glyph-name="scommaaccent" unicode="&#x219;" horiz-adv-x="435" 
d="M214 -19q-135 0 -192 104l78 52l7 -1q38 -62 100 -62q30 0 47.5 12.5t17.5 32.5q0 18 -19 33.5t-71 33.5q-79 29 -110 63t-31 84q0 59 47.5 97t127.5 38q62 0 110 -27t68 -72l-74 -48l-9 1q-26 53 -86 53q-26 0 -41 -11.5t-15 -28.5q0 -18 17 -31.5t74 -35.5
q77 -30 108 -64t31 -85q0 -61 -50.5 -99.5t-134.5 -38.5zM214 -278l-87 34l59 193l12 6l110 -43z" />
    <glyph glyph-name="uni021A" unicode="&#x21a;" horiz-adv-x="618" 
d="M238 581h-228v127h598v-127h-228v-581h-142v581zM305 -278l-87 34l59 193l12 6l110 -43z" />
    <glyph glyph-name="uni021B" unicode="&#x21b;" horiz-adv-x="376" 
d="M348 102l3 -104q-43 -17 -98 -17q-78 0 -118.5 38.5t-40.5 113.5v213h-81v103h82v119l104 61h28v-180h123v-103h-123v-179q0 -41 14 -56.5t49 -15.5q22 0 49 12zM205 -278l-87 34l59 193l12 6l110 -43z" />
    <glyph glyph-name="uni0237" unicode="&#x237;" horiz-adv-x="268" 
d="M31 -230q-42 0 -78 13l13 104l8 4q19 -7 37 -7q31 0 44 20t13 71v474h133v-483q0 -101 -42 -148.5t-128 -47.5z" />
    <glyph glyph-name="uni02BC" unicode="&#x2bc;" horiz-adv-x="260" 
d="M114 452l-90 34l85 253l11 6l116 -45z" />
    <glyph glyph-name="circumflex" unicode="&#x2c6;" horiz-adv-x="405" 
d="M203 654l-78 -120h-88l-7 9l111 175h123l111 -175l-6 -9h-89z" />
    <glyph glyph-name="caron" unicode="&#x2c7;" horiz-adv-x="405" 
d="M203 598l77 120h89l6 -9l-111 -175h-123l-111 175l7 9h88z" />
    <glyph glyph-name="breve" unicode="&#x2d8;" horiz-adv-x="392" 
d="M196 535q-73 0 -117 35.5t-49 99.5l9 7h72q12 -60 85 -60q75 0 85 60h73l8 -7q-5 -64 -49 -99.5t-117 -35.5z" />
    <glyph glyph-name="dotaccent" unicode="&#x2d9;" horiz-adv-x="224" 
d="M112 533q-35 0 -58.5 21.5t-23.5 55.5q0 33 23.5 54.5t58.5 21.5q36 0 59 -22t23 -55t-23 -54.5t-59 -21.5z" />
    <glyph glyph-name="ring" unicode="&#x2da;" horiz-adv-x="267" 
d="M134 523q-43 0 -73.5 29.5t-30.5 73.5q0 43 30.5 72.5t73.5 29.5q42 0 72.5 -29.5t30.5 -72.5q0 -44 -30 -73.5t-73 -29.5zM134 568q24 0 40.5 17t16.5 41t-16 40.5t-41 16.5t-41.5 -16.5t-16.5 -40.5t16.5 -41t41.5 -17z" />
    <glyph glyph-name="ogonek" unicode="&#x2db;" horiz-adv-x="273" 
d="M138 -230q-48 0 -78 24t-30 63q0 76 100 143h70q-78 -62 -78 -116q0 -17 11.5 -28t28.5 -11q22 0 50 18l6 1l22 -65q-46 -29 -102 -29z" />
    <glyph glyph-name="tilde" unicode="&#x2dc;" horiz-adv-x="410" 
d="M277 542q41 0 69.5 35t33.5 91h-65l-7 -6q-10 -39 -36 -39q-19 0 -65.5 22.5t-73.5 22.5q-41 0 -69.5 -35t-33.5 -91h64l8 6q8 39 36 39q19 0 64 -22.5t75 -22.5z" />
    <glyph glyph-name="hungarumlaut" unicode="&#x2dd;" horiz-adv-x="491" 
d="M30 534l110 184h124l5 -8l-139 -176h-100zM223 534l110 184h124l4 -8l-139 -176h-99z" />
    <glyph glyph-name="gravecomb" unicode="&#x300;" horiz-adv-x="0" 
d="M-54 534h-100l-143 176l5 8h131z" />
    <glyph glyph-name="acutecomb" unicode="&#x301;" horiz-adv-x="0" 
d="M-235 534l107 184h131l5 -8l-143 -176h-100z" />
    <glyph glyph-name="uni0302" unicode="&#x302;" horiz-adv-x="0" 
d="M-206 654l-77 -120h-89l-6 9l111 175h122l112 -175l-7 -9h-89z" />
    <glyph glyph-name="tildecomb" unicode="&#x303;" horiz-adv-x="0" 
d="M-130 542q41 0 69.5 35t33.5 91h-64l-8 -6q-8 -39 -36 -39q-19 0 -65.5 22.5t-73.5 22.5q-41 0 -69.5 -35t-33.5 -91h65l7 6q10 39 36 39q19 0 64.5 -22.5t74.5 -22.5z" />
    <glyph glyph-name="uni0304" unicode="&#x304;" horiz-adv-x="0" 
d="M-333 569v83h302v-83h-302z" />
    <glyph glyph-name="uni0306" unicode="&#x306;" horiz-adv-x="0" 
d="M-189 535q-73 0 -117.5 35.5t-48.5 99.5l8 7h72q12 -60 86 -60q73 0 85 60h72l9 -7q-5 -64 -49 -99.5t-117 -35.5z" />
    <glyph glyph-name="uni0307" unicode="&#x307;" horiz-adv-x="0" 
d="M-112 533q-35 0 -58.5 21.5t-23.5 55.5q0 33 23.5 54.5t58.5 21.5q36 0 59 -22t23 -55t-23 -54.5t-59 -21.5z" />
    <glyph glyph-name="uni0308" unicode="&#x308;" horiz-adv-x="0" 
d="M-341 607q0 28 20.5 48.5t48.5 20.5t48 -20t20 -49t-19.5 -49t-48.5 -20t-49 20t-20 49zM-148 607q0 28 20 48.5t48 20.5t48.5 -20t20.5 -49t-20 -49t-49 -20t-48.5 20t-19.5 49z" />
    <glyph glyph-name="uni030A" unicode="&#x30a;" horiz-adv-x="0" 
d="M-134 523q-43 0 -73 29.5t-30 73.5q0 43 30 72.5t73 29.5t73.5 -29.5t30.5 -72.5q0 -44 -30.5 -73.5t-73.5 -29.5zM-134 568q25 0 41.5 17t16.5 41t-16.5 40.5t-41.5 16.5t-41 -16.5t-16 -40.5t16.5 -41t40.5 -17z" />
    <glyph glyph-name="uni030B" unicode="&#x30b;" horiz-adv-x="0" 
d="M-352 534l110 184h124l5 -8l-139 -176h-100zM-160 534l111 184h123l5 -8l-139 -176h-100z" />
    <glyph glyph-name="uni030C" unicode="&#x30c;" horiz-adv-x="0" 
d="M-206 598l77 120h89l7 -9l-112 -175h-122l-111 175l6 9h89z" />
    <glyph glyph-name="uni0312" unicode="&#x312;" horiz-adv-x="0" 
d="M-132 771l84 -33l-59 -193l-11 -6l-108 42z" />
    <glyph glyph-name="uni0315" unicode="&#x315;" horiz-adv-x="0" 
d="M-141 563l-87 34l59 193l12 6l110 -43z" />
    <glyph glyph-name="dotbelowcomb" unicode="&#x323;" horiz-adv-x="0" 
d="M-98 -254q-35 0 -58.5 21.5t-23.5 55.5q0 33 23.5 54.5t58.5 21.5q36 0 59 -22t23 -55t-23 -54.5t-59 -21.5z" />
    <glyph glyph-name="uni0324" unicode="&#x324;" horiz-adv-x="0" 
d="M-384 -149q0 28 20.5 48.5t48.5 20.5t48 -20t20 -49t-19.5 -49t-48.5 -20t-49 20t-20 49zM-191 -149q0 28 20 48.5t48 20.5q29 0 49 -20t20 -49t-20 -49t-49 -20t-48.5 20t-19.5 49z" />
    <glyph glyph-name="uni0325" unicode="&#x325;" horiz-adv-x="0" 
d="M-134 -279q-43 0 -73 29.5t-30 73.5q0 43 30 72.5t73 29.5t73.5 -29.5t30.5 -72.5q0 -44 -30.5 -73.5t-73.5 -29.5zM-134 -234q25 0 41.5 17t16.5 41t-16.5 40.5t-41.5 16.5t-41 -16.5t-16 -40.5t16.5 -41t40.5 -17z" />
    <glyph glyph-name="uni0326" unicode="&#x326;" horiz-adv-x="0" 
d="M-127 -278l-87 34l59 193l12 6l110 -43z" />
    <glyph glyph-name="uni0327" unicode="&#x327;" horiz-adv-x="0" 
d="M-166 -234q-63 0 -109 23l21 53l10 3q38 -19 75 -19q22 0 35.5 9t13.5 25q0 30 -48 30q-25 0 -42 -7l-25 23l63 94h71l-45 -66q12 3 28 3q38 0 63 -21t25 -55q0 -44 -36.5 -69.5t-99.5 -25.5z" />
    <glyph glyph-name="uni0328" unicode="&#x328;" horiz-adv-x="0" 
d="M-135 -230q-48 0 -78 24t-30 63q0 76 100 143h70q-78 -62 -78 -116q0 -17 11.5 -28t28.5 -11q22 0 50 18l6 1l22 -65q-46 -29 -102 -29z" />
    <glyph glyph-name="uni0330" unicode="&#x330;" horiz-adv-x="0" 
d="M-130 -212q41 0 69.5 35t33.5 91h-64l-8 -6q-8 -39 -36 -39q-19 0 -65.5 22.5t-73.5 22.5q-41 0 -69.5 -35t-33.5 -91h65l7 6q10 39 36 39q19 0 64.5 -22.5t74.5 -22.5z" />
    <glyph glyph-name="uni0331" unicode="&#x331;" horiz-adv-x="0" 
d="M-333 -192v83h302v-83h-302z" />
    <glyph glyph-name="uni0335" unicode="&#x335;" horiz-adv-x="0" 
d="M-258 173v95h228v-95h-228z" />
    <glyph glyph-name="uni0336" unicode="&#x336;" horiz-adv-x="0" 
d="M-570 173v95h710v-95h-710z" />
    <glyph glyph-name="uni0337" unicode="&#x337;" horiz-adv-x="0" 
d="M-399 79l-46 79l361 207l45 -79z" />
    <glyph glyph-name="uni0338" unicode="&#x338;" horiz-adv-x="0" 
d="M-539 -101l-67 59l497 591l68 -58z" />
    <glyph glyph-name="uni0394" unicode="&#x394;" horiz-adv-x="710" 
d="M432 708l283 -708h-720l286 708h151zM200 121h310l-112 305q-27 75 -42 142h-4q-15 -67 -42 -142z" />
    <glyph glyph-name="pi" unicode="&#x3c0;" horiz-adv-x="570" 
d="M353 81v265h-145v-346h-133v346h-58v103h531v-103h-63v-246q0 -15 5 -20.5t18 -5.5q9 0 24 7l9 -5v-80q-43 -12 -80 -12q-108 0 -108 97z" />
    <glyph glyph-name="Wgrave" unicode="&#x1e80;" horiz-adv-x="982" 
d="M495 764l-126 126l5 8h124l97 -134h-100zM229 -9l-218 717h154l92 -354q23 -86 37 -154h3q10 36 45 155l109 349h80l109 -349q35 -119 45 -155h3q14 68 37 154l92 354h154l-218 -717h-116l-104 329q-11 34 -40 130h-4q-19 -69 -39 -129l-105 -330h-116z" />
    <glyph glyph-name="wgrave" unicode="&#x1e81;" horiz-adv-x="739" 
d="M472 534h-100l-143 176l5 8h131zM174 -10l-160 459h139l81 -286h2l103 283h63l101 -283h2l82 286h138l-160 -459h-90l-104 272h-2l-105 -272h-90z" />
    <glyph glyph-name="Wacute" unicode="&#x1e82;" horiz-adv-x="982" 
d="M389 764l96 134h123l5 -8l-124 -126h-100zM229 -9l-218 717h154l92 -354q23 -86 37 -154h3q10 36 45 155l109 349h80l109 -349q35 -119 45 -155h3q14 68 37 154l92 354h154l-218 -717h-116l-104 329q-11 34 -40 130h-4q-19 -69 -39 -129l-105 -330h-116z" />
    <glyph glyph-name="wacute" unicode="&#x1e83;" horiz-adv-x="739" 
d="M279 534l107 184h131l5 -8l-143 -176h-100zM174 -10l-160 459h139l81 -286h2l103 283h63l101 -283h2l82 286h138l-160 -459h-90l-104 272h-2l-105 -272h-90z" />
    <glyph glyph-name="Wdieresis" unicode="&#x1e84;" horiz-adv-x="982" 
d="M319 844q0 28 20.5 48t48.5 20t48 -20t20 -48q0 -30 -19.5 -49.5t-48.5 -19.5t-49 19.5t-20 49.5zM526 844q0 28 20.5 48t48.5 20q29 0 49 -20t20 -48q0 -30 -20 -49.5t-49 -19.5t-49 19.5t-20 49.5zM229 -9l-218 717h154l92 -354q23 -86 37 -154h3q10 36 45 155l109 349
h80l109 -349q35 -119 45 -155h3q14 68 37 154l92 354h154l-218 -717h-116l-104 329q-11 34 -40 130h-4q-19 -69 -39 -129l-105 -330h-116z" />
    <glyph glyph-name="wdieresis" unicode="&#x1e85;" horiz-adv-x="739" 
d="M205 607q0 28 20.5 48.5t48.5 20.5t48 -20t20 -49t-19.5 -49t-48.5 -20t-49 20t-20 49zM398 607q0 28 20 48.5t48 20.5t48.5 -20t20.5 -49t-20 -49t-49 -20t-48.5 20t-19.5 49zM174 -10l-160 459h139l81 -286h2l103 283h63l101 -283h2l82 286h138l-160 -459h-90l-104 272
h-2l-105 -272h-90z" />
    <glyph glyph-name="uni1E9E" unicode="&#x1e9e;" horiz-adv-x="700" 
d="M485 414q89 -8 139.5 -63t50.5 -143q0 -103 -60 -164.5t-166 -61.5q-112 0 -180 96l39 97h17q43 -73 105 -73q44 0 70 28t26 74q0 110 -139 110h-44v85l121 185h-247v-584h-140v708h535v-102z" />
    <glyph glyph-name="Ygrave" unicode="&#x1ef2;" horiz-adv-x="636" 
d="M322 764l-126 126l5 8h124l97 -134h-100zM248 0v285l-250 423h165l84 -167l70 -141h3l69 141l84 167h165l-250 -423v-285h-140z" />
    <glyph glyph-name="ygrave" unicode="&#x1ef3;" horiz-adv-x="524" 
d="M372 534h-100l-143 176l5 8h131zM75 -218l121 253l-185 414h155l97 -296h2l106 296h149l-301 -667h-144z" />
    <glyph glyph-name="endash" unicode="&#x2013;" horiz-adv-x="500" 
d="M30 173v95h440v-95h-440z" />
    <glyph glyph-name="emdash" unicode="&#x2014;" horiz-adv-x="770" 
d="M30 173v95h710v-95h-710z" />
    <glyph glyph-name="quoteleft" unicode="&#x2018;" horiz-adv-x="307" 
d="M193 727l89 -34l-98 -283l-12 -5l-115 44z" />
    <glyph glyph-name="quoteright" unicode="&#x2019;" horiz-adv-x="307" 
d="M114 405l-89 34l98 283l12 5l115 -44z" />
    <glyph glyph-name="quotesinglbase" unicode="&#x201a;" horiz-adv-x="306" 
d="M114 -166l-89 34l98 283l12 5l115 -44z" />
    <glyph glyph-name="quotedblleft" unicode="&#x201c;" horiz-adv-x="528" 
d="M193 727l89 -34l-98 -283l-12 -5l-115 44zM414 727l89 -34l-98 -283l-12 -5l-115 44z" />
    <glyph glyph-name="quotedblright" unicode="&#x201d;" horiz-adv-x="528" 
d="M114 405l-89 34l98 283l12 5l115 -44zM335 405l-89 34l98 283l12 5l115 -44z" />
    <glyph glyph-name="quotedblbase" unicode="&#x201e;" horiz-adv-x="523" 
d="M114 -166l-89 34l98 283l12 5l115 -44zM331 -166l-89 34l98 283l12 5l115 -44z" />
    <glyph glyph-name="dagger" unicode="&#x2020;" horiz-adv-x="572" 
d="M221 -218v560h-180v122h180v244h130v-244h180v-122h-180v-560h-130z" />
    <glyph glyph-name="daggerdbl" unicode="&#x2021;" horiz-adv-x="572" 
d="M221 -217v209h-175v120h175v271h-175v120h175v205h130v-205h175v-120h-175v-271h175v-120h-175v-209h-130z" />
    <glyph glyph-name="bullet" unicode="&#x2022;" horiz-adv-x="590" 
d="M295 221q-64 0 -107.5 44t-43.5 107t43.5 107t107.5 44t107.5 -44t43.5 -107t-43.5 -107t-107.5 -44z" />
    <glyph glyph-name="ellipsis" unicode="&#x2026;" horiz-adv-x="910" 
d="M144 -11q-36 0 -59.5 24t-23.5 58t24 57.5t59 23.5q36 0 59.5 -23t23.5 -58q0 -34 -23.5 -58t-59.5 -24zM454 -11q-36 0 -59.5 24t-23.5 58t24 57.5t59 23.5q36 0 59.5 -23t23.5 -58q0 -34 -23.5 -58t-59.5 -24zM765 -11q-36 0 -59.5 24t-23.5 58t24 57.5t59 23.5
q36 0 59.5 -23t23.5 -58q0 -34 -23.5 -58t-59.5 -24z" />
    <glyph glyph-name="perthousand" unicode="&#x2030;" horiz-adv-x="1372" 
d="M246 358q-77 0 -130.5 53t-53.5 129t53.5 129t130.5 53t130.5 -53t53.5 -129t-53.5 -129t-130.5 -53zM213 0l422 708h102l-423 -708h-101zM246 449q38 0 63.5 26t25.5 65t-25.5 65t-63.5 26t-63 -26t-25 -65t25 -65t63 -26zM703 -14q-77 0 -130.5 53t-53.5 129t53.5 129
t130.5 53t130.5 -53t53.5 -129t-53.5 -129t-130.5 -53zM1126 -14q-77 0 -130.5 53t-53.5 129t53.5 129t130.5 53t130.5 -53t53.5 -129t-53.5 -129t-130.5 -53zM703 77q38 0 63.5 26t25.5 65t-25.5 65t-63.5 26t-63.5 -26t-25.5 -65t25.5 -65t63.5 -26zM1126 77q38 0 63 26
t25 65t-25 65t-63 26t-63.5 -26t-25.5 -65t25.5 -65t63.5 -26z" />
    <glyph glyph-name="minute" unicode="&#x2032;" horiz-adv-x="245" 
d="M48 512l31 243h122l-60 -243h-93z" />
    <glyph glyph-name="second" unicode="&#x2033;" horiz-adv-x="419" 
d="M48 512l31 243h122l-60 -243h-93zM222 512l31 243h122l-60 -243h-93z" />
    <glyph glyph-name="guilsinglleft" unicode="&#x2039;" horiz-adv-x="320" 
d="M190 27l-145 206l145 206l71 -48l2 -8l-101 -150l101 -149l-2 -9z" />
    <glyph glyph-name="guilsinglright" unicode="&#x203a;" horiz-adv-x="325" 
d="M135 27l-71 48l-2 9l101 149l-101 150l2 8l71 48l145 -206z" />
    <glyph glyph-name="fraction" unicode="&#x2044;" horiz-adv-x="166" 
d="M350 755l-414 -791h-120l415 791h119z" />
    <glyph glyph-name="uni2070" unicode="&#x2070;" 
d="M195 441q-76 0 -120 59t-44 162t44 162t120 59q77 0 121 -59t44 -162t-44 -162t-121 -59zM195 530q65 0 65 133q0 131 -65 131q-64 0 -64 -131q0 -65 17 -99t47 -34z" />
    <glyph glyph-name="uni2074" unicode="&#x2074;" 
d="M220 460v77h-201v62l196 278h101v-257h47v-83h-47v-77h-96zM126 620h96v57q0 59 8 99h-2q-16 -35 -35 -62z" />
    <glyph glyph-name="uni2075" unicode="&#x2075;" 
d="M194 441q-144 0 -161 120l88 17l12 -6q7 -48 59 -48q26 0 42 17.5t16 47.5q0 32 -18 49.5t-52 17.5q-59 0 -103 -31l-19 7l16 237h243v-81h-161l-4 -72q30 10 61 10q62 0 99.5 -36.5t37.5 -96.5q0 -69 -42.5 -110.5t-113.5 -41.5z" />
    <glyph glyph-name="uni2076" unicode="&#x2076;" 
d="M191 441q-73 0 -116.5 41.5t-43.5 112.5q0 41 20.5 82t71.5 107l87 111l72 -43l3 -11l-48 -61q-37 -46 -69 -68l1 -2q32 17 62 17q54 0 87 -36.5t33 -97.5q0 -69 -43.5 -110.5t-116.5 -41.5zM192 527q27 0 43.5 18t16.5 47q0 30 -16.5 47.5t-43.5 17.5q-28 0 -44.5 -17.5
t-16.5 -47.5q0 -29 16.5 -47t44.5 -18z" />
    <glyph glyph-name="uni2077" unicode="&#x2077;" 
d="M225 784h-177v85h316v-12l-197 -412l-16 -5l-77 29z" />
    <glyph glyph-name="uni2078" unicode="&#x2078;" 
d="M196 441q-75 0 -116.5 34.5t-41.5 92.5q0 38 21 66t61 40q-67 25 -67 97q0 50 38.5 81t104.5 31q65 0 103.5 -31t38.5 -81q0 -70 -67 -97q40 -12 61 -40t21 -66q0 -58 -41.5 -92.5t-115.5 -34.5zM195 708q22 0 34.5 13t12.5 37t-13 37.5t-34 13.5q-22 0 -34.5 -13.5
t-12.5 -37.5t12.5 -37t34.5 -13zM196 517q27 0 42.5 16t15.5 44t-16 45t-42 17q-27 0 -43 -17t-16 -45t16 -44t43 -16z" />
    <glyph glyph-name="uni2079" unicode="&#x2079;" 
d="M177 430l-72 43l-4 10l49 62q38 46 69 67l-1 1q-32 -16 -62 -16q-54 0 -87 36.5t-33 98.5q0 69 44 110t119 41q73 0 115 -41.5t42 -112.5q0 -43 -21.5 -86t-70.5 -103zM196 668q27 0 43.5 17.5t16.5 47.5q0 29 -16 46.5t-44 17.5t-45 -18t-17 -47q0 -30 16.5 -47
t45.5 -17z" />
    <glyph glyph-name="uni2080" unicode="&#x2080;" 
d="M195 -159q-76 0 -120 59t-44 162t44 162t120 59q77 0 121 -59t44 -162t-44 -162t-121 -59zM195 -70q65 0 65 133q0 131 -65 131q-64 0 -64 -131q0 -65 17 -99t47 -34z" />
    <glyph glyph-name="uni2081" unicode="&#x2081;" 
d="M163 -140v239q0 34 8 69l-3 1q-22 -16 -39 -25l-44 -25l-8 2l7 96l146 69h30v-426h-97z" />
    <glyph glyph-name="uni2082" unicode="&#x2082;" 
d="M28 -140v13l135 150q75 82 75 129q0 48 -48 48t-60 -63l-11 -5l-84 13q25 143 165 143q62 0 100.5 -35t38.5 -91q0 -90 -84 -171l-21 -21q-13 -13 -39 -31v-2q42 7 69 7h72v-84h-308z" />
    <glyph glyph-name="uni2083" unicode="&#x2083;" 
d="M197 -156q-149 0 -164 130l88 14l11 -5q3 -27 19 -42t41 -15t39.5 15.5t14.5 41.5q0 55 -64 55h-14v64h10q63 0 63 53q0 21 -12.5 33.5t-34.5 12.5q-47 0 -58 -48l-10 -5l-83 15q13 58 54.5 89t105.5 31q61 0 98 -31t37 -83q0 -34 -19.5 -60t-51.5 -37q36 -8 57 -36
t21 -67q0 -55 -41.5 -90t-106.5 -35z" />
    <glyph glyph-name="uni2084" unicode="&#x2084;" 
d="M220 -140v77h-201v62l196 278h101v-257h47v-83h-47v-77h-96zM126 20h96v57q0 59 8 99h-2q-16 -35 -35 -62z" />
    <glyph glyph-name="uni2085" unicode="&#x2085;" 
d="M194 -159q-144 0 -161 120l88 17l12 -6q7 -48 59 -48q26 0 42 17.5t16 47.5q0 32 -18 49.5t-52 17.5q-59 0 -103 -31l-19 7l16 237h243v-81h-161l-4 -72q30 10 61 10q62 0 99.5 -36.5t37.5 -96.5q0 -69 -42.5 -110.5t-113.5 -41.5z" />
    <glyph glyph-name="uni2086" unicode="&#x2086;" 
d="M191 -159q-73 0 -116.5 41.5t-43.5 112.5q0 41 20.5 82t71.5 107l87 111l72 -43l3 -11l-48 -61q-37 -46 -69 -68l1 -2q32 17 62 17q54 0 87 -36.5t33 -97.5q0 -69 -43.5 -110.5t-116.5 -41.5zM192 -73q27 0 43.5 18t16.5 47q0 30 -16.5 47.5t-43.5 17.5
q-28 0 -44.5 -17.5t-16.5 -47.5q0 -29 16.5 -47t44.5 -18z" />
    <glyph glyph-name="uni2087" unicode="&#x2087;" 
d="M225 184h-177v85h316v-12l-197 -412l-16 -5l-77 29z" />
    <glyph glyph-name="uni2088" unicode="&#x2088;" 
d="M196 -159q-75 0 -116.5 34.5t-41.5 92.5q0 38 21 66t61 40q-67 25 -67 97q0 50 38.5 81t104.5 31q65 0 103.5 -31t38.5 -81q0 -70 -67 -97q40 -12 61 -40t21 -66q0 -58 -41.5 -92.5t-115.5 -34.5zM195 108q22 0 34.5 13t12.5 37t-13 37.5t-34 13.5q-22 0 -34.5 -13.5
t-12.5 -37.5t12.5 -37t34.5 -13zM196 -83q27 0 42.5 16t15.5 44t-16 45t-42 17q-27 0 -43 -17t-16 -45t16 -44t43 -16z" />
    <glyph glyph-name="uni2089" unicode="&#x2089;" 
d="M177 -170l-72 43l-4 10l49 62q38 46 69 67l-1 1q-32 -16 -62 -16q-54 0 -87 36.5t-33 98.5q0 69 44 110t119 41q73 0 115 -41.5t42 -112.5q0 -43 -21.5 -86t-70.5 -103zM196 68q27 0 43.5 17.5t16.5 47.5q0 29 -16 46.5t-44 17.5t-45 -18t-17 -47q0 -30 16.5 -47
t45.5 -17z" />
    <glyph glyph-name="lira" unicode="&#x20a4;" horiz-adv-x="700" 
d="M339 238q-2 -73 -31 -111h308l-16 -127h-499v127h72q27 36 27 100v11h-95v67h95v57h-95v67h95v52q0 110 58.5 178t165.5 68q125 0 193 -68l-78 -95l-9 2q-37 39 -97 39q-46 0 -70 -35.5t-24 -98.5v-42h148v-67h-148v-57h148v-67h-148z" />
    <glyph glyph-name="Euro" unicode="&#x20ac;" horiz-adv-x="700" 
d="M550 180l17 3l101 -69q-79 -133 -259 -133q-112 0 -193.5 72.5t-107.5 194.5h-80l21 64h50q-2 28 -2 42q0 19 1 29h-60l21 64h47q24 127 109.5 203.5t204.5 76.5q83 0 148 -34t102 -99l-104 -66l-18 4q-50 64 -128 64q-57 0 -99.5 -40.5t-60.5 -108.5h229l-19 -64h-220
q-1 -9 -1 -29q0 -14 2 -42h198l-19 -64h-167q19 -63 60 -99t97 -36q83 0 130 67z" />
    <glyph glyph-name="uni2113" unicode="&#x2113;" horiz-adv-x="519" 
d="M407 132l42 -96q-67 -55 -151 -55q-83 0 -130.5 45.5t-49.5 125.5l-26 -19l-45 69l71 53v266q0 96 47.5 151t130.5 55q72 0 112 -38.5t40 -107.5q0 -177 -192 -327v-70q0 -40 17.5 -62t48.5 -22q39 0 77 31zM305 645q-22 0 -35.5 -26t-13.5 -69v-192q91 80 91 212
q0 75 -42 75z" />
    <glyph glyph-name="uni2116" unicode="&#x2116;" horiz-adv-x="1098" 
d="M903 435q-65 0 -109 41.5t-44 102.5q0 62 43.5 103t109.5 41q65 0 108.5 -41t43.5 -103q0 -61 -43.5 -102.5t-108.5 -41.5zM553 -9l-224 307q-53 76 -120 176h-3q10 -112 10 -188v-286h-139v708h128l194 -271q16 -22 120 -180h3q-10 112 -10 189v262h139v-717h-98z
M903 512q26 0 44 19t18 48t-17.5 48t-44.5 19q-28 0 -45 -19t-17 -48t18 -48t44 -19zM759 256v80h287v-80h-287z" />
    <glyph glyph-name="uni2117" unicode="&#x2117;" horiz-adv-x="926" 
d="M463 -19q-158 0 -266 107.5t-108 264.5q0 158 108 266t266 108t266 -108t108 -266q0 -157 -108 -264.5t-266 -107.5zM462 47q128 0 216.5 89t88.5 217q0 129 -88 218.5t-216 89.5t-216 -89.5t-88 -218.5t87.5 -217.5t215.5 -88.5zM345 140v415h142q75 0 115 -34.5
t40 -100.5q0 -61 -39.5 -96.5t-108.5 -35.5h-58v-148h-91zM436 363h43q74 0 74 57q0 30 -17.5 44t-56.5 14h-43v-115z" />
    <glyph glyph-name="trademark" unicode="&#x2122;" horiz-adv-x="1006" 
d="M193 296v336h-124v76h335v-76h-123v-336h-88zM479 296v412h115l116 -232h2l113 232h113v-412h-85v311h-2l-139 -273h-10l-136 273h-2v-311h-85z" />
    <glyph glyph-name="uni2126" unicode="&#x2126;" horiz-adv-x="857" 
d="M809 377q0 -149 -120 -248h111v-129h-311v122q63 0 118.5 68.5t55.5 168.5q0 102 -66.5 170t-168.5 68t-168.5 -68t-66.5 -170q0 -100 55.5 -168.5t119.5 -68.5v-122h-311v129h110q-120 99 -120 248q0 146 107.5 248t273.5 102q167 0 274 -102t107 -248z" />
    <glyph glyph-name="estimated" unicode="&#x212e;" horiz-adv-x="694" 
d="M190 259v-130q0 -38 52.5 -72t110.5 -34q57 0 108 24t84 70l8 3l34 -25q-33 -51 -96.5 -79.5t-138.5 -28.5q-119 0 -208.5 81t-89.5 206q0 129 83.5 207.5t215.5 78.5q128 0 207 -78t79 -193q0 -20 -1 -30h-448zM507 295v123q-3 40 -48 73.5t-111 33.5q-67 0 -111.5 -34
t-46.5 -73v-123h317z" />
    <glyph glyph-name="oneeighth" unicode="&#x215b;" horiz-adv-x="914" 
d="M686 755l-414 -791h-120l415 791h119zM134 299v239q0 34 8 69l-3 1q-22 -16 -39 -25l-44 -25l-8 2l7 96l146 69h30v-426h-97zM698 -19q-75 0 -116.5 34.5t-41.5 92.5q0 38 21 66t61 40q-67 25 -67 97q0 50 38.5 81t104.5 31q65 0 103.5 -31t38.5 -81q0 -70 -67 -97
q40 -12 61 -40t21 -66q0 -58 -41.5 -92.5t-115.5 -34.5zM697 248q22 0 34.5 13t12.5 37t-13 37.5t-34 13.5q-22 0 -34.5 -13.5t-12.5 -37.5t12.5 -37t34.5 -13zM698 57q27 0 42.5 16t15.5 44t-16 45t-42 17q-27 0 -43 -17t-16 -45t16 -44t43 -16z" />
    <glyph glyph-name="threeeighths" unicode="&#x215c;" horiz-adv-x="914" 
d="M722 755l-414 -791h-120l415 791h119zM179 284q-149 0 -164 130l88 14l11 -5q3 -27 19 -42t41 -15t39.5 15.5t14.5 41.5q0 55 -64 55h-14v64h10q63 0 63 53q0 21 -12.5 33.5t-34.5 12.5q-47 0 -58 -48l-10 -5l-83 15q13 58 54.5 89t105.5 31q61 0 98 -31t37 -83
q0 -34 -19.5 -60t-51.5 -37q36 -8 57 -36t21 -67q0 -55 -41.5 -90t-106.5 -35zM734 -19q-75 0 -116.5 34.5t-41.5 92.5q0 38 21 66t61 40q-67 25 -67 97q0 50 38.5 81t104.5 31q65 0 103.5 -31t38.5 -81q0 -70 -67 -97q40 -12 61 -40t21 -66q0 -58 -41.5 -92.5t-115.5 -34.5
zM733 248q22 0 34.5 13t12.5 37t-13 37.5t-34 13.5q-22 0 -34.5 -13.5t-12.5 -37.5t12.5 -37t34.5 -13zM734 57q27 0 42.5 16t15.5 44t-16 45t-42 17q-27 0 -43 -17t-16 -45t16 -44t43 -16z" />
    <glyph glyph-name="fiveeighths" unicode="&#x215d;" horiz-adv-x="914" 
d="M718 755l-414 -791h-120l415 791h119zM174 280q-144 0 -161 120l88 17l12 -6q7 -48 59 -48q26 0 42 17.5t16 47.5q0 32 -18 49.5t-52 17.5q-59 0 -103 -31l-19 7l16 237h243v-81h-161l-4 -72q30 10 61 10q62 0 99.5 -36.5t37.5 -96.5q0 -69 -42.5 -110.5t-113.5 -41.5z
M732 -19q-75 0 -116.5 34.5t-41.5 92.5q0 38 21 66t61 40q-67 25 -67 97q0 50 38.5 81t104.5 31q65 0 103.5 -31t38.5 -81q0 -70 -67 -97q40 -12 61 -40t21 -66q0 -58 -41.5 -92.5t-115.5 -34.5zM731 248q22 0 34.5 13t12.5 37t-13 37.5t-34 13.5q-22 0 -34.5 -13.5
t-12.5 -37.5t12.5 -37t34.5 -13zM732 57q27 0 42.5 16t15.5 44t-16 45t-42 17q-27 0 -43 -17t-16 -45t16 -44t43 -16z" />
    <glyph glyph-name="seveneighths" unicode="&#x215e;" horiz-adv-x="914" 
d="M681 755l-414 -791h-120l415 791h119zM223 623h-177v85h316v-12l-197 -412l-16 -5l-77 29zM694 -19q-75 0 -116.5 34.5t-41.5 92.5q0 38 21 66t61 40q-67 25 -67 97q0 50 38.5 81t104.5 31q65 0 103.5 -31t38.5 -81q0 -70 -67 -97q40 -12 61 -40t21 -66
q0 -58 -41.5 -92.5t-115.5 -34.5zM693 248q22 0 34.5 13t12.5 37t-13 37.5t-34 13.5q-22 0 -34.5 -13.5t-12.5 -37.5t12.5 -37t34.5 -13zM694 57q27 0 42.5 16t15.5 44t-16 45t-42 17q-27 0 -43 -17t-16 -45t16 -44t43 -16z" />
    <glyph glyph-name="arrowleft" unicode="&#x2190;" horiz-adv-x="916" 
d="M384 19l-318 327l318 327l68 -68v-6l-138 -137q-28 -27 -75 -66l1 -2q30 3 102 3h508v-101h-508q-62 0 -102 4l-1 -2q39 -33 75 -67l138 -138v-6z" />
    <glyph glyph-name="arrowup" unicode="&#x2191;" horiz-adv-x="826" 
d="M740 409l-68 -68h-6l-138 138q-29 30 -66 75l-2 -1q3 -45 3 -102v-508h-101v508q0 57 3 102l-2 1q-37 -45 -66 -75l-137 -138h-6l-68 68l327 318z" />
    <glyph glyph-name="arrowright" unicode="&#x2192;" horiz-adv-x="916" 
d="M532 19l-68 68v6l138 138q36 34 75 67l-1 2q-40 -4 -102 -4h-508v101h508q72 0 102 -3l1 2q-47 39 -75 66l-138 137v6l68 68l318 -327z" />
    <glyph glyph-name="arrowdown" unicode="&#x2193;" horiz-adv-x="826" 
d="M740 261l-327 -318l-327 318l68 68h6l137 -138q32 -32 66 -75l2 1q-3 45 -3 102v508h101v-508q0 -57 -3 -102l2 -1q34 43 66 75l138 138h6z" />
    <glyph glyph-name="arrowboth" unicode="&#x2194;" horiz-adv-x="1313" 
d="M929 673l317 -327l-317 -327l-68 68v6l138 138q27 27 75 67l-1 2q-41 -4 -102 -4h-629q-62 0 -102 4l-1 -2q39 -33 75 -67l138 -138v-6l-68 -68l-318 327l318 327l68 -68v-6l-138 -137q-28 -27 -75 -66l1 -2q30 3 102 3h629q71 0 102 -3l1 2q-54 45 -75 66l-138 137v6z
" />
    <glyph glyph-name="arrowupdn" unicode="&#x2195;" horiz-adv-x="826" 
d="M86 619l327 318l327 -318l-68 -68h-6l-138 138q-38 39 -66 75l-2 -1q3 -45 3 -102v-629q0 -57 -3 -102l2 -1q30 38 66 74l138 139h6l68 -68l-327 -319l-327 319l68 68h6l137 -139q36 -36 66 -74l2 1q-3 45 -3 102v629q0 57 3 102l-2 1q-28 -36 -66 -75l-137 -138h-6z" />
    <glyph glyph-name="uni2196" unicode="&#x2196;" horiz-adv-x="759" 
d="M96 156l7 456l456 7v-96l-4 -4h-195q-55 2 -100 6v-2q23 -19 74 -70l359 -358l-71 -72l-359 359q-29 27 -70 75l-2 -1q6 -60 6 -100v-195l-5 -5h-96z" />
    <glyph glyph-name="uni2197" unicode="&#x2197;" horiz-adv-x="759" 
d="M663 156h-96l-5 5v195q0 10 6 100l-2 1q-41 -48 -70 -75l-359 -359l-71 72l359 358q51 51 74 70v2q-45 -4 -100 -6h-194l-4 4l-1 96l456 -7z" />
    <glyph glyph-name="uni2198" unicode="&#x2198;" horiz-adv-x="759" 
d="M663 485l-7 -455l-456 -7l1 96l4 4l194 -1q38 0 100 -6v2q-10 9 -74 70l-359 359l71 72l359 -359q29 -27 70 -75l2 1q-6 90 -6 100v195l5 4h96z" />
    <glyph glyph-name="uni2199" unicode="&#x2199;" horiz-adv-x="759" 
d="M96 485h96l5 -4v-195q0 -40 -6 -100l2 -1q41 47 70 75l359 359l71 -72l-359 -359q-64 -61 -74 -70v-2q62 6 100 6l195 1l4 -4v-96l-456 7z" />
    <glyph glyph-name="partialdiff" unicode="&#x2202;" horiz-adv-x="700" 
d="M344 727q128 0 191 -111t61 -294q-1 -172 -72 -256.5t-197 -84.5q-98 0 -161 64t-63 166q0 94 58.5 160.5t143.5 66.5q97 0 162 -79q-9 260 -143 260q-63 0 -112 -66l-9 -1l-78 54q34 55 92 88t127 33zM344 94q58 0 89.5 41t28.5 108v9q-43 74 -120 74q-47 0 -77 -32.5
t-30 -85.5q0 -50 30 -82t79 -32z" />
    <glyph glyph-name="emptyset" unicode="&#x2205;" horiz-adv-x="700" 
d="M645 545l-77 -77q50 -69 50 -159q0 -115 -77 -191.5t-191 -76.5q-90 0 -160 49l-80 -80l-55 55l80 80q-53 69 -53 164q0 113 76.5 189t191.5 76q91 0 163 -51l76 76zM187 309q0 -51 23 -89l230 230q-42 26 -90 26q-70 0 -116.5 -48t-46.5 -119zM513 309q0 47 -21 83
l-228 -228q38 -24 86 -24q70 0 116.5 48t46.5 121z" />
    <glyph glyph-name="uni2206" unicode="&#x2206;" horiz-adv-x="710" 
d="M432 708l283 -708h-720l286 708h151zM200 121h310l-112 305q-27 75 -42 142h-4q-15 -67 -42 -142z" />
    <glyph glyph-name="product" unicode="&#x220f;" horiz-adv-x="712" 
d="M66 -218v801h-56v125h692v-125h-56v-801h-140v801h-300v-801h-140z" />
    <glyph glyph-name="summation" unicode="&#x2211;" horiz-adv-x="624" 
d="M19 -218v109l296 367l-283 341v109h561v-124h-387l267 -326l-283 -351h414v-125h-585z" />
    <glyph glyph-name="minus" unicode="&#x2212;" horiz-adv-x="700" 
d="M83 258v91h534v-91h-534z" />
    <glyph glyph-name="uni2215" unicode="&#x2215;" horiz-adv-x="377" 
d="M434 755l-364 -791h-127l365 791h126z" />
    <glyph glyph-name="uni2219" unicode="&#x2219;" horiz-adv-x="427" 
d="M214 222q-36 0 -59.5 24t-23.5 58t23.5 57t59.5 23q35 0 59 -23t24 -57t-23.5 -58t-59.5 -24z" />
    <glyph glyph-name="radical" unicode="&#x221a;" horiz-adv-x="595" 
d="M235 -9l-142 333h-75v125h178l91 -249h5l135 508h162l-233 -717h-121z" />
    <glyph glyph-name="infinity" unicode="&#x221e;" horiz-adv-x="801" 
d="M212 134q-72 0 -118 46t-46 119t45.5 119.5t116.5 46.5q47 0 92 -25t99 -81q54 56 99 81t92 25q71 0 116 -46.5t45 -119.5t-46 -119t-118 -46q-46 0 -87.5 22t-100.5 79q-60 -57 -101.5 -79t-87.5 -22zM213 224q53 0 129 74q-84 78 -132 78q-30 0 -49.5 -22t-19.5 -55
q0 -34 19.5 -54.5t52.5 -20.5zM588 224q33 0 52.5 20.5t19.5 54.5q0 33 -19.5 55t-48.5 22q-47 0 -133 -78q76 -74 129 -74z" />
    <glyph glyph-name="integral" unicode="&#x222b;" horiz-adv-x="700" 
d="M294 56v476q0 121 32 167t117 46q45 0 82 -13v-103l-11 -4q-26 14 -54 14q-30 0 -42 -25t-12 -94v-476q0 -121 -32 -167t-117 -46q-45 0 -82 13v103l11 4q26 -14 54 -14q30 0 42 25t12 94z" />
    <glyph glyph-name="approxequal" unicode="&#x2248;" horiz-adv-x="700" 
d="M144 326l-64 43q70 119 161 119q45 0 82 -17.5t68.5 -35t62.5 -17.5q54 0 93 67l9 1l64 -43q-69 -118 -161 -118q-53 0 -115 34.5t-99 34.5q-53 0 -92 -66zM144 122l-64 43q69 118 161 118q45 0 82 -17.5t68.5 -34.5t62.5 -17q54 0 93 66l9 2l64 -43q-70 -119 -161 -119
q-53 0 -115 35t-99 35q-53 0 -92 -67z" />
    <glyph glyph-name="notequal" unicode="&#x2260;" horiz-adv-x="700" 
d="M623 355h-202l-46 -103h248v-91h-289l-61 -137h-96l61 137h-161v91h202l46 103h-248v92h289l61 136h96l-61 -136h161v-92z" />
    <glyph glyph-name="lessequal" unicode="&#x2264;" horiz-adv-x="700" 
d="M610 633v-98l-381 -138l381 -139v-98l-520 197v80zM90 0v91h520v-91h-520z" />
    <glyph glyph-name="greaterequal" unicode="&#x2265;" horiz-adv-x="700" 
d="M90 633l520 -196v-80l-520 -197v98l381 139l-381 138v98zM90 0v91h520v-91h-520z" />
    <glyph glyph-name="lozenge" unicode="&#x25ca;" horiz-adv-x="700" 
d="M302 -19l-175 373l176 373h92l177 -373l-177 -373h-93zM348 101l112 253l-112 253l-110 -253z" />
    <glyph glyph-name="i.loclTRK" horiz-adv-x="267" 
d="M134 533q-35 0 -58.5 21.5t-23.5 55.5q0 33 23.5 54.5t58.5 21.5q36 0 59 -22t23 -55t-23 -54.5t-59 -21.5zM67 0v449h133v-449h-133z" />
    <glyph glyph-name="f_i" horiz-adv-x="598" 
d="M325 621q-21 10 -42 10q-28 0 -40.5 -19.5t-12.5 -69.5v-93h98v-103h-98v-346h-133v346h-81v103h81v89q0 111 37.5 159t120.5 48q37 0 85 -13l-6 -107zM465 564q-36 0 -59 21.5t-23 55.5q0 33 23 54.5t59 21.5t59 -22t23 -55t-23.5 -54.5t-58.5 -21.5zM398 0v449h133
v-449h-133z" />
    <glyph glyph-name="f_l" horiz-adv-x="603" 
d="M325 621q-21 10 -42 10q-28 0 -40.5 -19.5t-12.5 -69.5v-93h98v-103h-98v-346h-133v346h-81v103h81v89q0 111 37.5 159t120.5 48q37 0 85 -13l-6 -107zM403 0v733h133v-733h-133z" />
    <glyph glyph-name="zero.osf" horiz-adv-x="537" 
d="M269 -19q-106 0 -165.5 70t-59.5 187t59.5 187t165.5 70t165 -70t59 -187t-59 -187t-165 -70zM269 84q93 0 93 155q0 153 -93 153t-93 -153q0 -155 93 -155z" />
    <glyph glyph-name="one.osf" horiz-adv-x="377" 
d="M163 0v223q0 47 18 112l-3 1q-34 -29 -66 -48l-70 -44l-12 5l11 130l218 114h46v-493h-142z" />
    <glyph glyph-name="two.osf" horiz-adv-x="462" 
d="M21 0v18l201 187q45 42 61 69t16 56q0 27 -16.5 44t-47.5 17q-73 0 -93 -85l-17 -8l-105 16q15 86 73 133.5t151 47.5q87 0 137 -41.5t50 -109.5q0 -47 -20 -84.5t-73 -88.5l-5 -4q-34 -32 -84 -66l1 -2q56 9 119 9h74v-108h-422z" />
    <glyph glyph-name="three.osf" horiz-adv-x="490" 
d="M251 -164q-102 0 -164 50.5t-73 144.5l114 20l17 -9q6 -48 33 -74t66 -26q38 0 62 25.5t24 68.5q0 46 -27 70t-76 24h-17v91h12q48 0 74.5 23t26.5 66q0 38 -21.5 59t-55.5 21q-35 0 -59.5 -23.5t-31.5 -66.5l-17 -8l-109 20q17 87 77.5 135t151.5 48q85 0 139.5 -46.5
t54.5 -123.5q0 -52 -30 -91.5t-82 -55.5q57 -12 90.5 -54.5t33.5 -100.5q0 -81 -61 -134t-152 -53z" />
    <glyph glyph-name="four.osf" horiz-adv-x="532" 
d="M302 -158v158h-299v72l305 411h134v-375h75v-108h-75v-158h-140zM158 108h148v90q0 74 13 146h-3q-20 -36 -53 -90z" />
    <glyph glyph-name="five.osf" horiz-adv-x="468" 
d="M231 -164q-97 0 -157.5 47.5t-71.5 134.5l113 21l17 -8q14 -84 98 -84q42 0 67.5 29.5t25.5 78.5q0 50 -26.5 79t-77.5 29q-83 0 -153 -49l-27 8l23 354h347v-108h-237l-9 -129q57 20 98 20q87 0 141.5 -55.5t54.5 -142.5q0 -100 -62.5 -162.5t-163.5 -62.5z" />
    <glyph glyph-name="six.osf" horiz-adv-x="551" 
d="M276 -18q-107 0 -169.5 61t-62.5 162q0 62 33 126.5t102 155.5l127 170l93 -56l4 -15l-68 -92q-64 -81 -105 -114l2 -2q51 27 97 27q79 0 129.5 -55.5t50.5 -143.5q0 -101 -63.5 -162.5t-169.5 -61.5zM279 94q44 0 72.5 30.5t28.5 77.5q0 49 -28.5 79t-74.5 30t-74 -30.5
t-28 -78.5t29 -78t75 -30z" />
    <glyph glyph-name="seven.osf" horiz-adv-x="466" 
d="M294 366h-277v108h450v-19l-278 -614l-24 -6l-88 36z" />
    <glyph glyph-name="eight.osf" horiz-adv-x="528" 
d="M264 -19q-109 0 -170 52.5t-61 138.5q0 59 33 102.5t95 62.5q-104 36 -104 147q0 73 56 120.5t151 47.5t151 -47.5t56 -120.5q0 -110 -104 -147q62 -19 95 -62.5t33 -102.5q0 -86 -61 -138.5t-170 -52.5zM263 385q37 0 58.5 22.5t21.5 60.5q0 39 -21.5 61.5t-58.5 22.5
t-58.5 -22.5t-21.5 -61.5q0 -38 21 -60.5t59 -22.5zM264 84q46 0 73 27t27 73q0 47 -27 75.5t-73 28.5t-72.5 -28t-26.5 -76q0 -46 26.5 -73t72.5 -27z" />
    <glyph glyph-name="nine.osf" horiz-adv-x="552" 
d="M261 -167l-93 56l-4 14l55 75q68 90 112 123l-2 2q-59 -31 -104 -31q-79 0 -130 55.5t-51 144.5q0 101 64 162t172 61q104 0 166.5 -61.5t62.5 -162.5q0 -63 -32.5 -130t-101.5 -155zM277 166q46 0 74 30.5t28 78.5t-29 78t-75 30q-45 0 -73.5 -30.5t-28.5 -77.5
q0 -49 28.5 -79t75.5 -30z" />
    <glyph glyph-name="zero.tf" horiz-adv-x="700" 
d="M350 -19q-126 0 -198.5 99.5t-72.5 274.5q0 173 72.5 272.5t198.5 99.5t198.5 -99.5t72.5 -272.5q0 -175 -72.5 -274.5t-198.5 -99.5zM350 111q60 0 92.5 63.5t32.5 180.5q0 116 -32.5 179t-92.5 63t-92.5 -63t-32.5 -179q0 -117 32.5 -180.5t92.5 -63.5z" />
    <glyph glyph-name="one.tf" horiz-adv-x="700" 
d="M463 122h115v-122h-391v122h134v321q0 54 9 105l-3 1q-28 -22 -63 -41l-78 -44l-12 5l11 140l236 114h42v-601z" />
    <glyph glyph-name="two.tf" horiz-adv-x="700" 
d="M92 0v20l208 229q80 83 116.5 143.5t36.5 112.5q0 43 -25 68.5t-70 25.5q-95 0 -118 -115l-17 -9l-121 18q40 234 269 234q102 0 165.5 -58t63.5 -150q0 -150 -153 -303l-44 -46q-23 -23 -62 -53l1 -2q61 8 110 8h142v-123h-502z" />
    <glyph glyph-name="three.tf" horiz-adv-x="700" 
d="M362 -19q-118 0 -186.5 55.5t-80.5 160.5l125 20l18 -8q7 -51 38 -79t79 -28t76.5 29.5t28.5 78.5q0 108 -123 108h-24v97h19q58 0 88.5 26.5t30.5 76.5q0 41 -26 65t-70 24q-42 0 -70 -24.5t-36 -68.5l-18 -8l-120 21q20 95 87 147.5t171 52.5q101 0 162.5 -52
t61.5 -137q0 -60 -32.5 -105.5t-88.5 -63.5q62 -13 98 -61t36 -115q0 -94 -68.5 -153t-175.5 -59z" />
    <glyph glyph-name="four.tf" horiz-adv-x="700" 
d="M400 0v141h-346v84l352 491h134v-453h81v-122h-81v-141h-140zM220 263h182v113q0 103 13 173h-3q-26 -55 -57 -99z" />
    <glyph glyph-name="five.tf" horiz-adv-x="700" 
d="M356 -19q-113 0 -180.5 52t-80.5 148l127 24l18 -10q15 -93 115 -93q52 0 83.5 35t31.5 93q0 59 -35.5 93t-96.5 34q-96 0 -170 -53l-30 10l26 394h396v-120h-274l-10 -146q57 20 111 20q102 0 164.5 -62.5t62.5 -163.5q0 -115 -70.5 -185t-187.5 -70z" />
    <glyph glyph-name="six.tf" horiz-adv-x="700" 
d="M348 -19q-119 0 -189.5 69t-70.5 185q0 66 33.5 135.5t117.5 179.5l150 196l107 -62l4 -17l-87 -112q-65 -82 -117 -124l2 -2q55 30 108 30q92 0 148.5 -61.5t56.5 -164.5q0 -115 -71.5 -183.5t-191.5 -68.5zM351 107q52 0 83.5 34t31.5 90t-31 89.5t-84 33.5
q-54 0 -85.5 -33.5t-31.5 -91.5q0 -56 32 -89t85 -33z" />
    <glyph glyph-name="seven.tf" horiz-adv-x="700" 
d="M443 582h-312v126h515v-20l-337 -701l-25 -7l-109 43z" />
    <glyph glyph-name="eight.tf" horiz-adv-x="700" 
d="M350 -19q-122 0 -189.5 57.5t-67.5 154.5q0 66 36 113.5t104 69.5q-114 40 -114 164q0 82 62 134.5t169 52.5t169 -52.5t62 -134.5q0 -122 -114 -164q68 -22 104 -69.5t36 -113.5q0 -97 -67.5 -154.5t-189.5 -57.5zM349 429q43 0 67.5 25t24.5 69t-24.5 69.5t-67.5 25.5
t-67.5 -25.5t-24.5 -69.5t24.5 -69t67.5 -25zM350 93q53 0 83.5 30t30.5 83t-31 84.5t-83 31.5t-83 -31.5t-31 -84.5t30.5 -83t83.5 -30z" />
    <glyph glyph-name="nine.tf" horiz-adv-x="700" 
d="M310 -38l-107 63l-4 17l87 112q69 85 117 123l-2 3q-54 -30 -108 -30q-91 0 -148 62.5t-57 165.5q0 114 72 182t194 68q119 0 188.5 -68.5t69.5 -184.5q0 -72 -36.5 -143.5t-115.5 -172.5zM351 355q52 0 83 34t31 90t-32 89.5t-84 33.5t-84 -34t-32 -89q0 -57 31.5 -90.5
t86.5 -33.5z" />
    <glyph glyph-name="zero.dnom" 
d="M195 -19q-76 0 -120 59t-44 162t44 162t120 59q77 0 121 -59t44 -162t-44 -162t-121 -59zM195 70q65 0 65 133q0 131 -65 131q-64 0 -64 -131q0 -65 17 -99t47 -34z" />
    <glyph glyph-name="one.dnom" 
d="M163 0v239q0 34 8 69l-3 1q-22 -16 -39 -25l-44 -25l-8 2l7 96l146 69h30v-426h-97z" />
    <glyph glyph-name="two.dnom" 
d="M28 0v13l135 150q75 82 75 129q0 48 -48 48t-60 -63l-11 -5l-84 13q25 143 165 143q62 0 100.5 -35t38.5 -91q0 -90 -84 -171l-21 -21q-13 -13 -39 -31v-2q42 7 69 7h72v-84h-308z" />
    <glyph glyph-name="three.dnom" 
d="M197 -16q-149 0 -164 130l88 14l11 -5q3 -27 19 -42t41 -15t39.5 15.5t14.5 41.5q0 55 -64 55h-14v64h10q63 0 63 53q0 21 -12.5 33.5t-34.5 12.5q-47 0 -58 -48l-10 -5l-83 15q13 58 54.5 89t105.5 31q61 0 98 -31t37 -83q0 -34 -19.5 -60t-51.5 -37q36 -8 57 -36
t21 -67q0 -55 -41.5 -90t-106.5 -35z" />
    <glyph glyph-name="four.dnom" 
d="M220 0v77h-201v62l196 278h101v-257h47v-83h-47v-77h-96zM126 160h96v57q0 59 8 99h-2q-16 -35 -35 -62z" />
    <glyph glyph-name="five.dnom" 
d="M194 -19q-144 0 -161 120l88 17l12 -6q7 -48 59 -48q26 0 42 17.5t16 47.5q0 32 -18 49.5t-52 17.5q-59 0 -103 -31l-19 7l16 237h243v-81h-161l-4 -72q30 10 61 10q62 0 99.5 -36.5t37.5 -96.5q0 -69 -42.5 -110.5t-113.5 -41.5z" />
    <glyph glyph-name="six.dnom" 
d="M191 -19q-73 0 -116.5 41.5t-43.5 112.5q0 41 20.5 82t71.5 107l87 111l72 -43l3 -11l-48 -61q-37 -46 -69 -68l1 -2q32 17 62 17q54 0 87 -36.5t33 -97.5q0 -69 -43.5 -110.5t-116.5 -41.5zM192 67q27 0 43.5 18t16.5 47q0 30 -16.5 47.5t-43.5 17.5q-28 0 -44.5 -17.5
t-16.5 -47.5q0 -29 16.5 -47t44.5 -18z" />
    <glyph glyph-name="seven.dnom" 
d="M225 324h-177v85h316v-12l-197 -412l-16 -5l-77 29z" />
    <glyph glyph-name="eight.dnom" 
d="M196 -19q-75 0 -116.5 34.5t-41.5 92.5q0 38 21 66t61 40q-67 25 -67 97q0 50 38.5 81t104.5 31q65 0 103.5 -31t38.5 -81q0 -70 -67 -97q40 -12 61 -40t21 -66q0 -58 -41.5 -92.5t-115.5 -34.5zM195 248q22 0 34.5 13t12.5 37t-13 37.5t-34 13.5q-22 0 -34.5 -13.5
t-12.5 -37.5t12.5 -37t34.5 -13zM196 57q27 0 42.5 16t15.5 44t-16 45t-42 17q-27 0 -43 -17t-16 -45t16 -44t43 -16z" />
    <glyph glyph-name="nine.dnom" 
d="M177 -30l-72 43l-4 10l49 62q38 46 69 67l-1 1q-32 -16 -62 -16q-54 0 -87 36.5t-33 98.5q0 69 44 110t119 41q73 0 115 -41.5t42 -112.5q0 -43 -21.5 -86t-70.5 -103zM196 208q27 0 43.5 17.5t16.5 47.5q0 29 -16 46.5t-44 17.5t-45 -18t-17 -47q0 -30 16.5 -47
t45.5 -17z" />
    <glyph glyph-name="zero.numr" 
d="M195 280q-76 0 -120 59t-44 162t44 162t120 59q77 0 121 -59t44 -162t-44 -162t-121 -59zM195 369q65 0 65 133q0 131 -65 131q-64 0 -64 -131q0 -65 17 -99t47 -34z" />
    <glyph glyph-name="one.numr" 
d="M163 299v239q0 34 8 69l-3 1q-22 -16 -39 -25l-44 -25l-8 2l7 96l146 69h30v-426h-97z" />
    <glyph glyph-name="two.numr" 
d="M28 299v13l135 150q75 82 75 129q0 48 -48 48t-60 -63l-11 -5l-84 13q25 143 165 143q62 0 100.5 -35t38.5 -91q0 -90 -84 -171l-21 -21q-13 -13 -39 -31v-2q42 7 69 7h72v-84h-308z" />
    <glyph glyph-name="three.numr" 
d="M197 283q-149 0 -164 130l88 14l11 -5q3 -27 19 -42t41 -15t39.5 15.5t14.5 41.5q0 55 -64 55h-14v64h10q63 0 63 53q0 21 -12.5 33.5t-34.5 12.5q-47 0 -58 -48l-10 -5l-83 15q13 58 54.5 89t105.5 31q61 0 98 -31t37 -83q0 -34 -19.5 -60t-51.5 -37q36 -8 57 -36
t21 -67q0 -55 -41.5 -90t-106.5 -35z" />
    <glyph glyph-name="four.numr" 
d="M220 299v77h-201v62l196 278h101v-257h47v-83h-47v-77h-96zM126 459h96v57q0 59 8 99h-2q-16 -35 -35 -62z" />
    <glyph glyph-name="five.numr" 
d="M194 280q-144 0 -161 120l88 17l12 -6q7 -48 59 -48q26 0 42 17.5t16 47.5q0 32 -18 49.5t-52 17.5q-59 0 -103 -31l-19 7l16 237h243v-81h-161l-4 -72q30 10 61 10q62 0 99.5 -36.5t37.5 -96.5q0 -69 -42.5 -110.5t-113.5 -41.5z" />
    <glyph glyph-name="six.numr" 
d="M191 280q-73 0 -116.5 41.5t-43.5 112.5q0 41 20.5 82t71.5 107l87 111l72 -43l3 -11l-48 -61q-37 -46 -69 -68l1 -2q32 17 62 17q54 0 87 -36.5t33 -97.5q0 -69 -43.5 -110.5t-116.5 -41.5zM192 366q27 0 43.5 18t16.5 47q0 30 -16.5 47.5t-43.5 17.5q-28 0 -44.5 -17.5
t-16.5 -47.5q0 -29 16.5 -47t44.5 -18z" />
    <glyph glyph-name="seven.numr" 
d="M225 623h-177v85h316v-12l-197 -412l-16 -5l-77 29z" />
    <glyph glyph-name="eight.numr" 
d="M196 280q-75 0 -116.5 34.5t-41.5 92.5q0 38 21 66t61 40q-67 25 -67 97q0 50 38.5 81t104.5 31q65 0 103.5 -31t38.5 -81q0 -70 -67 -97q40 -12 61 -40t21 -66q0 -58 -41.5 -92.5t-115.5 -34.5zM195 547q22 0 34.5 13t12.5 37t-13 37.5t-34 13.5q-22 0 -34.5 -13.5
t-12.5 -37.5t12.5 -37t34.5 -13zM196 356q27 0 42.5 16t15.5 44t-16 45t-42 17q-27 0 -43 -17t-16 -45t16 -44t43 -16z" />
    <glyph glyph-name="nine.numr" 
d="M177 269l-72 43l-4 10l49 62q38 46 69 67l-1 1q-32 -16 -62 -16q-54 0 -87 36.5t-33 98.5q0 69 44 110t119 41q73 0 115 -41.5t42 -112.5q0 -43 -21.5 -86t-70.5 -103zM196 507q27 0 43.5 17.5t16.5 47.5q0 29 -16 46.5t-44 17.5t-45 -18t-17 -47q0 -30 16.5 -47
t45.5 -17z" />
    <glyph glyph-name="periodcentered.case" horiz-adv-x="296" 
d="M144 273q-36 0 -59.5 24t-23.5 58t24 57.5t59 23.5q36 0 59.5 -23t23.5 -58q0 -34 -23.5 -58t-59.5 -24z" />
    <glyph glyph-name="exclamdown.case" horiz-adv-x="341" 
d="M170 719q36 0 60 -23.5t24 -57.5q0 -35 -24 -58.5t-60 -23.5t-59.5 23.5t-23.5 58.5q0 34 23.5 57.5t59.5 23.5zM107 486h127l7 -486h-141z" />
    <glyph glyph-name="questiondown.case" horiz-adv-x="551" 
d="M283 719q36 0 59.5 -23.5t23.5 -57.5q0 -35 -24 -58.5t-59 -23.5q-36 0 -60 23.5t-24 58.5q0 34 24 57.5t60 23.5zM351 486l1 -40q0 -48 -20.5 -86t-67.5 -75q-41 -33 -55 -56.5t-14 -54.5q0 -35 23 -57t61 -22q85 0 101 91l16 7l115 -16q-13 -92 -77 -144t-163 -52
q-96 0 -155 50.5t-59 131.5q0 61 24 103t83 85q36 28 47.5 47.5t11.5 52.5l1 35h127z" />
    <glyph glyph-name="braceleft.case" horiz-adv-x="347" 
d="M5 404h7q70 0 70 95v166q0 66 34 104t96 38h76v-90h-44q-54 0 -54 -75v-156q0 -54 -25 -88t-63 -39v-2q38 -5 63 -39t25 -88v-156q0 -75 54 -75h44v-90h-77q-61 0 -95 38t-34 104v166q0 95 -70 95h-7v92z" />
    <glyph glyph-name="braceright.case" horiz-adv-x="346" 
d="M341 404v-92h-7q-70 0 -70 -95v-166q0 -66 -34 -104t-95 -38h-77v90h44q54 0 54 75v156q0 54 25 88t63 39v2q-38 5 -63 39t-25 88v156q0 75 -54 75h-44v90h76q62 0 96 -38t34 -104v-166q0 -95 70 -95h7z" />
    <glyph glyph-name="bracketleft.case" horiz-adv-x="327" 
d="M54 -91v898h203v-90h-94v-718h94v-90h-203z" />
    <glyph glyph-name="bracketright.case" horiz-adv-x="325" 
d="M271 -91h-203v90h94v718h-94v90h203v-898z" />
    <glyph glyph-name="parenleft.case" horiz-adv-x="333" 
d="M185 -100q-70 92 -109.5 213.5t-39.5 244.5t39.5 244.5t109.5 213.5l92 -47q-131 -186 -131 -411t131 -411z" />
    <glyph glyph-name="parenright.case" horiz-adv-x="351" 
d="M148 -100l-92 47q131 186 131 411t-131 411l92 47q70 -92 109.5 -213.5t39.5 -244.5t-39.5 -244.5t-109.5 -213.5z" />
    <glyph glyph-name="emdash.case" horiz-adv-x="770" 
d="M30 243v95h710v-95h-710z" />
    <glyph glyph-name="endash.case" horiz-adv-x="500" 
d="M30 243v95h440v-95h-440z" />
    <glyph glyph-name="hyphen.case" horiz-adv-x="320" 
d="M46 243v95h228v-95h-228z" />
    <glyph glyph-name="uni00AD.case" horiz-adv-x="320" 
d="M46 243v95h228v-95h-228z" />
    <glyph glyph-name="guillemotleft.case" horiz-adv-x="533" 
d="M190 97l-145 206l145 206l71 -48l2 -8l-101 -150l101 -149l-2 -9zM398 97l-145 206l145 206l71 -48l2 -8l-101 -150l101 -149l-2 -9z" />
    <glyph glyph-name="guillemotright.case" horiz-adv-x="533" 
d="M135 97l-71 48l-2 9l101 149l-101 150l2 8l71 48l145 -206zM343 97l-71 48l-2 9l101 149l-101 150l2 8l71 48l145 -206z" />
    <glyph glyph-name="guilsinglleft.case" horiz-adv-x="320" 
d="M190 97l-145 206l145 206l71 -48l2 -8l-101 -150l101 -149l-2 -9z" />
    <glyph glyph-name="guilsinglright.case" horiz-adv-x="325" 
d="M135 97l-71 48l-2 9l101 149l-101 150l2 8l71 48l145 -206z" />
    <glyph glyph-name="at.case" horiz-adv-x="896" 
d="M460 -84q-187 0 -300.5 110.5t-112.5 292.5q0 175 119.5 291.5t298.5 116.5q170 0 276 -97t106 -251q0 -114 -61 -185.5t-159 -71.5q-41 0 -68 20t-32 52q-17 -32 -51.5 -52t-72.5 -20q-67 0 -108 48t-41 126q0 97 56 162t140 65q34 0 62.5 -17t40.5 -45l8 39h91
l-30 -157q-15 -80 -15 -93q0 -44 45 -44q41 0 70 47.5t29 115.5q0 128 -76 200t-211 72q-141 0 -230 -90.5t-89 -233.5q0 -146 88 -231t238 -84q108 1 197 44l8 -3l33 -73q-95 -54 -249 -54zM422 206q44 0 74 42t30 103q0 88 -71 88q-41 0 -70 -42.5t-29 -102.5
q0 -40 18 -64t48 -24z" />
    <glyph glyph-name="uni0308.case" horiz-adv-x="0" 
d="M-363 848q0 28 20.5 48t48.5 20t48 -20t20 -48q0 -30 -19.5 -49.5t-48.5 -19.5t-49 19.5t-20 49.5zM-156 848q0 28 20.5 48t48.5 20q29 0 49 -20t20 -48q0 -30 -20 -49.5t-49 -19.5t-49 19.5t-20 49.5z" />
    <glyph glyph-name="uni0307.case" horiz-adv-x="0" 
d="M-112 772q-35 0 -58.5 21.5t-23.5 55.5q0 33 23.5 54.5t58.5 21.5q36 0 59 -22t23 -55t-23 -54.5t-59 -21.5z" />
    <glyph glyph-name="gravecomb.case" horiz-adv-x="0" 
d="M-138 764l-126 126l5 8h124l97 -134h-100z" />
    <glyph glyph-name="acutecomb.case" horiz-adv-x="0" 
d="M-260 764l96 134h123l5 -8l-124 -126h-100z" />
    <glyph glyph-name="uni030B.case" horiz-adv-x="0" 
d="M-427 764l95 134h123l5 -8l-123 -126h-100zM-230 764l94 134h124l5 -8l-124 -126h-99z" />
    <glyph glyph-name="uni0302.case" horiz-adv-x="0" 
d="M-209 847l-77 -83h-88l-6 9l112 125h118l113 -125l-7 -9h-88z" />
    <glyph glyph-name="uni030C.case" horiz-adv-x="0" 
d="M-265 764l-108 125l7 9h87l73 -83l72 83h88l7 -9l-108 -125h-118z" />
    <glyph glyph-name="uni0306.case" horiz-adv-x="0" 
d="M-189 762q-73 0 -117 35t-49 98l8 7h72q12 -58 86 -58q73 0 85 58h72l9 -7q-5 -63 -49.5 -98t-116.5 -35z" />
    <glyph glyph-name="uni030A.case" horiz-adv-x="0" 
d="M-134 753q-43 0 -73 29.5t-30 73.5q0 43 30 72.5t73 29.5t73.5 -29.5t30.5 -72.5q0 -44 -30.5 -73.5t-73.5 -29.5zM-134 798q25 0 41.5 17t16.5 41t-16.5 40.5t-41.5 16.5t-41 -16.5t-16 -40.5t16.5 -41t40.5 -17z" />
    <glyph glyph-name="tildecomb.case" horiz-adv-x="0" 
d="M-130 769q41 0 69.5 35t33.5 91h-64l-8 -6q-8 -39 -36 -39q-19 0 -65.5 22.5t-73.5 22.5q-41 0 -69.5 -35t-33.5 -91h65l7 6q10 39 36 39q19 0 64.5 -22.5t74.5 -22.5z" />
    <glyph glyph-name="uni0304.case" horiz-adv-x="0" 
d="M-333 796v82h302v-82h-302z" />
    <glyph glyph-name="caron.alt" horiz-adv-x="247" 
d="M117 495l-79 30l68 196l12 6l95 -36z" />
    <glyph glyph-name="NULL" horiz-adv-x="600" 
 />
    </font>
</defs>
</svg>
